<svg width="108" height="109" viewBox="0 0 108 109" fill="none" xmlns="http://www.w3.org/2000/svg">
<g clip-path="url(#clip0_442_2810)">
<path d="M12.5094 73.8769L74.0167 12.3649M85.7965 49.2242L75.2488 59.7718M66.2497 68.6606L61.556 73.3543M15.645 101.694H92.3552M11.6896 73.6037C9.9036 71.8183 8.48686 69.6986 7.52026 67.3656C6.55366 65.0326 6.05615 62.5321 6.05615 60.0068C6.05615 57.4815 6.55366 54.9809 7.52026 52.6479C8.48686 50.3149 9.9036 48.1952 11.6896 46.4099L46.6599 11.4396C48.4452 9.6536 50.5649 8.23686 52.8979 7.27026C55.2309 6.30366 57.7315 5.80615 60.2568 5.80615C62.7821 5.80615 65.2826 6.30366 67.6156 7.27026C69.9486 8.23686 72.0683 9.6536 73.8537 11.4396L96.3106 33.8965C98.0966 35.6818 99.5133 37.8016 100.48 40.1345C101.446 42.4675 101.944 44.9681 101.944 47.4934C101.944 50.0187 101.446 52.5193 100.48 54.8523C99.5133 57.1852 98.0966 59.3049 96.3106 61.0903L61.3403 96.0606C59.5549 97.8466 57.4352 99.2633 55.1023 100.23C52.7693 101.196 50.2687 101.694 47.7434 101.694C45.2181 101.694 42.7175 101.196 40.3845 100.23C38.0516 99.2633 35.9318 97.8466 34.1465 96.0606L11.6896 73.6037Z" stroke="url(#paint0_linear_442_2810)" stroke-width="12" stroke-linecap="round" stroke-linejoin="round"/>
</g>
<defs>
<linearGradient id="paint0_linear_442_2810" x1="36.2455" y1="-0.82204" x2="41.7367" y2="118.171" gradientUnits="userSpaceOnUse">
<stop offset="0.164361" stop-color="#38B6FF"/>
<stop offset="0.707355" stop-color="#D4EDF7"/>
</linearGradient>
<clipPath id="clip0_442_2810">
<rect width="108" height="108" fill="white" transform="translate(0 0.25)"/>
</clipPath>
</defs>
</svg>
