<svg width="110" height="109" viewBox="0 0 110 109" fill="none" xmlns="http://www.w3.org/2000/svg">
<path d="M27.6563 54.75H25.5508C23.4397 54.7495 21.3757 55.3743 19.6193 56.5455L6.28125 65.4375V17.3438C6.28125 14.5092 7.40725 11.7908 9.41155 9.78655C11.4158 7.78225 14.1342 6.65625 16.9688 6.65625H54.375C57.2095 6.65625 59.9279 7.78225 61.9322 9.78655C63.9365 11.7908 65.0625 14.5092 65.0625 17.3438V28.0312M54.375 44.0625H91.7813C94.6158 44.0625 97.3342 45.1885 99.3385 47.1928C101.343 49.1971 102.469 51.9155 102.469 54.75V102.844L89.1308 93.9518C87.3743 92.7806 85.3103 92.1558 83.1992 92.1562H54.375C51.5405 92.1562 48.8221 91.0302 46.8178 89.026C44.8135 87.0217 43.6875 84.3033 43.6875 81.4688V54.75C43.6875 51.9155 44.8135 49.1971 46.8178 47.1928C48.8221 45.1885 51.5405 44.0625 54.375 44.0625Z" stroke="url(#paint0_linear_441_2799)" stroke-width="10" stroke-linecap="round" stroke-linejoin="round"/>
<defs>
<linearGradient id="paint0_linear_441_2799" x1="36.565" y1="0.00734398" x2="42.0733" y2="119.372" gradientUnits="userSpaceOnUse">
<stop offset="0.164361" stop-color="#38B6FF"/>
<stop offset="0.707355" stop-color="#D4EDF7"/>
</linearGradient>
</defs>
</svg>
