<svg width="108" height="109" viewBox="0 0 108 109" fill="none" xmlns="http://www.w3.org/2000/svg">
<g clip-path="url(#clip0_441_2794)">
<path d="M58.3401 104.077C71.3871 104.077 77.9081 104.077 82.5941 100.348C87.2753 96.6138 88.7699 90.2309 91.7542 77.4602L101.215 37.0269C102.868 29.9583 103.696 26.4216 102.192 23.8566C99.4689 19.2149 92.5236 20.2212 87.9856 20.2212" stroke="url(#paint0_linear_441_2794)" stroke-width="8" stroke-linecap="round" stroke-linejoin="round"/>
<path d="M4.3269 39.9519C4.3269 23.6741 4.3269 15.5351 9.38291 10.4791C14.4389 5.4231 22.5779 5.4231 38.8557 5.4231H53.6538C69.9317 5.4231 78.0707 5.4231 83.1267 10.4791C88.1827 15.5351 88.1827 23.6741 88.1827 39.9519V69.5481C88.1827 85.826 88.1827 93.9649 83.1267 99.0209C78.0707 104.077 69.9317 104.077 53.6538 104.077H38.8557C22.5779 104.077 14.4389 104.077 9.38291 99.0209C4.3269 93.9649 4.3269 85.826 4.3269 69.5481V39.9519Z" stroke="url(#paint1_linear_441_2794)" stroke-width="8" stroke-linecap="round" stroke-linejoin="round"/>
<path d="M46.2549 25.1538C51.4879 25.1538 56.5065 27.2326 60.2067 30.9328C63.9069 34.6331 65.9857 39.6517 65.9857 44.8846C65.9857 50.1175 63.9069 55.1361 60.2067 58.8363C56.5065 62.5366 51.4879 64.6153 46.2549 64.6153M46.2549 25.1538C41.022 25.1538 36.0034 27.2326 32.3032 30.9328C28.6029 34.6331 26.5242 39.6517 26.5242 44.8846C26.5242 50.1175 28.6029 55.1361 32.3032 58.8363C36.0034 62.5366 41.022 64.6153 46.2549 64.6153M46.2549 25.1538C42.1707 25.1538 38.8559 33.9833 38.8559 44.8846C38.8559 55.7858 42.1707 64.6153 46.2549 64.6153M46.2549 25.1538C50.3392 25.1538 53.654 33.9833 53.654 44.8846C53.654 55.7858 50.3392 64.6153 46.2549 64.6153M28.9905 79.4134H63.5194" stroke="url(#paint2_linear_441_2794)" stroke-width="8" stroke-linecap="round" stroke-linejoin="round"/>
</g>
<defs>
<linearGradient id="paint0_linear_441_2794" x1="72.3945" y1="14.3263" x2="81.3866" y2="117.943" gradientUnits="userSpaceOnUse">
<stop offset="0.164361" stop-color="#38B6FF"/>
<stop offset="0.707355" stop-color="#D4EDF7"/>
</linearGradient>
<linearGradient id="paint1_linear_441_2794" x1="30.7281" y1="-1.3963" x2="37.3692" y2="120.929" gradientUnits="userSpaceOnUse">
<stop offset="0.164361" stop-color="#38B6FF"/>
<stop offset="0.707355" stop-color="#D4EDF7"/>
</linearGradient>
<linearGradient id="paint2_linear_441_2794" x1="38.9483" y1="21.4031" x2="43.2127" y2="88.6098" gradientUnits="userSpaceOnUse">
<stop offset="0.164361" stop-color="#38B6FF"/>
<stop offset="0.707355" stop-color="#D4EDF7"/>
</linearGradient>
<clipPath id="clip0_441_2794">
<rect width="108" height="108" fill="white" transform="translate(0 0.75)"/>
</clipPath>
</defs>
</svg>
