<svg width="131" height="108" viewBox="0 0 131 108" fill="none" xmlns="http://www.w3.org/2000/svg">
<path fill-rule="evenodd" clip-rule="evenodd" d="M53.4694 4.34998H76.6114C78.9484 4.34998 80.8864 6.28798 80.8864 8.62498C80.8864 10.962 78.9484 12.9 76.6114 12.9H53.8114C42.9244 12.9 35.2294 12.9 29.3584 13.698C23.6014 14.496 20.2954 15.921 17.9014 18.315C15.5074 20.766 14.0254 24.015 13.2844 29.772C12.7714 33.648 12.6004 38.322 12.5434 44.193L19.4974 37.467C22.5984 34.504 26.7224 32.8505 31.0114 32.8505C35.3004 32.8505 39.4244 34.504 42.5254 37.467C44.0529 38.935 45.2682 40.6964 46.0983 42.6455C46.9285 44.5947 47.3564 46.6914 47.3564 48.81C47.3564 50.9285 46.9285 53.0253 46.0983 54.9744C45.2682 56.9236 44.0529 58.685 42.5254 60.153C39.5614 63.06 39.5614 67.62 42.5254 70.527C45.6034 73.491 50.6194 73.491 53.6974 70.527L56.5474 67.791C58.2574 66.138 60.9364 66.195 62.5894 67.905C64.2424 69.558 64.1854 72.294 62.4754 73.947L59.6254 76.683C56.5244 79.646 52.4004 81.2995 48.1114 81.2995C43.8224 81.2995 39.6984 79.646 36.5974 76.683C35.0699 75.215 33.8546 73.4536 33.0245 71.5044C32.1943 69.5553 31.7664 67.4585 31.7664 65.34C31.7664 63.2214 32.1943 61.1247 33.0245 59.1755C33.8546 57.2264 35.0699 55.465 36.5974 53.997C39.5614 51.09 39.5614 46.53 36.5974 43.623C33.5194 40.659 28.5034 40.659 25.4254 43.623L12.4864 56.106C12.4864 66.024 12.4864 73.149 13.2844 78.678C14.0824 84.435 15.5074 87.684 17.9014 90.135C20.2954 92.529 23.6014 93.954 29.3584 94.752C35.2294 95.55 42.9244 95.55 53.8114 95.55H76.6114C84.7054 95.55 90.4624 95.55 94.9084 95.094C99.2974 94.638 101.919 93.783 104.028 92.415C106.023 91.104 107.79 89.337 109.158 87.342C110.526 85.233 111.381 82.611 111.837 78.222C112.293 73.776 112.293 68.019 112.293 59.925C112.293 57.588 114.231 55.65 116.568 55.65C118.905 55.65 120.843 57.588 120.843 59.925V60.153C120.843 67.962 120.843 74.175 120.33 79.077C119.817 84.15 118.734 88.368 116.283 92.073C114.288 95.037 111.78 97.545 108.816 99.54C105.111 101.991 100.893 103.074 95.8204 103.587C90.8614 104.1 84.7054 104.1 76.8964 104.1H53.5264C43.0384 104.1 34.7734 104.1 28.2754 103.245C21.6064 102.333 16.1914 100.452 11.9164 96.177C7.64141 91.902 5.76041 86.487 4.84841 79.818C3.99341 73.32 3.99341 64.998 3.99341 54.567V53.883C3.99341 43.452 3.99341 35.13 4.84841 28.632C5.76041 21.963 7.64141 16.548 11.9164 12.273C16.1914 7.99798 21.6064 6.11698 28.2754 5.20498C34.7734 4.34998 43.0384 4.34998 53.5264 4.34998H53.4694ZM120.558 8.11198C115.542 3.09598 107.448 3.09598 102.432 8.11198L71.1964 39.291C68.2324 42.255 66.5794 46.245 66.5794 50.406V59.925C66.5794 62.262 68.5174 64.2 70.8544 64.2H80.3734C84.5344 64.2 88.5244 62.547 91.4314 59.583L122.667 28.404C127.683 23.388 127.683 15.294 122.667 10.278L120.501 8.11198H120.558ZM108.474 14.154C110.127 12.501 112.863 12.501 114.516 14.154L116.682 16.32C118.335 17.973 118.335 20.709 116.682 22.362L85.4464 53.541C84.1354 54.909 82.3114 55.65 80.4304 55.65H75.1864V50.406C75.1864 48.525 75.9274 46.701 77.2954 45.333L108.531 14.154H108.474Z" fill="url(#paint0_linear_441_2781)" stroke="url(#paint1_linear_441_2781)" stroke-width="6"/>
<defs>
<linearGradient id="paint0_linear_441_2781" x1="42.5412" y1="-2.54519" x2="47.1984" y2="121.329" gradientUnits="userSpaceOnUse">
<stop offset="0.164361" stop-color="#38B6FF"/>
<stop offset="0.707355" stop-color="#D4EDF7"/>
</linearGradient>
<linearGradient id="paint1_linear_441_2781" x1="42.5412" y1="-2.54519" x2="47.1984" y2="121.329" gradientUnits="userSpaceOnUse">
<stop offset="0.164361" stop-color="#38B6FF"/>
<stop offset="0.707355" stop-color="#D4EDF7"/>
</linearGradient>
</defs>
</svg>
