<svg width="29" height="24" viewBox="0 0 29 24" fill="none" xmlns="http://www.w3.org/2000/svg">
<g clip-path="url(#clip0_499_2071)">
<path fill-rule="evenodd" clip-rule="evenodd" d="M11.8548 0.966675H16.9857C17.5038 0.966675 17.9335 1.39734 17.9335 1.91667C17.9335 2.43601 17.5038 2.86667 16.9857 2.86667H11.9307C9.51687 2.86667 7.81079 2.86667 6.50911 3.04401C5.23271 3.22134 4.49973 3.53801 3.96895 4.07001C3.43817 4.61467 3.1096 5.33667 2.94531 6.61601C2.83157 7.47734 2.79366 8.51601 2.78102 9.82067L4.32281 8.32601C5.01034 7.66756 5.92467 7.30012 6.8756 7.30012C7.82654 7.30012 8.74087 7.66756 9.4284 8.32601C9.76707 8.65223 10.0365 9.04365 10.2206 9.4768C10.4046 9.90994 10.4995 10.3759 10.4995 10.8467C10.4995 11.3175 10.4046 11.7834 10.2206 12.2166C10.0365 12.6497 9.76707 13.0411 9.4284 13.3673C8.77125 14.0133 8.77125 15.0267 9.4284 15.6727C10.1108 16.3313 11.2229 16.3313 11.9054 15.6727L12.5373 15.0647C12.9164 14.6973 13.5104 14.71 13.8768 15.09C14.2433 15.4573 14.2307 16.0653 13.8516 16.4327L13.2197 17.0407C12.5322 17.6991 11.6178 18.0666 10.6669 18.0666C9.71596 18.0666 8.80163 17.6991 8.11409 17.0407C7.77542 16.7145 7.50598 16.323 7.32193 15.8899C7.13787 15.4567 7.043 14.9908 7.043 14.52C7.043 14.0492 7.13787 13.5833 7.32193 13.1501C7.50598 12.717 7.77542 12.3256 8.11409 11.9993C8.77125 11.3533 8.77125 10.34 8.11409 9.69401C7.43166 9.03534 6.31955 9.03534 5.63712 9.69401L2.76838 12.468C2.76838 14.672 2.76838 16.2553 2.94531 17.484C3.12223 18.7633 3.43817 19.4853 3.96895 20.03C4.49973 20.562 5.23271 20.8787 6.50911 21.056C7.81079 21.2333 9.51687 21.2333 11.9307 21.2333H16.9857C18.7802 21.2333 20.0566 21.2333 21.0424 21.132C22.0155 21.0307 22.5968 20.8407 23.0644 20.5367C23.5067 20.2453 23.8985 19.8527 24.2018 19.4093C24.5051 18.9407 24.6946 18.358 24.7957 17.3827C24.8968 16.3947 24.8968 15.1153 24.8968 13.3167C24.8968 12.7973 25.3265 12.3667 25.8447 12.3667C26.3628 12.3667 26.7925 12.7973 26.7925 13.3167V13.3673C26.7925 15.1027 26.7925 16.4833 26.6787 17.5727C26.565 18.7 26.3249 19.6373 25.7815 20.4607C25.3392 21.1193 24.7831 21.6767 24.1259 22.12C23.3045 22.6647 22.3693 22.9053 21.2446 23.0193C20.1451 23.1333 18.7802 23.1333 17.0489 23.1333H11.8675C9.54214 23.1333 7.70969 23.1333 6.269 22.9433C4.7904 22.7407 3.58983 22.3227 2.642 21.3727C1.69418 20.4227 1.27714 19.2193 1.07494 17.7373C0.885376 16.2933 0.885376 14.444 0.885376 12.126V11.974C0.885376 9.65601 0.885376 7.80667 1.07494 6.36268C1.27714 4.88068 1.69418 3.67734 2.642 2.72734C3.58983 1.77734 4.7904 1.35934 6.269 1.15668C7.70969 0.966675 9.54214 0.966675 11.8675 0.966675H11.8548ZM26.7293 1.80267C25.6172 0.688008 23.8226 0.688008 22.7105 1.80267L15.7851 8.73134C15.128 9.39001 14.7615 10.2767 14.7615 11.2013V13.3167C14.7615 13.836 15.1912 14.2667 15.7093 14.2667H17.8198C18.7423 14.2667 19.627 13.8993 20.2715 13.2407L27.1969 6.31201C28.309 5.19734 28.309 3.39867 27.1969 2.28401L26.7167 1.80267H26.7293ZM24.0501 3.14534C24.4166 2.77801 25.0232 2.77801 25.3897 3.14534L25.8699 3.62667C26.2364 3.99401 26.2364 4.60201 25.8699 4.96934L18.9445 11.898C18.6539 12.202 18.2495 12.3667 17.8324 12.3667H16.6698V11.2013C16.6698 10.7833 16.834 10.378 17.1373 10.074L24.0628 3.14534H24.0501Z" fill="url(#paint0_linear_499_2071)"/>
</g>
<defs>
<linearGradient id="paint0_linear_499_2071" x1="9.43191" y1="-0.565583" x2="10.4692" y2="26.9618" gradientUnits="userSpaceOnUse">
<stop offset="0.164361" stop-color="#38B6FF"/>
<stop offset="0.707355" stop-color="#D4EDF7"/>
</linearGradient>
<clipPath id="clip0_499_2071">
<rect width="29" height="24" fill="white"/>
</clipPath>
</defs>
</svg>
