<svg width="24" height="24" viewBox="0 0 24 24" fill="none" xmlns="http://www.w3.org/2000/svg">
<path d="M20.4443 10.024C20.4443 5.97913 20.4443 3.95774 19.2072 2.70057C17.9701 1.4434 15.9804 1.44446 11.9999 1.44446H9.88878C5.90828 1.44446 3.9175 1.44446 2.68145 2.70057C1.44539 3.95668 1.44434 5.97913 1.44434 10.024C1.44434 14.0689 1.44434 16.0903 2.68145 17.3475C3.17756 17.851 3.794 18.1528 4.611 18.3333" stroke="url(#paint0_linear_499_2063)" stroke-width="2" stroke-linecap="round" stroke-linejoin="round"/>
<path d="M22.5556 17.8055C22.5556 15.8264 22.5556 14.8373 22.0521 14.1428C21.8894 13.9188 21.6924 13.7218 21.4684 13.559C20.7738 13.0555 19.7848 13.0555 17.8056 13.0555H12.5278C10.5487 13.0555 9.55961 13.0555 8.86505 13.559C8.64106 13.7218 8.44408 13.9188 8.28133 14.1428C7.77783 14.8384 7.77783 15.8274 7.77783 17.8055C7.77783 19.7837 7.77783 20.7738 8.28133 21.4683C8.4444 21.6924 8.64174 21.8894 8.86611 22.052C9.55961 22.5555 10.5487 22.5555 12.5278 22.5555H17.8056C19.7848 22.5555 20.7738 22.5555 21.4684 22.052C21.6924 21.8893 21.8894 21.6923 22.0521 21.4683C22.5556 20.7738 22.5556 19.7847 22.5556 17.8055Z" stroke="url(#paint1_linear_499_2063)" stroke-width="2" stroke-linecap="round" stroke-linejoin="round"/>
<path d="M16.7499 16.2222L17.7211 17.0592C18.1296 17.4107 18.3333 17.587 18.3333 17.8055C18.3333 18.024 18.1296 18.2003 17.7211 18.5518L16.7499 19.3888M13.5833 16.2222L12.6122 17.0592C12.2037 17.4107 11.9999 17.587 11.9999 17.8055C11.9999 18.024 12.2037 18.2003 12.6122 18.5518L13.5833 19.3888M1.97217 5.66663H19.9166" stroke="url(#paint2_linear_499_2063)" stroke-width="2" stroke-linecap="round" stroke-linejoin="round"/>
<defs>
<linearGradient id="paint0_linear_499_2063" x1="7.42631" y1="0.277023" x2="8.28639" y2="21.2448" gradientUnits="userSpaceOnUse">
<stop offset="0.164361" stop-color="#38B6FF"/>
<stop offset="0.707355" stop-color="#D4EDF7"/>
</linearGradient>
<linearGradient id="paint1_linear_499_2063" x1="12.4305" y1="12.3989" x2="12.7806" y2="24.2027" gradientUnits="userSpaceOnUse">
<stop offset="0.164361" stop-color="#38B6FF"/>
<stop offset="0.707355" stop-color="#D4EDF7"/>
</linearGradient>
<linearGradient id="paint2_linear_499_2063" x1="7.62181" y1="4.71809" x2="8.22326" y2="21.7618" gradientUnits="userSpaceOnUse">
<stop offset="0.164361" stop-color="#38B6FF"/>
<stop offset="0.707355" stop-color="#D4EDF7"/>
</linearGradient>
</defs>
</svg>
