<svg width="107" height="109" viewBox="0 0 107 109" fill="none" xmlns="http://www.w3.org/2000/svg">
<path d="M101 55C101 28.7658 79.7342 7.5 53.5 7.5C27.2658 7.5 6 28.7658 6 55C6 81.2342 27.2658 102.5 53.5 102.5" stroke="url(#paint0_linear_442_2808)" stroke-width="12" stroke-linecap="round" stroke-linejoin="round"/>
<path d="M91.5 25.0702C87.0587 25.3885 81.373 27.1128 77.4305 32.2143C70.3055 41.4293 63.1852 42.2035 58.4352 39.1303C51.3102 34.5228 57.3 27.051 48.94 22.9945C43.4918 20.3488 42.7317 13.1525 45.767 7.5M6 50.25C9.62425 53.3945 14.6925 56.273 20.6728 56.273C33.0228 56.273 35.4927 58.6337 35.4927 68.072C35.4927 77.5102 35.4928 77.5103 37.9628 84.5878C39.5683 89.1953 40.1287 93.7932 36.9272 97.75M91.0203 92.6628L101 102.5M96.763 78.9685C96.7605 81.4948 96.2604 83.9959 95.2914 86.3289C94.3223 88.662 92.9032 90.7813 91.115 92.5659C89.3269 94.3505 87.2048 95.7654 84.8698 96.7299C82.5349 97.6944 80.0328 98.1895 77.5065 98.187C74.9802 98.1895 72.4781 97.6944 70.1432 96.7299C67.8082 95.7654 65.6861 94.3505 63.898 92.5659C62.1098 90.7813 60.6907 88.662 59.7216 86.3289C58.7526 83.9959 58.2525 81.4948 58.25 78.9685C58.2525 76.4422 58.7526 73.9411 59.7216 71.6081C60.6907 69.275 62.1098 67.1557 63.898 65.3711C65.6861 63.5865 67.8082 62.1716 70.1432 61.2071C72.4781 60.2426 74.9802 59.7475 77.5065 59.75C80.0328 59.7475 82.5349 60.2426 84.8698 61.2071C87.2048 62.1716 89.3269 63.5865 91.115 65.3711C92.9032 67.1557 94.3223 69.275 95.2914 71.6081C96.2604 73.9411 96.7605 76.4422 96.763 78.9685Z" stroke="url(#paint1_linear_442_2808)" stroke-width="12" stroke-linecap="round" stroke-linejoin="round"/>
<defs>
<linearGradient id="paint0_linear_442_2808" x1="35.9099" y1="0.933179" x2="41.3502" y2="118.824" gradientUnits="userSpaceOnUse">
<stop offset="0.164361" stop-color="#38B6FF"/>
<stop offset="0.707355" stop-color="#D4EDF7"/>
</linearGradient>
<linearGradient id="paint1_linear_442_2808" x1="35.9099" y1="0.933179" x2="41.3502" y2="118.824" gradientUnits="userSpaceOnUse">
<stop offset="0.164361" stop-color="#38B6FF"/>
<stop offset="0.707355" stop-color="#D4EDF7"/>
</linearGradient>
</defs>
</svg>
