<svg width="235" height="235" viewBox="0 0 235 235" fill="none" xmlns="http://www.w3.org/2000/svg">
<g filter="url(#filter0_ii_8_1661)">
<circle cx="74.2035" cy="31.2036" r="31" fill="url(#paint0_linear_8_1661)"/>
</g>
<path fill-rule="evenodd" clip-rule="evenodd" d="M92.8019 19.282C91.4343 19.8896 89.9625 20.2987 88.4188 20.4835C89.9948 19.5387 91.2049 18.0433 91.774 16.2616C90.301 17.137 88.6656 17.7706 86.9284 18.114C85.536 16.6311 83.5509 15.7036 81.3575 15.7036C77.143 15.7036 73.7258 19.1208 73.7258 23.3353C73.7258 23.9329 73.794 24.5157 73.9242 25.0749C67.5808 24.7575 61.9577 21.7185 58.1934 17.101C57.5362 18.2281 57.1605 19.5387 57.1605 20.9373C57.1605 23.5845 58.5058 25.9205 60.5554 27.2894C59.3031 27.2497 58.1276 26.9063 57.0973 26.3347V26.4301C57.0973 30.1288 59.7296 33.2125 63.2187 33.9155C62.5789 34.0891 61.9044 34.1834 61.2088 34.1834C60.7166 34.1834 60.238 34.135 59.7718 34.0457C60.7426 37.0773 63.5622 39.2844 66.9013 39.3464C64.29 41.3922 60.9993 42.6135 57.4234 42.6135C56.8059 42.6135 56.1983 42.5776 55.6019 42.5057C58.9795 44.6706 62.9906 45.9353 67.3005 45.9353C81.3377 45.9353 89.014 34.3061 89.014 24.2218C89.014 23.8908 89.0078 23.561 88.9917 23.2349C90.4845 22.1562 91.779 20.8121 92.8019 19.282Z" fill="url(#paint1_linear_8_1661)"/>
<g filter="url(#filter1_ii_8_1661)">
<path d="M129.203 31.2036C129.203 48.3244 143.083 62.2036 160.203 62.2036C177.324 62.2036 191.203 48.3244 191.203 31.2036C191.203 14.0828 177.324 0.203613 160.203 0.203613C143.083 0.203613 129.203 14.0828 129.203 31.2036Z" fill="url(#paint2_linear_8_1661)"/>
</g>
<path fill-rule="evenodd" clip-rule="evenodd" d="M171.054 20.1599C168.147 17.2536 164.272 15.7036 160.203 15.7036C151.678 15.7036 144.703 22.6786 144.703 31.2036C144.703 33.9161 145.479 36.6286 146.835 38.9536L144.703 46.7036L152.841 44.5724C155.166 45.7349 157.685 46.5099 160.203 46.5099C168.728 46.5099 175.703 39.5349 175.703 31.0099C175.703 26.9411 173.96 23.0661 171.054 20.1599ZM160.203 43.9911C157.878 43.9911 155.554 43.4099 153.616 42.2474L153.228 42.0536L148.385 43.4099L149.741 38.7599L149.353 38.1786C147.997 36.0474 147.416 33.7224 147.416 31.3974C147.416 24.4224 153.228 18.6099 160.203 18.6099C163.691 18.6099 166.791 19.9661 169.31 22.2911C171.829 24.8099 172.991 27.9099 172.991 31.3974C172.991 38.1786 167.372 43.9911 160.203 43.9911ZM167.179 34.3036C166.791 34.1099 164.854 33.1411 164.466 33.1411C164.079 32.9474 163.885 32.9474 163.691 33.3349C163.497 33.7224 162.722 34.4974 162.529 34.8849C162.335 35.0786 162.141 35.0786 161.753 35.0786C161.366 34.8849 160.204 34.4974 158.654 33.1411C157.491 32.1724 156.716 30.8161 156.522 30.4286C156.329 30.0411 156.522 29.8474 156.716 29.6536C156.91 29.4599 157.103 29.2661 157.297 29.0724C157.491 28.8786 157.491 28.6849 157.685 28.4911C157.879 28.2974 157.685 28.1036 157.685 27.9099C157.685 27.7161 156.91 25.7786 156.522 25.0036C156.329 24.4224 155.941 24.4224 155.747 24.4224C155.554 24.4224 155.36 24.4224 154.972 24.4224C154.778 24.4224 154.391 24.4224 154.003 24.8099C153.616 25.1974 152.647 26.1661 152.647 28.1036C152.647 30.0411 154.003 31.7849 154.197 32.1724C154.391 32.3661 156.91 36.4349 160.785 37.9849C164.078 39.3411 164.66 38.9536 165.435 38.9536C166.21 38.9536 167.76 37.9849 167.953 37.2099C168.341 36.2411 168.341 35.4661 168.147 35.4661C167.954 34.4974 167.566 34.4974 167.179 34.3036Z" fill="url(#paint3_linear_8_1661)"/>
<g filter="url(#filter2_ii_8_1661)">
<circle cx="31" cy="117.407" r="31" fill="url(#paint4_linear_8_1661)"/>
</g>
<path d="M30.9985 102.158C35.9648 102.158 36.5531 102.177 38.5144 102.267C40.3279 102.35 41.3128 102.653 41.9682 102.907C42.8364 103.245 43.456 103.648 44.1068 104.299C44.7577 104.95 45.1608 105.569 45.4982 106.437C45.7529 107.093 46.0559 108.078 46.1386 109.891C46.2281 111.852 46.2471 112.441 46.2471 117.407C46.2471 122.373 46.2281 122.962 46.1386 124.923C46.0559 126.737 45.7529 127.721 45.4982 128.377C45.1608 129.245 44.7577 129.865 44.1069 130.515C43.456 131.166 42.8364 131.569 41.9682 131.907C41.3128 132.162 40.3279 132.465 38.5144 132.547C36.5534 132.637 35.9652 132.656 30.9985 132.656C26.0317 132.656 25.4435 132.637 23.4824 132.547C21.669 132.465 20.6841 132.162 20.0287 131.907C19.1605 131.569 18.5409 131.166 17.89 130.515C17.2392 129.865 16.8361 129.245 16.4987 128.377C16.2439 127.721 15.9409 126.737 15.8582 124.923C15.7688 122.962 15.7498 122.373 15.7498 117.407C15.7498 112.441 15.7688 111.852 15.8582 109.891C15.9409 108.078 16.2439 107.093 16.4987 106.437C16.8361 105.569 17.2391 104.95 17.89 104.299C18.5409 103.648 19.1605 103.245 20.0287 102.907C20.6841 102.653 21.669 102.35 23.4824 102.267C25.4437 102.177 26.032 102.158 30.9985 102.158ZM30.9985 98.8071C25.947 98.8071 25.3136 98.8285 23.3297 98.9191C21.3499 99.0094 19.9978 99.3238 18.8147 99.7836C17.5916 100.259 16.5543 100.895 15.5202 101.929C14.4862 102.963 13.8502 104 13.375 105.223C12.9151 106.406 12.6007 107.759 12.5104 109.738C12.4198 111.722 12.3984 112.356 12.3984 117.407C12.3984 122.459 12.4198 123.092 12.5104 125.076C12.6007 127.056 12.9151 128.408 13.375 129.591C13.8502 130.814 14.4862 131.851 15.5202 132.885C16.5543 133.919 17.5916 134.555 18.8147 135.03C19.9978 135.49 21.3499 135.805 23.3297 135.895C25.3136 135.986 25.947 136.007 30.9985 136.007C36.0499 136.007 36.6833 135.986 38.6672 135.895C40.6469 135.805 41.999 135.49 43.1821 135.03C44.4053 134.555 45.4425 133.919 46.4766 132.885C47.5107 131.851 48.1467 130.814 48.622 129.591C49.0818 128.408 49.3962 127.056 49.4865 125.076C49.577 123.092 49.5984 122.459 49.5984 117.407C49.5984 112.356 49.577 111.722 49.4865 109.738C49.3962 107.759 49.0818 106.406 48.622 105.223C48.1467 104 47.5107 102.963 46.4766 101.929C45.4425 100.895 44.4053 100.259 43.1821 99.7836C41.999 99.3238 40.6469 99.0094 38.6672 98.9191C36.6833 98.8285 36.0499 98.8071 30.9985 98.8071Z" fill="url(#paint5_linear_8_1661)"/>
<path d="M31.008 107.864C25.7329 107.864 21.4567 112.14 21.4567 117.416C21.4567 122.691 25.7329 126.967 31.008 126.967C36.2831 126.967 40.5594 122.691 40.5594 117.416C40.5594 112.14 36.2831 107.864 31.008 107.864ZM31.008 123.616C27.5838 123.616 24.808 120.84 24.808 117.416C24.808 113.991 27.5838 111.216 31.008 111.216C34.4322 111.216 37.208 113.991 37.208 117.416C37.208 120.84 34.4322 123.616 31.008 123.616Z" fill="url(#paint6_linear_8_1661)"/>
<g filter="url(#filter3_ii_8_1661)">
<circle cx="117" cy="117.407" r="31" fill="url(#paint7_linear_8_1661)"/>
</g>
<path fill-rule="evenodd" clip-rule="evenodd" d="M125.239 106.492C124.272 106.299 122.967 106.154 122.147 106.154C119.925 106.154 119.78 107.121 119.78 108.666V111.418H125.335L124.851 117.119H119.78V134.457H112.825V117.119H109.25V111.418H112.825V107.892C112.825 103.063 115.095 100.357 120.794 100.357C122.774 100.357 124.224 100.647 126.107 101.034L125.239 106.492Z" fill="url(#paint8_linear_8_1661)"/>
<g filter="url(#filter4_ii_8_1661)">
<path d="M234.407 117.407C234.407 100.174 220.437 86.2036 203.204 86.2036C185.97 86.2036 172 100.174 172 117.407C172 134.64 185.97 148.611 203.204 148.611C220.437 148.611 234.407 134.64 234.407 117.407Z" fill="url(#paint9_linear_8_1661)"/>
</g>
<path d="M201.603 119.579C200.622 119.254 199.564 119.249 198.58 119.563C197.596 119.878 196.738 120.496 196.128 121.33C195.518 122.164 195.188 123.169 195.186 124.202C195.184 125.235 195.509 126.242 196.116 127.078C196.722 127.914 197.579 128.536 198.561 128.855C199.544 129.174 200.602 129.172 201.584 128.851C202.566 128.53 203.42 127.905 204.025 127.068C204.629 126.23 204.952 125.222 204.947 124.189V101.412H210.732C210.732 103.522 211.57 105.545 213.061 107.036C214.553 108.528 216.576 109.366 218.686 109.366V115.06C215.834 115.074 213.051 114.189 210.732 112.529V124.099C210.748 126.256 210.105 128.366 208.888 130.147C207.671 131.927 205.939 133.293 203.924 134.062C201.908 134.83 199.706 134.964 197.613 134.445C195.519 133.926 193.635 132.779 192.211 131.159C190.788 129.538 189.894 127.521 189.65 125.378C189.406 123.235 189.823 121.069 190.845 119.169C191.867 117.27 193.445 115.729 195.368 114.752C197.291 113.775 199.466 113.41 201.603 113.704" fill="url(#paint10_linear_8_1661)"/>
<g style="mix-blend-mode:multiply">
<path d="M199.974 118.224C198.994 117.899 197.935 117.893 196.951 118.208C195.967 118.522 195.109 119.141 194.499 119.974C193.889 120.808 193.559 121.814 193.557 122.847C193.555 123.88 193.88 124.887 194.487 125.723C195.094 126.559 195.95 127.181 196.932 127.5C197.915 127.818 198.973 127.817 199.955 127.496C200.937 127.174 201.791 126.55 202.396 125.712C203 124.875 203.323 123.867 203.318 122.834V100.057H209.103C209.103 102.166 209.941 104.189 211.433 105.681C212.924 107.173 214.947 108.011 217.057 108.011V113.705C214.205 113.719 211.422 112.833 209.103 111.174V122.743C209.12 124.9 208.476 127.01 207.259 128.791C206.043 130.572 204.31 131.938 202.295 132.706C200.28 133.474 198.077 133.608 195.984 133.089C193.891 132.57 192.006 131.424 190.583 129.803C189.159 128.183 188.266 126.166 188.021 124.023C187.777 121.88 188.194 119.713 189.216 117.814C190.238 115.915 191.816 114.373 193.739 113.396C195.662 112.42 197.837 112.054 199.974 112.349" fill="url(#paint11_linear_8_1661)"/>
</g>
<g filter="url(#filter5_ii_8_1661)">
<circle cx="74.2035" cy="203.611" r="31" fill="url(#paint12_linear_8_1661)"/>
</g>
<path fill-rule="evenodd" clip-rule="evenodd" d="M91.7184 191.797C92.337 192.415 92.7827 193.185 93.0112 194.03C94.327 199.326 94.023 207.691 93.0368 213.192C92.8083 214.036 92.3625 214.806 91.7439 215.425C91.1253 216.043 90.3554 216.489 89.511 216.718C86.4195 217.561 73.9769 217.561 73.9769 217.561C73.9769 217.561 61.5343 217.561 58.4428 216.718C57.5984 216.489 56.8285 216.043 56.2099 215.425C55.5913 214.806 55.1455 214.036 54.917 213.192C53.5936 207.918 53.9564 199.548 54.8915 194.055C55.12 193.211 55.5657 192.441 56.1843 191.822C56.8029 191.204 57.5728 190.758 58.4173 190.529C61.5088 189.686 73.9514 189.661 73.9514 189.661C73.9514 189.661 86.3939 189.661 89.4854 190.504C90.3299 190.732 91.0998 191.178 91.7184 191.797ZM80.3132 203.611L69.9912 209.589V197.632L80.3132 203.611Z" fill="url(#paint13_linear_8_1661)"/>
<g filter="url(#filter6_ii_8_1661)">
<circle cx="160.203" cy="203.611" r="31" fill="url(#paint14_linear_8_1661)"/>
</g>
<path fill-rule="evenodd" clip-rule="evenodd" d="M152.104 188.551C152.104 190.481 150.635 192.042 148.337 192.042C146.129 192.042 144.659 190.481 144.705 188.551C144.659 186.527 146.129 185.011 148.381 185.011C150.635 185.011 152.06 186.527 152.104 188.551ZM144.889 217.28V194.801H151.876V217.279H144.889V217.28Z" fill="url(#paint15_linear_8_1661)"/>
<path fill-rule="evenodd" clip-rule="evenodd" d="M157.477 201.975C157.477 199.171 157.384 196.781 157.292 194.804H163.36L163.683 197.883H163.821C164.74 196.458 167.038 194.299 170.761 194.299C175.357 194.299 178.805 197.333 178.805 203.95V217.283H171.819V204.826C171.819 201.928 170.808 199.953 168.28 199.953C166.349 199.953 165.2 201.286 164.741 202.572C164.557 203.032 164.466 203.674 164.466 204.32V217.283H157.479V201.975H157.477Z" fill="url(#paint16_linear_8_1661)"/>
<defs>
<filter id="filter0_ii_8_1661" x="43.2035" y="-9.79639" width="62" height="76" filterUnits="userSpaceOnUse" color-interpolation-filters="sRGB">
<feFlood flood-opacity="0" result="BackgroundImageFix"/>
<feBlend mode="normal" in="SourceGraphic" in2="BackgroundImageFix" result="shape"/>
<feColorMatrix in="SourceAlpha" type="matrix" values="0 0 0 0 0 0 0 0 0 0 0 0 0 0 0 0 0 0 127 0" result="hardAlpha"/>
<feOffset dy="4"/>
<feGaussianBlur stdDeviation="2.5"/>
<feComposite in2="hardAlpha" operator="arithmetic" k2="-1" k3="1"/>
<feColorMatrix type="matrix" values="0 0 0 0 1 0 0 0 0 1 0 0 0 0 1 0 0 0 0.12 0"/>
<feBlend mode="normal" in2="shape" result="effect1_innerShadow_8_1661"/>
<feColorMatrix in="SourceAlpha" type="matrix" values="0 0 0 0 0 0 0 0 0 0 0 0 0 0 0 0 0 0 127 0" result="hardAlpha"/>
<feOffset dy="-10"/>
<feGaussianBlur stdDeviation="5"/>
<feComposite in2="hardAlpha" operator="arithmetic" k2="-1" k3="1"/>
<feColorMatrix type="matrix" values="0 0 0 0 0.534688 0 0 0 0 0.660374 0 0 0 0 0.7375 0 0 0 0.26 0"/>
<feBlend mode="normal" in2="effect1_innerShadow_8_1661" result="effect2_innerShadow_8_1661"/>
</filter>
<filter id="filter1_ii_8_1661" x="129.203" y="-9.79639" width="62" height="76" filterUnits="userSpaceOnUse" color-interpolation-filters="sRGB">
<feFlood flood-opacity="0" result="BackgroundImageFix"/>
<feBlend mode="normal" in="SourceGraphic" in2="BackgroundImageFix" result="shape"/>
<feColorMatrix in="SourceAlpha" type="matrix" values="0 0 0 0 0 0 0 0 0 0 0 0 0 0 0 0 0 0 127 0" result="hardAlpha"/>
<feOffset dy="4"/>
<feGaussianBlur stdDeviation="2.5"/>
<feComposite in2="hardAlpha" operator="arithmetic" k2="-1" k3="1"/>
<feColorMatrix type="matrix" values="0 0 0 0 1 0 0 0 0 1 0 0 0 0 1 0 0 0 0.12 0"/>
<feBlend mode="normal" in2="shape" result="effect1_innerShadow_8_1661"/>
<feColorMatrix in="SourceAlpha" type="matrix" values="0 0 0 0 0 0 0 0 0 0 0 0 0 0 0 0 0 0 127 0" result="hardAlpha"/>
<feOffset dy="-10"/>
<feGaussianBlur stdDeviation="5"/>
<feComposite in2="hardAlpha" operator="arithmetic" k2="-1" k3="1"/>
<feColorMatrix type="matrix" values="0 0 0 0 0.534688 0 0 0 0 0.660374 0 0 0 0 0.7375 0 0 0 0.26 0"/>
<feBlend mode="normal" in2="effect1_innerShadow_8_1661" result="effect2_innerShadow_8_1661"/>
</filter>
<filter id="filter2_ii_8_1661" x="0" y="76.4072" width="62" height="76" filterUnits="userSpaceOnUse" color-interpolation-filters="sRGB">
<feFlood flood-opacity="0" result="BackgroundImageFix"/>
<feBlend mode="normal" in="SourceGraphic" in2="BackgroundImageFix" result="shape"/>
<feColorMatrix in="SourceAlpha" type="matrix" values="0 0 0 0 0 0 0 0 0 0 0 0 0 0 0 0 0 0 127 0" result="hardAlpha"/>
<feOffset dy="4"/>
<feGaussianBlur stdDeviation="2.5"/>
<feComposite in2="hardAlpha" operator="arithmetic" k2="-1" k3="1"/>
<feColorMatrix type="matrix" values="0 0 0 0 1 0 0 0 0 1 0 0 0 0 1 0 0 0 0.12 0"/>
<feBlend mode="normal" in2="shape" result="effect1_innerShadow_8_1661"/>
<feColorMatrix in="SourceAlpha" type="matrix" values="0 0 0 0 0 0 0 0 0 0 0 0 0 0 0 0 0 0 127 0" result="hardAlpha"/>
<feOffset dy="-10"/>
<feGaussianBlur stdDeviation="5"/>
<feComposite in2="hardAlpha" operator="arithmetic" k2="-1" k3="1"/>
<feColorMatrix type="matrix" values="0 0 0 0 0.534688 0 0 0 0 0.660374 0 0 0 0 0.7375 0 0 0 0.26 0"/>
<feBlend mode="normal" in2="effect1_innerShadow_8_1661" result="effect2_innerShadow_8_1661"/>
</filter>
<filter id="filter3_ii_8_1661" x="86" y="76.4072" width="62" height="76" filterUnits="userSpaceOnUse" color-interpolation-filters="sRGB">
<feFlood flood-opacity="0" result="BackgroundImageFix"/>
<feBlend mode="normal" in="SourceGraphic" in2="BackgroundImageFix" result="shape"/>
<feColorMatrix in="SourceAlpha" type="matrix" values="0 0 0 0 0 0 0 0 0 0 0 0 0 0 0 0 0 0 127 0" result="hardAlpha"/>
<feOffset dy="4"/>
<feGaussianBlur stdDeviation="2.5"/>
<feComposite in2="hardAlpha" operator="arithmetic" k2="-1" k3="1"/>
<feColorMatrix type="matrix" values="0 0 0 0 1 0 0 0 0 1 0 0 0 0 1 0 0 0 0.12 0"/>
<feBlend mode="normal" in2="shape" result="effect1_innerShadow_8_1661"/>
<feColorMatrix in="SourceAlpha" type="matrix" values="0 0 0 0 0 0 0 0 0 0 0 0 0 0 0 0 0 0 127 0" result="hardAlpha"/>
<feOffset dy="-10"/>
<feGaussianBlur stdDeviation="5"/>
<feComposite in2="hardAlpha" operator="arithmetic" k2="-1" k3="1"/>
<feColorMatrix type="matrix" values="0 0 0 0 0.534688 0 0 0 0 0.660374 0 0 0 0 0.7375 0 0 0 0.26 0"/>
<feBlend mode="normal" in2="effect1_innerShadow_8_1661" result="effect2_innerShadow_8_1661"/>
</filter>
<filter id="filter4_ii_8_1661" x="172" y="76.2036" width="62.4071" height="76.4072" filterUnits="userSpaceOnUse" color-interpolation-filters="sRGB">
<feFlood flood-opacity="0" result="BackgroundImageFix"/>
<feBlend mode="normal" in="SourceGraphic" in2="BackgroundImageFix" result="shape"/>
<feColorMatrix in="SourceAlpha" type="matrix" values="0 0 0 0 0 0 0 0 0 0 0 0 0 0 0 0 0 0 127 0" result="hardAlpha"/>
<feOffset dy="4"/>
<feGaussianBlur stdDeviation="2.5"/>
<feComposite in2="hardAlpha" operator="arithmetic" k2="-1" k3="1"/>
<feColorMatrix type="matrix" values="0 0 0 0 1 0 0 0 0 1 0 0 0 0 1 0 0 0 0.12 0"/>
<feBlend mode="normal" in2="shape" result="effect1_innerShadow_8_1661"/>
<feColorMatrix in="SourceAlpha" type="matrix" values="0 0 0 0 0 0 0 0 0 0 0 0 0 0 0 0 0 0 127 0" result="hardAlpha"/>
<feOffset dy="-10"/>
<feGaussianBlur stdDeviation="5"/>
<feComposite in2="hardAlpha" operator="arithmetic" k2="-1" k3="1"/>
<feColorMatrix type="matrix" values="0 0 0 0 0.534688 0 0 0 0 0.660374 0 0 0 0 0.7375 0 0 0 0.26 0"/>
<feBlend mode="normal" in2="effect1_innerShadow_8_1661" result="effect2_innerShadow_8_1661"/>
</filter>
<filter id="filter5_ii_8_1661" x="43.2035" y="162.611" width="62" height="76" filterUnits="userSpaceOnUse" color-interpolation-filters="sRGB">
<feFlood flood-opacity="0" result="BackgroundImageFix"/>
<feBlend mode="normal" in="SourceGraphic" in2="BackgroundImageFix" result="shape"/>
<feColorMatrix in="SourceAlpha" type="matrix" values="0 0 0 0 0 0 0 0 0 0 0 0 0 0 0 0 0 0 127 0" result="hardAlpha"/>
<feOffset dy="4"/>
<feGaussianBlur stdDeviation="2.5"/>
<feComposite in2="hardAlpha" operator="arithmetic" k2="-1" k3="1"/>
<feColorMatrix type="matrix" values="0 0 0 0 1 0 0 0 0 1 0 0 0 0 1 0 0 0 0.12 0"/>
<feBlend mode="normal" in2="shape" result="effect1_innerShadow_8_1661"/>
<feColorMatrix in="SourceAlpha" type="matrix" values="0 0 0 0 0 0 0 0 0 0 0 0 0 0 0 0 0 0 127 0" result="hardAlpha"/>
<feOffset dy="-10"/>
<feGaussianBlur stdDeviation="5"/>
<feComposite in2="hardAlpha" operator="arithmetic" k2="-1" k3="1"/>
<feColorMatrix type="matrix" values="0 0 0 0 0.534688 0 0 0 0 0.660374 0 0 0 0 0.7375 0 0 0 0.26 0"/>
<feBlend mode="normal" in2="effect1_innerShadow_8_1661" result="effect2_innerShadow_8_1661"/>
</filter>
<filter id="filter6_ii_8_1661" x="129.203" y="162.611" width="62" height="76" filterUnits="userSpaceOnUse" color-interpolation-filters="sRGB">
<feFlood flood-opacity="0" result="BackgroundImageFix"/>
<feBlend mode="normal" in="SourceGraphic" in2="BackgroundImageFix" result="shape"/>
<feColorMatrix in="SourceAlpha" type="matrix" values="0 0 0 0 0 0 0 0 0 0 0 0 0 0 0 0 0 0 127 0" result="hardAlpha"/>
<feOffset dy="4"/>
<feGaussianBlur stdDeviation="2.5"/>
<feComposite in2="hardAlpha" operator="arithmetic" k2="-1" k3="1"/>
<feColorMatrix type="matrix" values="0 0 0 0 1 0 0 0 0 1 0 0 0 0 1 0 0 0 0.12 0"/>
<feBlend mode="normal" in2="shape" result="effect1_innerShadow_8_1661"/>
<feColorMatrix in="SourceAlpha" type="matrix" values="0 0 0 0 0 0 0 0 0 0 0 0 0 0 0 0 0 0 127 0" result="hardAlpha"/>
<feOffset dy="-10"/>
<feGaussianBlur stdDeviation="5"/>
<feComposite in2="hardAlpha" operator="arithmetic" k2="-1" k3="1"/>
<feColorMatrix type="matrix" values="0 0 0 0 0.534688 0 0 0 0 0.660374 0 0 0 0 0.7375 0 0 0 0.26 0"/>
<feBlend mode="normal" in2="effect1_innerShadow_8_1661" result="effect2_innerShadow_8_1661"/>
</filter>
<linearGradient id="paint0_linear_8_1661" x1="74.2035" y1="0.203613" x2="74.2035" y2="62.2036" gradientUnits="userSpaceOnUse">
<stop/>
<stop offset="1" stop-color="#333333" stop-opacity="0"/>
</linearGradient>
<linearGradient id="paint1_linear_8_1661" x1="74.2019" y1="15.7036" x2="74.2019" y2="45.9353" gradientUnits="userSpaceOnUse">
<stop stop-color="white"/>
<stop offset="1" stop-color="#272F32" stop-opacity="0.25"/>
</linearGradient>
<linearGradient id="paint2_linear_8_1661" x1="160.203" y1="0.203613" x2="160.203" y2="62.2036" gradientUnits="userSpaceOnUse">
<stop/>
<stop offset="1" stop-color="#333333" stop-opacity="0"/>
</linearGradient>
<linearGradient id="paint3_linear_8_1661" x1="160.203" y1="15.7036" x2="160.203" y2="46.7036" gradientUnits="userSpaceOnUse">
<stop stop-color="white"/>
<stop offset="1" stop-color="#272F32" stop-opacity="0.25"/>
</linearGradient>
<linearGradient id="paint4_linear_8_1661" x1="31" y1="86.4072" x2="31" y2="148.407" gradientUnits="userSpaceOnUse">
<stop/>
<stop offset="1" stop-color="#333333" stop-opacity="0"/>
</linearGradient>
<linearGradient id="paint5_linear_8_1661" x1="30.9984" y1="98.8071" x2="30.9984" y2="136.007" gradientUnits="userSpaceOnUse">
<stop stop-color="white"/>
<stop offset="1" stop-color="#272F32" stop-opacity="0.25"/>
</linearGradient>
<linearGradient id="paint6_linear_8_1661" x1="31.008" y1="107.864" x2="31.008" y2="126.967" gradientUnits="userSpaceOnUse">
<stop stop-color="white"/>
<stop offset="1" stop-color="#272F32" stop-opacity="0.25"/>
</linearGradient>
<linearGradient id="paint7_linear_8_1661" x1="117" y1="86.4072" x2="117" y2="148.407" gradientUnits="userSpaceOnUse">
<stop/>
<stop offset="1" stop-color="#333333" stop-opacity="0"/>
</linearGradient>
<linearGradient id="paint8_linear_8_1661" x1="117.679" y1="100.357" x2="117.679" y2="134.457" gradientUnits="userSpaceOnUse">
<stop stop-color="white"/>
<stop offset="1" stop-color="#272F32" stop-opacity="0.25"/>
</linearGradient>
<linearGradient id="paint9_linear_8_1661" x1="203.204" y1="86.2036" x2="203.204" y2="148.611" gradientUnits="userSpaceOnUse">
<stop/>
<stop offset="1" stop-color="#333333" stop-opacity="0"/>
</linearGradient>
<linearGradient id="paint10_linear_8_1661" x1="204.134" y1="101.412" x2="204.134" y2="134.755" gradientUnits="userSpaceOnUse">
<stop stop-color="white"/>
<stop offset="1" stop-color="#272F32" stop-opacity="0.25"/>
</linearGradient>
<linearGradient id="paint11_linear_8_1661" x1="202.505" y1="100.057" x2="202.505" y2="133.4" gradientUnits="userSpaceOnUse">
<stop stop-color="white"/>
<stop offset="1" stop-color="#272F32" stop-opacity="0.25"/>
</linearGradient>
<linearGradient id="paint12_linear_8_1661" x1="74.2035" y1="172.611" x2="74.2035" y2="234.611" gradientUnits="userSpaceOnUse">
<stop/>
<stop offset="1" stop-color="#333333" stop-opacity="0"/>
</linearGradient>
<linearGradient id="paint13_linear_8_1661" x1="73.9715" y1="189.661" x2="73.9715" y2="217.561" gradientUnits="userSpaceOnUse">
<stop stop-color="white"/>
<stop offset="1" stop-color="#272F32" stop-opacity="0.25"/>
</linearGradient>
<linearGradient id="paint14_linear_8_1661" x1="160.203" y1="172.611" x2="160.203" y2="234.611" gradientUnits="userSpaceOnUse">
<stop/>
<stop offset="1" stop-color="#333333" stop-opacity="0"/>
</linearGradient>
<linearGradient id="paint15_linear_8_1661" x1="148.404" y1="185.011" x2="148.404" y2="217.28" gradientUnits="userSpaceOnUse">
<stop stop-color="white"/>
<stop offset="1" stop-color="#272F32" stop-opacity="0.25"/>
</linearGradient>
<linearGradient id="paint16_linear_8_1661" x1="168.048" y1="194.299" x2="168.048" y2="217.283" gradientUnits="userSpaceOnUse">
<stop stop-color="white"/>
<stop offset="1" stop-color="#272F32" stop-opacity="0.25"/>
</linearGradient>
</defs>
</svg>
