<svg width="977" height="923" viewBox="0 0 977 923" fill="none" xmlns="http://www.w3.org/2000/svg">
<g filter="url(#filter0_dddd_8_1730)">
<path fill-rule="evenodd" clip-rule="evenodd" d="M1037.35 528.853C1036.91 534.83 1036.29 540.792 1035.48 546.729C1026.04 559.809 1015.72 572.23 1004.59 583.906C1005.12 567.525 1004.12 550.001 1001.62 531.624C1015.02 517.312 1027.06 502.431 1037.64 487.189C1038.45 501.069 1038.35 514.986 1037.35 528.853ZM1004.08 593.856C1014.44 583.413 1024.16 572.352 1033.19 560.734C1025.78 599.557 1010.19 633.477 986.862 659.474C996.534 641.455 1002.24 619.185 1004.08 593.856ZM997.318 553.66C998.287 566.779 998.398 579.251 997.676 590.974C989.278 599.321 980.484 607.259 971.324 614.762C969.418 600.796 966.218 585.474 961.792 569.061C973.66 559.229 985 548.778 995.766 537.751C996.407 543.041 996.925 548.345 997.318 553.66ZM996.836 600.96C988.958 608.482 980.759 615.658 972.26 622.471C974.45 643.184 973.539 660.552 969.279 673.591C984.286 656.218 993.585 631.397 996.836 600.96ZM957.471 578.616C961.186 593.437 963.802 607.159 965.305 619.592C957.261 625.916 948.874 631.973 940.155 637.744C935.321 625.995 929.426 612.734 922.583 598.193C934.32 590.394 945.531 582.184 956.19 573.632C956.631 575.305 957.057 576.969 957.471 578.616ZM966.109 627.304C958.58 633.095 950.765 638.658 942.676 643.973C949.986 662.365 954.381 676.551 955.364 685.463C961.274 679.002 965.207 668.447 966.425 653.224C967.045 645.508 966.934 636.835 966.109 627.304ZM917.863 603.646C924.378 617.573 929.961 630.226 934.531 641.396C927.927 645.606 921.197 649.614 914.349 653.415C906.705 644.075 898.24 633.138 889.099 620.775L887.912 619.17C897.814 613.736 907.522 607.955 917.016 601.838L917.479 602.827L917.863 603.646ZM927.903 653.22C924.823 655.054 921.729 656.838 918.626 658.575C924.13 665.133 929.163 670.77 933.656 675.411C939.503 681.45 944.189 685.538 947.665 687.809C948.151 688.129 948.59 688.396 948.982 688.616C948.975 688.167 948.949 687.654 948.899 687.074C948.559 682.936 947.197 676.868 944.673 668.85C942.733 662.689 940.174 655.578 937.033 647.613C934.025 649.516 930.982 651.386 927.903 653.22ZM882.055 622.328C891.581 635.271 900.432 646.772 908.459 656.62C899.231 661.536 889.91 666.025 880.518 670.084C870.302 662.84 859.484 654.002 848.226 643.674C846.961 642.514 845.704 641.347 844.453 640.173C857.048 634.877 869.605 628.933 882.055 622.328ZM912.734 661.804C904.208 666.383 895.594 670.604 886.915 674.465C894.902 679.732 902.474 683.961 909.554 687.092C923.516 693.275 934.673 694.844 943.17 692.725C935.801 687.615 925.423 676.993 912.734 661.804ZM837.763 642.923C850.086 654.633 862.032 664.747 873.403 673.075C862.443 677.555 851.274 681.505 839.934 684.912C829.281 679.964 818.373 673.921 807.294 666.823C802.891 664 798.475 661.016 794.049 657.877C808.874 653.665 823.464 648.674 837.763 642.923ZM879.735 677.571C869.697 681.798 859.48 685.588 849.115 688.931C877.425 700.573 903.678 704.222 926.102 699.304C912.608 696.837 896.907 689.363 879.735 677.571ZM785.873 660.104C800.84 671.058 815.773 680.282 830.424 687.627C814.857 691.849 799.021 695.004 783.025 697.07C777.418 694.953 771.879 692.663 766.415 690.201C753.746 684.473 741.464 677.928 729.646 670.606C748.086 668.566 766.905 665.07 785.873 660.104ZM839.418 691.914C825.3 696.05 810.943 699.328 796.429 701.729C834.093 713.71 871.343 716.162 905.313 708.038C884.865 707.956 862.559 702.371 839.418 691.914ZM871.999 719.207C842.926 720.385 812.492 715.02 782.179 703.789C765.343 705.882 748.374 706.726 731.412 706.314C777.739 722.905 826.121 727.675 871.999 719.207ZM712.108 698.661C731.073 700.279 750.143 700.249 769.104 698.573C752.2 691.358 735.395 682.339 718.96 671.631C699.408 673.214 680.338 673.14 662.038 671.43C677.91 681.936 694.663 691.047 712.108 698.661ZM648.055 669.784C661.861 679.648 676.379 688.475 691.489 696.193C642.853 688.71 598.043 669.855 561.739 640.553C586.739 655.439 616.054 665.221 648.055 669.784ZM849.852 728.911C753.234 748.841 652.04 723.19 576.589 659.636C615.313 685.333 661.401 700.74 710.471 705.119C755.7 724.646 803.565 733.055 849.852 728.911ZM953.187 695.678C796.926 788.735 594.837 737.558 501.685 581.388L501.611 581.264C501.581 581.213 501.55 581.162 501.52 581.111L501.444 580.983C408.515 424.685 459.795 222.622 616.056 129.565C772.383 36.47 974.583 87.7298 1067.68 244.056C1160.77 400.383 1109.51 602.583 953.187 695.678ZM1031.47 210.382C1005.48 187.055 971.557 171.465 932.734 164.055C944.352 173.082 955.413 182.803 965.856 193.166C991.186 194.999 1013.46 200.71 1031.47 210.382ZM972.959 200.405C1003.4 203.658 1028.22 212.957 1045.59 227.964C1032.55 223.705 1015.19 222.797 994.471 224.983C987.658 216.485 980.48 208.283 972.959 200.405ZM955.907 192.653C944.232 181.524 931.81 171.204 918.729 161.767C912.792 160.956 906.83 160.331 900.853 159.893C886.986 158.893 873.069 158.797 859.19 159.604C874.431 170.183 889.312 182.223 903.624 195.625C922.001 193.124 939.527 192.131 955.907 192.653ZM909.751 201.477C915.138 200.827 920.444 200.309 925.66 199.925C938.779 198.957 951.252 198.845 962.976 199.571C971.322 207.967 979.26 216.761 986.762 225.92C972.797 227.825 957.475 231.026 941.061 235.451C931.23 223.585 920.779 212.245 909.753 201.48L909.751 201.477ZM895.251 196.857C880.203 183.126 864.56 170.927 848.571 160.368C829.482 162.035 809.917 165.308 790.145 170.212C805.469 181.953 820.787 195.473 835.833 210.604C856.275 204.469 876.184 199.88 895.251 196.857ZM841.053 215.931C861.895 209.831 882.13 205.376 901.406 202.589C912.941 213.572 923.853 225.19 934.093 237.388C916.135 242.511 896.963 249.04 876.908 256.888C865.619 242.67 853.653 229.002 841.053 215.931ZM833.941 218.069C846.805 231.241 859.008 245.043 870.505 259.424C852.596 266.642 834.928 274.443 817.529 282.817C806.221 267.165 794.404 251.889 782.095 237.011C799.054 229.845 816.356 223.521 833.941 218.069ZM828.71 212.802C811.405 218.291 794.373 224.608 777.673 231.73C763.778 215.274 750.033 200.403 736.685 187.343C751.807 181.386 766.955 176.38 782.002 172.319C797.623 183.953 813.292 197.509 828.71 212.802ZM771.353 234.459C757.303 217.91 743.429 203.021 730.006 190.036C716.988 195.411 703.997 201.491 691.119 208.286C701.769 222.918 713.197 239.249 725.2 256.998C740.609 248.695 756.035 241.181 771.353 234.459ZM775.776 239.716C759.844 246.657 744.206 254.256 728.902 262.492C739.337 278.019 750.181 294.58 761.3 311.996C778.248 302.543 795.034 293.778 811.505 285.733C800.11 270.001 788.194 254.654 775.776 239.716ZM723.088 265.652C733.535 281.191 744.401 297.776 755.548 315.226C741.124 323.384 726.885 331.864 712.84 340.659C702.808 322.545 693.403 305.09 684.717 288.503C697.246 280.456 710.044 272.834 723.088 265.652ZM719.389 260.167C706.568 267.241 693.984 274.735 681.657 282.637C671.753 263.585 662.841 245.736 655.069 229.413C664.905 223.047 674.976 217.049 685.26 211.434C695.908 226.044 707.356 242.383 719.389 260.167ZM676.102 286.237C666.215 267.228 657.304 249.398 649.511 233.068C637.4 241.151 625.864 249.673 614.938 258.561C619.96 276.549 626.441 295.841 634.298 316.078C647.825 305.573 661.771 295.618 676.102 286.237ZM679.168 292.107C664.637 301.638 650.507 311.768 636.816 322.47C644.032 340.505 651.848 358.294 660.251 375.808C675.171 365.159 690.876 354.579 707.259 344.178C697.247 326.103 687.852 308.68 679.168 292.107ZM631.424 326.739C638.642 344.648 646.443 362.316 654.817 379.715C639.166 391.023 623.889 402.84 609.012 415.148C601.845 398.189 595.523 380.884 590.071 363.299C603.242 350.436 617.044 338.234 631.424 326.739ZM628.888 320.335C614.241 331.991 600.558 343.989 587.931 356.191C581.831 335.348 577.376 315.114 574.59 295.837C585.572 284.303 597.19 273.39 609.389 263.151C614.511 281.108 621.04 300.281 628.888 320.335ZM582.604 361.41C576.47 340.968 571.878 321.057 568.857 301.993C555.127 317.041 542.927 332.684 532.369 348.673C534.035 367.761 537.308 387.327 542.212 407.099C553.953 391.774 567.473 376.457 582.604 361.41ZM537.142 413.871C532.281 395.408 528.771 376.614 526.639 357.641C519.318 369.46 512.774 381.743 507.048 394.411C504.586 399.876 502.294 405.416 500.177 411.023C502.242 427.019 505.396 442.855 509.619 458.422C516.962 443.773 526.189 428.838 537.142 413.871ZM512.331 467.934C517.279 457.28 523.322 446.373 530.421 435.294C533.243 430.891 536.228 426.475 539.366 422.049C543.578 436.874 548.57 451.467 554.323 465.765C542.61 478.085 532.498 490.035 524.164 501.402C519.686 490.442 515.738 479.273 512.331 467.934ZM505.329 467.418C501.145 453.116 497.879 438.753 495.514 424.428C483.534 462.092 481.082 499.343 489.206 533.313C489.288 512.865 494.875 490.562 505.334 467.419L505.329 467.418ZM497.94 554.102C493.021 531.677 496.673 505.423 508.312 477.114C511.62 487.376 515.404 497.593 519.672 507.735C507.879 524.904 500.409 540.606 497.94 554.102ZM537.77 614.861C563.766 638.188 597.687 653.778 636.509 661.188C624.892 652.162 613.831 642.44 603.387 632.078C578.058 630.244 555.788 624.534 537.77 614.861ZM596.28 624.838C565.846 621.585 541.028 612.285 523.652 597.279C536.692 601.539 554.06 602.45 574.773 600.26C581.586 608.758 588.76 616.959 596.28 624.838ZM613.338 632.594C625.013 643.722 637.434 654.04 650.514 663.477C656.452 664.287 662.414 664.912 668.39 665.351C682.256 666.352 696.173 666.449 710.051 665.641C694.386 654.728 679.536 642.689 665.62 629.619C647.246 632.118 629.719 633.115 613.338 632.594ZM659.491 623.763C654.202 624.407 648.898 624.925 643.584 625.318C630.463 626.284 617.992 626.398 606.27 625.676C597.923 617.277 589.985 608.483 582.482 599.324C596.447 597.418 611.769 594.218 628.186 589.79C638.015 601.658 648.465 612.998 659.491 623.763ZM673.993 628.386C689.041 642.117 704.684 654.316 720.673 664.875C739.761 663.209 759.327 659.935 779.099 655.032C763.775 643.291 748.457 629.771 733.409 614.637C712.969 620.774 693.057 625.366 673.993 628.386ZM728.191 609.312C707.349 615.413 687.114 619.867 667.837 622.654C656.303 611.671 645.39 600.054 635.151 587.855C653.109 582.732 672.281 576.204 692.335 568.356C703.991 583.002 715.989 596.686 728.191 609.312ZM735.302 607.171C722.438 594 710.235 580.199 698.739 565.819C716.648 558.603 734.317 550.801 751.715 542.427C763.023 558.078 774.841 573.354 787.149 588.232C770.189 595.399 752.887 601.718 735.302 607.171ZM740.534 612.441C757.839 606.952 774.871 600.635 791.57 593.513C805.464 609.967 819.211 624.841 832.559 637.9C817.745 643.747 802.615 648.763 787.242 652.924C771.621 641.291 755.952 627.734 740.534 612.441ZM797.89 590.785C811.94 607.333 825.815 622.223 839.238 635.207C852.258 629.835 865.246 623.753 878.123 616.955C866.486 600.914 855.124 584.676 844.043 568.246C828.968 576.376 813.571 583.895 797.89 590.785ZM793.467 585.527C809.401 578.587 825.039 570.99 840.343 562.754C829.352 546.377 818.552 529.874 807.943 513.248C791.45 522.455 774.709 531.213 757.739 539.51C769.134 555.242 781.049 570.591 793.467 585.527ZM846.156 559.591C835.144 543.193 824.323 526.668 813.696 510.017C828.121 501.861 842.36 493.381 856.404 484.584C865.98 501.86 875.355 519.247 884.527 536.741C871.998 544.789 859.201 552.411 846.156 559.591ZM849.855 565.076C862.674 557.999 875.258 550.505 887.587 542.606C896.757 560.193 905.621 577.937 914.175 595.83C904.339 602.197 894.268 608.194 883.984 613.809C872.327 597.763 860.949 581.517 849.855 565.076ZM893.142 539.007C902.309 556.576 911.173 574.302 919.732 592.176C931.844 584.092 943.379 575.57 954.306 566.682C949.284 548.695 942.803 529.402 934.946 509.165C921.418 519.67 907.472 529.625 893.142 539.007ZM890.076 533.137C904.945 523.374 919.084 513.216 932.431 502.772C925.214 484.737 917.397 466.949 908.993 449.436C894.073 460.085 878.369 470.667 861.985 481.065C871.552 498.312 880.916 515.67 890.076 533.137ZM937.819 498.505C930.603 480.595 922.801 462.927 914.427 445.529C930.078 434.221 945.355 422.403 960.232 410.095C967.398 427.054 973.719 444.357 979.172 461.942C966 474.805 952.199 487.008 937.819 498.505ZM940.356 504.908C954.574 493.618 968.242 481.653 981.313 469.053C987.413 489.895 991.867 510.13 994.654 529.406C983.672 540.941 972.054 551.853 959.855 562.093C954.732 544.135 948.204 524.963 940.356 504.908ZM986.637 463.835C992.774 484.275 997.364 504.184 1000.39 523.251C1014.12 508.203 1026.32 492.56 1036.88 476.571C1035.21 457.482 1031.94 437.917 1027.03 418.145C1015.29 433.469 1001.77 448.787 986.637 463.835ZM1032.1 411.37C1037.07 430.338 1040.57 449.158 1042.61 467.598C1049.93 455.78 1056.47 443.498 1062.2 430.829C1064.66 425.365 1066.95 419.826 1069.07 414.219C1067 398.223 1063.85 382.387 1059.63 366.82C1052.28 381.47 1043.06 396.404 1032.1 411.37ZM1056.91 357.309C1051.96 367.96 1045.92 378.87 1038.82 389.947C1036 394.35 1033.02 398.768 1029.88 403.192C1025.66 388.369 1020.67 373.778 1014.92 359.481C1026.63 347.158 1036.75 335.211 1045.08 323.84C1049.56 334.801 1053.51 345.97 1056.91 357.309ZM1060.93 348.129C1057.59 337.763 1053.8 327.547 1049.57 317.509C1061.36 300.34 1068.84 284.636 1071.3 271.142C1076.22 293.566 1072.57 319.819 1060.93 348.129ZM1063.91 357.825C1074.37 334.682 1079.96 312.381 1080.04 291.93C1088.16 325.9 1085.71 363.151 1073.73 400.815C1071.33 386.3 1068.05 371.944 1063.91 357.825ZM1024.92 410.002C1013.29 425.622 999.735 441.291 984.442 456.71C978.952 439.405 972.635 422.373 965.513 405.673C981.967 391.779 996.841 378.033 1009.9 364.684C1015.75 379.499 1020.76 394.628 1024.92 410.002ZM544.319 415.242C555.953 399.621 569.509 383.952 584.802 368.533C590.291 385.839 596.608 402.871 603.731 419.57C587.274 433.466 572.403 447.21 559.343 460.559C553.496 445.744 548.481 430.615 544.319 415.242ZM544.02 594.425C528.797 593.207 518.241 589.274 511.78 583.363C520.693 582.381 534.878 577.986 553.268 570.678C558.583 578.766 564.151 586.578 569.943 594.107C560.408 594.934 551.736 595.045 544.02 594.425ZM577.651 593.305C571.327 585.261 565.271 576.874 559.5 568.155C571.249 563.321 584.512 557.424 599.051 550.583C606.849 562.32 615.057 573.533 623.612 584.19C621.938 584.63 620.275 585.057 618.627 585.471C603.807 589.186 590.085 591.801 577.651 593.305ZM593.598 545.863L595.406 545.016C589.287 535.522 583.506 525.815 578.074 515.912L576.468 517.099C564.105 526.24 553.171 534.703 543.829 542.349C547.631 549.196 551.639 555.926 555.847 562.531C567.018 557.961 579.671 552.378 593.598 545.863ZM630.561 582.306C621.676 571.378 613.151 559.844 605.065 547.734C621.398 539.94 639.228 531.028 658.237 521.142C667.83 535.782 677.813 549.738 688.078 562.946C667.841 570.803 648.549 577.284 630.561 582.306ZM601.413 542.175C617.736 534.402 635.585 525.491 654.637 515.586C646.735 503.259 639.241 490.675 632.167 477.855C614.383 489.888 598.044 501.336 583.434 511.984C589.05 522.267 595.047 532.338 601.413 542.175ZM712.659 484.404C695.384 493.98 677.997 503.355 660.503 512.527C652.456 499.997 644.835 487.2 637.652 474.155C654.05 463.144 670.576 452.323 687.226 441.696C695.385 456.12 703.864 470.359 712.659 484.404ZM716.176 489.986C698.93 499.552 681.572 508.916 664.107 518.076C673.87 532.945 684.027 547.084 694.472 560.431C712.506 553.213 730.295 545.396 747.808 536.993C737.159 522.073 726.576 506.369 716.176 489.986ZM753.827 534.087C742.769 518.614 732.14 502.839 721.951 486.781C738.57 477.524 755.715 467.758 773.226 457.564C783.77 474.871 794.192 491.624 804.396 507.684C787.787 516.948 770.925 525.752 753.83 534.085L753.827 534.087ZM769.807 451.932C752.774 461.851 735.647 471.607 718.427 481.199C709.557 467.046 701.01 452.693 692.792 438.152C709.428 427.581 726.166 417.17 743.001 406.92C751.819 421.994 760.754 436.998 769.807 451.932ZM739.681 401.229C722.875 411.459 706.168 421.848 689.56 432.396C680.041 415.311 671.225 398.402 663.158 381.829C678.146 371.102 693.953 360.435 710.461 349.948C720.038 367.134 729.779 384.228 739.681 401.229ZM657.733 385.739C665.778 402.21 674.546 418.994 683.996 435.943C666.581 447.065 650.019 457.906 634.488 468.34C626.254 453.038 618.657 437.401 611.718 421.47C626.655 409.051 642.002 397.134 657.733 385.739ZM606.459 425.89C613.348 441.571 620.867 456.968 628.998 472.043C611.249 484.047 594.92 495.478 580.289 506.123C573.489 493.243 567.409 480.258 562.036 467.238C575.021 453.815 589.91 439.94 606.459 425.89ZM557.069 472.45C562.453 485.247 568.408 497.795 574.918 510.058C561.972 519.581 550.469 528.433 540.624 536.459C535.705 527.233 531.219 517.91 527.159 508.518C534.404 498.302 543.241 487.483 553.569 476.225C554.717 474.971 555.884 473.712 557.074 472.451L557.069 472.45ZM522.78 514.918C526.642 523.592 530.86 532.207 535.44 540.734C520.25 553.423 509.628 563.801 504.521 571.168C502.4 562.673 503.97 551.519 510.152 537.554C513.283 530.474 517.512 522.902 522.781 514.913L522.78 514.918ZM544.024 555.902C542.19 552.823 540.405 549.729 538.667 546.623C532.111 552.13 526.473 557.163 521.833 561.656C515.794 567.503 511.705 572.189 509.43 575.664C509.115 576.151 508.847 576.59 508.628 576.981C509.076 576.975 509.59 576.949 510.17 576.899C514.308 576.559 520.376 575.196 528.393 572.673C534.554 570.733 541.665 568.174 549.63 565.033C547.725 562.027 545.858 558.982 544.024 555.902ZM1025.22 230.818C1040.45 232.034 1051 235.969 1057.46 241.88C1048.55 242.863 1034.37 247.257 1015.97 254.567C1010.66 246.479 1005.1 238.664 999.304 231.135C1008.84 230.309 1017.51 230.198 1025.22 230.818ZM991.594 231.942C997.916 239.983 1003.97 248.37 1009.74 257.088C997.995 261.923 984.734 267.818 970.193 274.66C962.512 263.096 954.317 251.883 945.632 241.054C947.306 240.613 948.969 240.186 950.617 239.772C965.437 236.058 979.161 233.445 991.594 231.942ZM975.646 279.381L973.838 280.227C979.955 289.722 985.736 299.429 991.17 309.331L992.775 308.145C1005.14 299.003 1016.08 290.538 1025.42 282.894C1021.61 276.047 1017.61 269.316 1013.4 262.712C1002.23 267.283 989.573 272.866 975.646 279.381ZM938.682 242.938C947.57 253.864 956.093 265.4 964.176 277.511C946.302 286.07 928.577 294.935 911.007 304.101C901.625 289.771 891.67 275.825 881.165 262.297C901.402 254.441 920.695 247.959 938.682 242.938ZM967.83 283.069C949.937 291.623 932.193 300.488 914.607 309.657C922.506 321.986 929.999 334.57 937.076 347.388C953.517 336.295 969.764 324.917 985.81 313.259C980.195 302.975 974.197 292.905 967.83 283.069ZM856.586 340.843C873.861 331.265 891.247 321.889 908.741 312.717C916.79 325.245 924.411 338.043 931.592 351.088C916.052 361.534 899.467 372.401 882.018 383.547C873.861 369.123 865.383 354.886 856.586 340.843ZM853.065 335.259C871.141 325.246 888.562 315.849 905.135 307.165C895.604 292.635 885.475 278.506 874.774 264.815C856.739 272.032 838.95 279.848 821.436 288.251C832.085 303.171 842.668 318.874 853.065 335.259ZM815.413 291.155C826.142 306.146 836.809 321.953 847.297 338.464C830.111 348.04 813.016 357.779 796.015 367.681C785.785 350.876 775.395 334.168 764.848 317.56C781.933 308.041 798.842 299.225 815.414 291.158L815.413 291.155ZM799.439 373.314C816.992 363.095 834.17 353.314 850.818 344.048C859.688 358.201 868.235 372.554 876.454 387.095C860.373 397.315 843.592 407.761 826.244 418.326C817.424 403.254 808.488 388.25 799.439 373.314ZM829.564 424.018C846.37 413.787 863.078 403.398 879.686 392.85C888.95 409.46 897.754 426.322 906.087 443.417C891.099 454.145 875.293 464.812 858.784 475.298C849.526 458.676 839.76 441.531 829.564 424.018ZM911.512 439.507C903.467 423.037 894.702 406.251 885.25 389.303C901.878 378.697 918.381 367.896 934.756 356.903C942.991 372.207 950.589 387.846 957.529 403.779C942.592 416.197 927.244 428.113 911.512 439.507ZM962.786 399.356C955.897 383.675 948.378 368.278 940.248 353.203C956.677 342.122 972.916 330.761 988.956 319.123C995.649 331.791 1001.74 344.767 1007.21 358.009C994.225 371.431 979.335 385.306 962.786 399.356ZM1012.18 352.796C1006.88 340.199 1000.93 327.639 994.33 315.191C1007.27 305.666 1018.77 296.815 1028.62 288.788C1033.54 298.015 1038.03 307.336 1042.09 316.728C1034.84 326.944 1026 337.763 1015.68 349.024C1014.53 350.275 1013.36 351.534 1012.18 352.796ZM1046.47 310.331C1042.61 301.653 1038.39 293.039 1033.81 284.512C1049 271.824 1059.62 261.445 1064.73 254.077C1066.85 262.574 1065.28 273.728 1059.09 287.693C1055.96 294.772 1051.73 302.344 1046.47 310.331ZM1047.41 263.59C1042.77 268.083 1037.13 273.116 1030.58 278.623C1027.09 272.389 1023.43 266.25 1019.62 260.213C1027.58 257.073 1034.69 254.513 1040.85 252.574C1048.87 250.05 1054.94 248.687 1059.08 248.347C1059.66 248.297 1060.17 248.271 1060.62 248.265C1060.36 248.713 1060.1 249.152 1059.81 249.581C1057.54 253.058 1053.45 257.743 1047.41 263.59ZM853.201 478.819C839.047 487.689 824.695 496.236 810.153 504.455C799.583 487.818 789.172 471.081 778.922 454.245C793.994 445.425 808.998 436.489 823.934 427.44C833.853 444.473 843.609 461.6 853.201 478.819ZM798.107 435.266C790.513 439.789 782.973 444.236 775.498 448.611C766.425 433.644 757.469 418.606 748.632 403.498C763.599 394.424 778.638 385.469 793.746 376.632C802.815 391.601 811.771 406.64 820.612 421.746C813.204 426.234 805.702 430.744 798.107 435.266ZM767.765 384.316C760.191 388.827 752.701 393.326 745.315 397.805C735.092 380.253 725.314 363.074 716.045 346.427C730.198 337.558 744.551 329.01 759.092 320.792C769.311 336.869 779.759 353.654 790.323 371.001C782.865 375.366 775.34 379.805 767.765 384.316ZM719.392 96.3325C816.01 76.4025 917.201 102.055 992.655 165.607C953.931 139.91 907.842 124.503 858.773 120.124C813.544 100.598 765.682 92.1868 719.392 96.3325ZM1007.5 184.69C971.201 155.389 926.391 136.533 877.755 129.051C892.865 136.769 907.383 145.596 921.189 155.459C953.19 160.022 982.504 169.804 1007.5 184.69ZM697.243 106.033C743.123 97.5685 791.505 102.338 837.831 118.93C820.869 118.517 803.899 119.362 787.062 121.457C756.752 110.223 726.317 104.858 697.243 106.033ZM857.136 126.582C838.17 124.966 819.1 124.995 800.14 126.671C817.044 133.886 833.846 142.906 850.284 153.612C869.836 152.03 888.906 152.103 907.206 153.813C891.334 143.306 874.581 134.195 857.136 126.582ZM663.931 117.206C697.9 109.081 735.151 111.534 772.815 123.514C758.3 125.916 743.944 129.194 729.825 133.329C706.682 122.874 684.381 117.286 663.931 117.206ZM786.219 128.174C770.223 130.239 754.386 133.394 738.82 137.616C753.469 144.959 768.404 154.186 783.37 165.139C801.833 160.278 820.626 156.769 839.598 154.638C827.781 147.316 815.499 140.771 802.831 135.045C797.366 132.583 791.826 130.291 786.219 128.174ZM643.14 125.936C665.564 121.018 691.819 124.67 720.127 136.309C709.762 139.653 699.545 143.443 689.507 147.669C672.338 135.876 656.636 128.406 643.14 125.936ZM729.308 140.328C717.968 143.736 706.799 147.686 695.839 152.165C707.21 160.494 719.157 170.607 731.481 182.321C745.778 176.568 760.369 171.576 775.193 167.363C770.848 164.279 766.43 161.297 761.945 158.42C750.871 151.318 739.959 145.278 729.308 140.328ZM659.69 138.152C666.769 141.282 674.342 145.512 682.33 150.781C673.569 154.679 664.956 158.9 656.508 163.437C643.821 148.25 633.443 137.628 626.074 132.518C634.571 130.399 645.725 131.97 659.69 138.152ZM688.726 155.159C679.333 159.219 670.012 163.707 660.785 168.623C668.812 178.471 677.665 189.975 687.188 202.916C699.636 196.312 712.194 190.363 724.793 185.069C723.532 183.884 722.273 182.716 721.021 181.568C709.76 171.241 698.941 162.404 688.726 155.159ZM635.588 149.833C640.08 154.473 645.113 160.111 650.62 166.667C644.387 170.153 638.249 173.809 632.213 177.628C629.07 169.665 626.511 162.554 624.571 156.393C622.047 148.375 620.685 142.308 620.343 138.167C620.295 137.59 620.269 137.076 620.262 136.628C620.653 136.847 621.093 137.115 621.579 137.435C625.055 139.705 629.741 143.794 635.588 149.833ZM644.713 177.685C641.333 179.698 638 181.751 634.713 183.847C639.283 195.018 644.866 207.671 651.381 221.598L652.228 223.406C661.721 217.286 671.428 211.505 681.331 206.074L680.145 204.468C671.004 192.105 662.54 181.171 654.895 171.828C651.471 173.729 648.077 175.682 644.713 177.685ZM613.88 139.78C614.863 148.693 619.257 162.878 626.566 181.268C618.477 186.583 610.664 192.148 603.137 197.942C602.309 188.408 602.199 179.736 602.818 172.02C604.034 156.798 607.969 146.241 613.88 139.78ZM629.086 187.501C620.366 193.269 611.98 199.329 603.936 205.653C605.439 218.086 608.055 231.808 611.773 246.627C612.184 248.277 612.61 249.94 613.056 251.615C623.71 243.061 634.918 234.853 646.658 227.053C639.815 212.511 633.918 199.248 629.086 187.501ZM599.963 151.649C595.705 164.691 594.797 182.058 596.983 202.773C588.399 209.657 580.205 216.837 572.408 224.283C575.656 193.848 584.953 169.024 599.963 151.649ZM597.918 210.479C588.759 217.982 579.965 225.92 571.566 234.267C570.841 245.991 570.958 258.46 571.921 271.583C572.305 276.799 572.825 282.103 573.476 287.49C584.242 276.461 595.583 266.009 607.453 256.178C603.024 239.766 599.827 224.442 597.914 210.478L597.918 210.479ZM582.38 165.767C572.711 183.784 566.998 206.055 565.169 231.385C554.804 241.828 545.082 252.889 536.054 264.506C543.465 225.686 559.058 191.764 582.385 165.768L582.38 165.767ZM564.651 241.333C553.521 253.008 543.202 265.43 533.765 278.511C532.955 284.449 532.33 290.411 531.891 296.387C530.891 310.253 530.794 324.17 531.601 338.048C542.514 322.383 554.554 307.534 567.623 293.617C565.124 275.243 564.13 257.714 564.651 241.333ZM556.689 189.736C541.803 214.736 532.021 244.051 527.455 276.054C517.592 289.86 508.767 304.378 501.051 319.489C508.533 270.853 527.387 226.04 556.689 189.736ZM525.811 290.035C515.306 305.907 506.195 322.66 498.581 340.105C496.964 359.07 496.994 378.14 498.669 397.101C505.884 380.197 514.903 363.392 525.611 346.957C524.028 327.405 524.102 308.335 525.811 290.035ZM537.608 204.589C511.91 243.312 496.504 289.401 492.124 338.471C472.598 383.7 464.189 431.565 468.333 477.851C448.403 381.233 474.054 280.04 537.608 204.589ZM490.93 359.412C474.338 405.739 469.569 454.12 478.036 499.999C476.858 470.926 482.223 440.492 493.455 410.179C491.36 393.342 490.516 376.374 490.93 359.412ZM1078.31 465.831C1094.91 419.505 1099.68 371.123 1091.21 325.245C1092.38 354.319 1087.02 384.752 1075.79 415.062C1077.88 431.899 1078.73 448.869 1078.31 465.831ZM1100.91 347.392C1105.06 393.681 1096.65 441.544 1077.12 486.773C1072.74 535.842 1057.33 581.931 1031.64 620.655C1095.19 545.2 1120.84 444.01 1100.91 347.392ZM1012.55 635.504C1041.85 599.201 1060.71 554.39 1068.19 505.755C1060.47 520.864 1051.65 535.382 1041.78 549.189C1037.22 581.189 1027.44 610.504 1012.55 635.504ZM1043.43 535.206C1053.94 519.334 1063.05 502.581 1070.66 485.136C1072.28 466.17 1072.25 447.1 1070.57 428.14C1063.36 445.044 1054.34 461.846 1043.63 478.283C1045.21 497.836 1045.14 516.906 1043.43 535.206Z" fill="url(#paint0_linear_8_1730)"/>
</g>
<defs>
<filter id="filter0_dddd_8_1730" x="0.124268" y="0.124512" width="1138.99" height="921.995" filterUnits="userSpaceOnUse" color-interpolation-filters="sRGB">
<feFlood flood-opacity="0" result="BackgroundImageFix"/>
<feColorMatrix in="SourceAlpha" type="matrix" values="0 0 0 0 0 0 0 0 0 0 0 0 0 0 0 0 0 0 127 0" result="hardAlpha"/>
<feOffset dx="-20" dy="3"/>
<feGaussianBlur stdDeviation="22.5"/>
<feColorMatrix type="matrix" values="0 0 0 0 0.831373 0 0 0 0 0.929412 0 0 0 0 0.968627 0 0 0 0.25 0"/>
<feBlend mode="normal" in2="BackgroundImageFix" result="effect1_dropShadow_8_1730"/>
<feColorMatrix in="SourceAlpha" type="matrix" values="0 0 0 0 0 0 0 0 0 0 0 0 0 0 0 0 0 0 127 0" result="hardAlpha"/>
<feOffset dx="-81" dy="12"/>
<feGaussianBlur stdDeviation="41"/>
<feColorMatrix type="matrix" values="0 0 0 0 0.831373 0 0 0 0 0.929412 0 0 0 0 0.968627 0 0 0 0.21 0"/>
<feBlend mode="normal" in2="effect1_dropShadow_8_1730" result="effect2_dropShadow_8_1730"/>
<feColorMatrix in="SourceAlpha" type="matrix" values="0 0 0 0 0 0 0 0 0 0 0 0 0 0 0 0 0 0 127 0" result="hardAlpha"/>
<feOffset dx="-182" dy="28"/>
<feGaussianBlur stdDeviation="55.5"/>
<feColorMatrix type="matrix" values="0 0 0 0 0.831373 0 0 0 0 0.929412 0 0 0 0 0.968627 0 0 0 0.13 0"/>
<feBlend mode="normal" in2="effect2_dropShadow_8_1730" result="effect3_dropShadow_8_1730"/>
<feColorMatrix in="SourceAlpha" type="matrix" values="0 0 0 0 0 0 0 0 0 0 0 0 0 0 0 0 0 0 127 0" result="hardAlpha"/>
<feOffset dx="-324" dy="49"/>
<feGaussianBlur stdDeviation="65.5"/>
<feColorMatrix type="matrix" values="0 0 0 0 0.831373 0 0 0 0 0.929412 0 0 0 0 0.968627 0 0 0 0.04 0"/>
<feBlend mode="normal" in2="effect3_dropShadow_8_1730" result="effect4_dropShadow_8_1730"/>
<feBlend mode="normal" in="SourceGraphic" in2="effect4_dropShadow_8_1730" result="shape"/>
</filter>
<linearGradient id="paint0_linear_8_1730" x1="487.931" y1="152.856" x2="938.716" y2="836.071" gradientUnits="userSpaceOnUse">
<stop stop-color="#38B6FF"/>
<stop offset="1" stop-color="#D4EDF7"/>
</linearGradient>
</defs>
</svg>
