<?xml version="1.0" encoding="UTF-8" standalone="no"?>
<svg
   xml:space="preserve"
   id="Capa_1"
   x="0"
   y="0"
   version="1.1"
   viewBox="0 0 244.14183 56"
   sodipodi:docname="amatista.svg"
   width="244.14183"
   height="56"
   inkscape:version="1.4.2 (ebf0e940d0, 2025-05-08)"
   xmlns:inkscape="http://www.inkscape.org/namespaces/inkscape"
   xmlns:sodipodi="http://sodipodi.sourceforge.net/DTD/sodipodi-0.dtd"
   xmlns="http://www.w3.org/2000/svg"
   xmlns:svg="http://www.w3.org/2000/svg"><defs
     id="defs1" /><sodipodi:namedview
     id="namedview1"
     pagecolor="#797979"
     bordercolor="#000000"
     borderopacity="0.25"
     inkscape:showpageshadow="2"
     inkscape:pageopacity="0.0"
     inkscape:pagecheckerboard="0"
     inkscape:deskcolor="#d1d1d1"
     inkscape:zoom="2.0202151"
     inkscape:cx="137.8566"
     inkscape:cy="51.974663"
     inkscape:window-width="1920"
     inkscape:window-height="1037"
     inkscape:window-x="1366"
     inkscape:window-y="0"
     inkscape:window-maximized="1"
     inkscape:current-layer="Capa_1" /><style
     id="style1"
     type="text/css">.st37{fill:#a46f9b}.st38{fill:#a56f9b}</style><g
     id="g616"
     transform="matrix(0.19770866,0,0,0.19770866,-77.966699,-112.22526)"><g
       id="g588"
       style="fill:#ffffff;fill-opacity:1"
       transform="translate(49.608,-53.528)"><g
         id="g587"
         style="fill:#ffffff;fill-opacity:1"><g
           id="g572"
           style="fill:#ffffff;fill-opacity:1"><path
             id="path571"
             d="m 598.3,856.3 -3,9.3 h 4.3 v 2.5 h -12.5 v -2.5 h 5.3 l 56,-177.3 -0.3,-0.3 h -5.8 v -2.5 h 23.5 v 2.5 h -4.3 l 56,177.5 h 5.8 v 2.5 h -23.5 v -2.5 h 4.3 l -25,-79.5 c -40,4.5 -69.8,38 -80.8,70.3 z M 649.8,693 604,837.5 c 14.5,-26 40.8,-50 74.3,-54 z"
             class="st37"
             style="fill:#ffffff;fill-opacity:1" /><path
             id="path572"
             d="M 724.9,869.6 H 698.3 V 864 h 3.7 l -24,-76.3 c -39.5,5.1 -67.7,38.2 -78.2,69.1 l -2.3,7.2 h 3.7 v 5.6 H 585.6 V 864 h 5.7 l 55.1,-174.4 h -5.5 V 684 h 26.6 v 5.6 h -3.7 l 55,174.4 h 6.2 v 5.6 z M 706,866.5 h 10.2 L 716,866 659.5,687 h -10.3 l 0.8,0.8 -0.1,0.4 30.4,96.6 z m -107.2,-16.3 -0.5,1.7 c 0.3,-0.9 0.7,-1.7 1,-2.6 z m 51,-152 -40.6,128.1 c 16.9,-24.3 41.2,-40.4 67,-44.1 z"
             class="st38"
             style="fill:#ffffff;fill-opacity:1" /></g><g
           id="g574"
           style="fill:#ffffff;fill-opacity:1"><path
             id="path573"
             d="m 760.9,782.3 c 8,-26.8 29.3,-42 48.3,-42 17.8,0 33.5,13.3 35.3,42.5 7.8,-27 29.3,-42.5 48.5,-42.5 18.8,0 35.5,14.8 35.5,48 v 77.3 h 5 v 2.5 H 911 v -2.5 h 5 v -77.3 c 0,-32 -12.8,-45.5 -27.3,-45.5 -20,0 -44,25.5 -44,62.5 v 60.3 h 5 v 2.5 h -22.5 v -2.5 h 5 v -77.3 c 0,-32 -12.8,-45.5 -27.3,-45.5 -20,0 -44,25.5 -44,62.5 V 868 h -17.5 v -2.5 h 5 v -120 h -5 V 743 l 17.5,-3 z"
             class="st37"
             style="fill:#ffffff;fill-opacity:1" /><path
             id="path574"
             d="M 935,869.6 H 909.4 V 864 h 5 v -75.7 c 0,-32.4 -13.3,-44 -25.7,-44 -20,0 -42.5,26.1 -42.5,61 V 864 h 5 v 5.6 H 825.6 V 864 h 5 v -75.7 c 0,-32.4 -13.3,-44 -25.7,-44 -20,0 -42.5,26.1 -42.5,61 v 64.3 H 741.8 V 864 h 5 V 747.1 h -5 v -5.4 l 20.6,-3.5 v 35.3 c 10.4,-23.8 30.7,-34.8 46.7,-34.8 15.2,0 32,9.8 36.1,36.8 10,-25.2 31.1,-36.8 47.7,-36.8 10.3,0 19.5,4.3 26,12.1 7.3,8.7 11.1,21.7 11.1,37.5 V 864 h 5 z m -17.5,-3.1 h 9.4 v -78.2 c 0,-33.5 -16.7,-45.9 -32.8,-46.4 12.1,2.9 23.4,16.2 23.4,46.4 z m -83.8,0 h 9.4 v -61.2 c 0,-11.5 2.3,-22.5 6.6,-32.2 -1.5,3.2 -2.8,6.5 -3.8,10.2 l -2.5,8.7 -0.5,-9.1 c -1.8,-29.5 -17.8,-40.5 -32.6,-41 12.1,2.9 23.4,16.2 23.4,46.4 z m -83.8,0 h 9.4 v -61.2 c 0,-9.5 1.6,-18.7 4.6,-27.1 -0.5,1.5 -1.1,3 -1.5,4.6 l -3.1,10.2 v -51.1 l -12.2,2.1 h 2.8 z"
             class="st38"
             style="fill:#ffffff;fill-opacity:1" /></g><g
           id="g576"
           style="fill:#ffffff;fill-opacity:1"><path
             id="path575"
             d="m 998.9,870.5 c -25.3,0 -40.8,-16.3 -40.8,-32.5 0,-40.3 85.8,-22.3 85.8,-65 0,-15 -13,-30 -33,-30 -16.5,0 -29.8,10.3 -36.3,25 h -11.5 c 8.5,-16 25.8,-27.5 48.8,-27.5 27.3,0 44.3,16.3 44.3,32.5 v 92 l 5,0.5 v 2.5 h -17.5 v -22 c -9.5,16.8 -27.3,24.5 -44.8,24.5 z m 44.8,-76.5 c -23.8,14.8 -72.8,12.3 -72.8,44 0,15 11.3,30 30.3,30 18.8,0 40,-14.5 42.5,-44 z"
             class="st37"
             style="fill:#ffffff;fill-opacity:1" /><path
             id="path576"
             d="m 998.9,872.1 c -26.5,0 -42.3,-17.3 -42.3,-34.1 0,-21 21.9,-27 43.1,-32.8 22,-6 42.7,-11.7 42.7,-32.2 0,-13.7 -12,-28.4 -31.5,-28.4 -15.2,0 -28.2,9 -34.8,24.1 l -0.4,0.9 h -15.1 l 1.2,-2.3 c 9.4,-17.7 28.2,-28.3 50.1,-28.3 28.7,0 45.8,17.3 45.8,34.1 v 90.6 l 5,0.5 v 5.5 h -20.6 v -18.3 c -9.5,13 -25.3,20.7 -43.2,20.7 z m -8.7,-61 c -16.7,5 -30.5,11.4 -30.5,26.9 0,14 12.4,28.5 33.5,30.7 -15.1,-3.6 -23.9,-17.3 -23.9,-30.7 0,-14 8.9,-21.6 20.9,-26.9 z m 55,55.4 h 9.7 -0.3 V 773 c 0,-13.5 -12.6,-27.4 -34.1,-30.4 15.6,4 24.9,17.6 24.9,30.4 0,14.1 -8.6,21.9 -20.4,27.2 6.6,-2.1 12.8,-4.4 17.8,-7.5 l 2.4,-1.5 v 32.9 c -1.7,20 -11.9,33.6 -24.5,40.4 9.1,-4 16.7,-10.6 21.6,-19.3 l 2.9,-5.1 z m -3.1,-69.8 c -7.9,4.3 -18,7.1 -27.7,9.8 -21.5,6 -41.9,11.6 -41.9,31.5 0,13.8 10.1,28.4 28.7,28.4 18.5,0 38.6,-14.6 41,-42.5 v -27.2 z m -76.3,-30.2 h 7.8 c 5.2,-11.1 13.6,-19 23.8,-22.7 -13.4,3.3 -24.7,11.2 -31.6,22.7 z"
             class="st38"
             style="fill:#ffffff;fill-opacity:1" /></g><g
           id="g578"
           style="fill:#ffffff;fill-opacity:1"><path
             id="path577"
             d="m 1094.7,745.5 h -9.5 V 743 h 9.5 v -45.5 h -5 V 695 l 17.5,-2.5 V 743 h 56.5 v 27.5 h -3.5 c 0,-15.3 -8.8,-25 -22.5,-25 h -30.5 v 77 c 0,28.5 14.5,43.5 29.8,43.5 10.8,0 22,-7.8 28.5,-23.8 h 11.5 c -8.5,17.3 -25,25.8 -41,25.8 -21,0 -41.3,-15 -41.3,-45.5 z"
             class="st37"
             style="fill:#ffffff;fill-opacity:1" /><path
             id="path578"
             d="m 1135.9,869.6 c -20.6,0 -42.8,-14.7 -42.8,-47.1 V 747 h -9.5 v -5.6 h 9.5 V 699 h -5 v -5.4 l 20.6,-2.9 v 50.8 h 56.5 v 30.6 h -6.6 v -1.6 c 0,-14.5 -8,-23.4 -20.9,-23.4 h -29 v 75.5 c 0,28.8 14.6,42 28.2,42 11.2,0 21.3,-8.5 27.1,-22.8 l 0.4,-1 h 15.1 l -1.1,2.2 c -8.1,16.4 -24.4,26.6 -42.5,26.6 z M 1096.2,744 v 78.6 c 0,25.8 14.4,39.5 30.8,43 -11.5,-4.9 -21.4,-18.8 -21.4,-43 V 694.3 l -11.5,1.6 h 2.1 V 744 Z m 70.3,99.8 c -4.1,9.7 -10.2,16.8 -17.3,20.6 10.5,-3.3 19.5,-10.6 25.2,-20.6 z m -4.8,-74.8 h 0.4 v -24.4 h -18.6 c 10.9,2.3 17.7,11.3 18.2,24.4 z"
             class="st38"
             style="fill:#ffffff;fill-opacity:1" /></g><g
           id="g580"
           style="fill:#ffffff;fill-opacity:1"><path
             id="path579"
             d="m 1216.2,865 5,0.5 v 2.5 h -23 v -2.5 h 5 V 746.8 h -5 v -2.5 l 18,-3 z M 1209,692.7 c 5,0 9,3.8 9,8.8 0,5 -4,9 -9,9 -5,0 -8.8,-4 -8.8,-9 0,-5 3.8,-8.8 8.8,-8.8 z"
             class="st37"
             style="fill:#ffffff;fill-opacity:1" /><path
             id="path580"
             d="m 1222.8,869.6 h -26.1 V 864 h 5 V 748.3 h -5 v -5.4 l 21.1,-3.5 v 124.2 l 5,0.5 z m -18,-3.1 h 10.2 -0.3 V 743.1 l -12.6,2.1 h 2.7 z m 4.2,-154.4 c -5.8,0 -10.3,-4.6 -10.3,-10.6 0,-5.9 4.4,-10.3 10.3,-10.3 5.9,0 10.6,4.5 10.6,10.3 -0.1,5.8 -4.8,10.6 -10.6,10.6 z m 0,-17.8 c -4.2,0 -7.2,3 -7.2,7.2 0,4.2 3.1,7.4 7.2,7.4 4.2,0 7.4,-3.3 7.4,-7.4 0,-4.1 -3.2,-7.2 -7.4,-7.2 z"
             class="st38"
             style="fill:#ffffff;fill-opacity:1" /></g><g
           id="g582"
           style="fill:#ffffff;fill-opacity:1"><path
             id="path581"
             d="m 1295.2,740.5 c 22,0 37.5,11.5 46.5,27.5 h -11.5 c -7,-14.8 -18.8,-25 -35,-25 -21.3,0 -31.8,15 -31.8,30 0,42.8 80.8,24.8 80.8,65 0,16.3 -15.5,32.5 -47,32.5 -24.3,0 -41.5,-11.5 -51.5,-27.5 h 11.5 c 8,14.8 21.3,25 40,25 23,0 34.3,-15 34.3,-30 0,-41.8 -80.8,-24.3 -80.8,-65 0,-16.2 14.8,-32.5 44.5,-32.5 z"
             class="st37"
             style="fill:#ffffff;fill-opacity:1" /><path
             id="path582"
             d="m 1297.2,872.1 c -22.7,0 -41.5,-10 -52.8,-28.2 l -1.5,-2.4 h 15.2 l 0.4,0.8 c 6,11 17.5,24.2 38.6,24.2 22.5,0 32.7,-14.7 32.7,-28.4 0,-19.8 -19.3,-25.5 -39.6,-31.5 -20.2,-5.9 -41.1,-12.1 -41.1,-33.5 0,-16.4 14.4,-34.1 46.1,-34.1 20.6,0 37.6,10.1 47.9,28.3 l 1.3,2.3 h -15.2 l -0.4,-0.9 c -7.4,-15.6 -19.3,-24.1 -33.6,-24.1 -20.7,0 -30.2,14.7 -30.2,28.4 0,20.5 19.5,26.2 40.2,32.2 20,5.8 40.6,11.8 40.6,32.8 0,16.4 -15.2,34.1 -48.6,34.1 z m 13.9,-61.9 c 12.4,5.3 21.9,13 21.9,27.8 0,12.5 -7.5,25.7 -23.8,30.1 22.9,-3.5 33.4,-17.2 33.4,-30.1 0.1,-16.5 -14.5,-22.6 -31.5,-27.8 z m -62.5,34.4 c 8.3,11.9 20.1,19.8 34.3,22.9 -13.4,-4.2 -21.7,-14.1 -26.6,-22.9 z m 35.7,-101.7 c -21.9,3.4 -32,17.2 -32,30.1 0,16.6 14.4,23 31.3,28.3 -12.3,-5.3 -21.7,-13.2 -21.7,-28.3 0,-12.5 7.1,-25.8 22.4,-30.1 z m 46.9,23.6 h 7.8 c -7.7,-12.4 -19,-20.4 -32.4,-23.2 10.2,3.2 18.7,11.2 24.6,23.2 z"
             class="st38"
             style="fill:#ffffff;fill-opacity:1" /></g><g
           id="g584"
           style="fill:#ffffff;fill-opacity:1"><path
             id="path583"
             d="M 1375.5,745.5 H 1366 V 743 h 9.5 v -45.5 h -5 V 695 l 17.5,-2.5 V 743 h 56.5 v 27.5 h -3.5 c 0,-15.3 -8.8,-25 -22.5,-25 H 1388 v 77 c 0,28.5 14.5,43.5 29.8,43.5 10.8,0 22,-7.8 28.5,-23.8 h 11.5 c -8.5,17.3 -25,25.8 -41,25.8 -21,0 -41.3,-15 -41.3,-45.5 z"
             class="st37"
             style="fill:#ffffff;fill-opacity:1" /><path
             id="path584"
             d="m 1416.8,869.6 c -20.6,0 -42.8,-14.7 -42.8,-47.1 V 747 h -9.5 v -5.6 h 9.5 V 699 h -5 v -5.4 l 20.6,-2.9 v 50.8 h 56.5 v 30.6 h -6.6 v -1.6 c 0,-14.5 -8,-23.4 -20.9,-23.4 h -29 v 75.5 c 0,28.8 14.6,42 28.2,42 11.2,0 21.3,-8.5 27.1,-22.8 l 0.4,-1 h 15.1 l -1.1,2.2 c -8.2,16.4 -24.5,26.6 -42.5,26.6 z M 1377,744 v 78.6 c 0,25.8 14.4,39.5 30.8,43 -11.5,-4.9 -21.4,-18.8 -21.4,-43 V 694.3 l -11.5,1.6 h 2.1 V 744 Z m 70.3,99.8 c -4.1,9.7 -10.2,16.8 -17.3,20.6 10.5,-3.3 19.5,-10.6 25.2,-20.6 z m -4.8,-74.8 h 0.4 v -24.4 h -18.6 c 10.9,2.3 17.7,11.3 18.2,24.4 z"
             class="st38"
             style="fill:#ffffff;fill-opacity:1" /></g><g
           id="g586"
           style="fill:#ffffff;fill-opacity:1"><path
             id="path585"
             d="m 1515.8,870.5 c -25.3,0 -40.8,-16.3 -40.8,-32.5 0,-40.3 85.8,-22.3 85.8,-65 0,-15 -13,-30 -33,-30 -16.5,0 -29.8,10.3 -36.3,25 H 1480 c 8.5,-16 25.8,-27.5 48.8,-27.5 27.3,0 44.3,16.3 44.3,32.5 v 92 l 5,0.5 v 2.5 h -17.5 v -22 c -9.6,16.8 -27.3,24.5 -44.8,24.5 z m 44.7,-76.5 c -23.8,14.8 -72.8,12.3 -72.8,44 0,15 11.3,30 30.3,30 18.8,0 40,-14.5 42.5,-44 z"
             class="st37"
             style="fill:#ffffff;fill-opacity:1" /><path
             id="path586"
             d="m 1515.8,872.1 c -26.5,0 -42.3,-17.3 -42.3,-34.1 0,-21 21.9,-27 43.1,-32.8 22,-6 42.7,-11.7 42.7,-32.2 0,-13.7 -12,-28.4 -31.5,-28.4 -15.2,0 -28.2,9 -34.8,24.1 l -0.4,0.9 h -15.1 l 1.2,-2.3 c 9.4,-17.7 28.2,-28.3 50.1,-28.3 28.7,0 45.8,17.3 45.8,34.1 v 90.6 l 5,0.5 v 5.5 H 1559 v -18.3 c -9.5,13 -25.3,20.7 -43.2,20.7 z m -8.7,-61 c -16.7,5 -30.5,11.4 -30.5,26.9 0,14 12.4,28.5 33.5,30.7 -15.1,-3.6 -23.9,-17.3 -23.9,-30.7 0,-14 8.9,-21.6 20.9,-26.9 z m 55,55.4 h 9.7 -0.3 V 773 c 0,-13.5 -12.6,-27.4 -34.1,-30.4 15.6,4 24.9,17.6 24.9,30.4 0,14.1 -8.6,21.9 -20.4,27.2 6.6,-2.1 12.8,-4.4 17.8,-7.5 l 2.4,-1.5 v 32.9 c -1.7,20 -11.9,33.6 -24.5,40.4 9.1,-4 16.7,-10.6 21.6,-19.3 l 2.9,-5.1 z m -3.1,-69.8 c -7.9,4.3 -18,7.1 -27.7,9.8 -21.5,6 -41.9,11.6 -41.9,31.5 0,13.8 10.1,28.4 28.7,28.4 18.5,0 38.6,-14.6 41,-42.5 v -27.2 z m -76.3,-30.2 h 7.8 c 5.2,-11.1 13.6,-19 23.8,-22.7 -13.5,3.3 -24.7,11.2 -31.6,22.7 z"
             class="st38"
             style="fill:#ffffff;fill-opacity:1" /></g></g></g><g
       id="g615"
       style="fill:#ffffff;fill-opacity:1"
       transform="matrix(0.7475,0,0,0.7475,147.535,200.998)"><path
         id="path588"
         d="m 473.5,538.6 c 70,1.2 127.2,53.1 137.5,120 1.5,-7.8 2.4,-15.8 2.5,-24 1.4,-78.2 -60.9,-142.8 -139.2,-144.1 -78.2,-1.4 -142.8,60.9 -144.1,139.2 -0.1,8.2 0.5,16.2 1.7,24.1 12.6,-66.6 71.6,-116.4 141.6,-115.2 z"
         style="fill:#ffffff;fill-opacity:1" /><g
         id="g614"
         style="fill:#ffffff;fill-opacity:1"><path
           id="path614"
           d="m 532.8,703.6 31.4,-81.7 C 495.5,610 493.4,577.6 493.4,577.6 h -41.2 c -10,35.8 -70.5,43.9 -70.5,43.9 l 31.4,82.2 c 6.4,16.6 4.1,35.2 -5.7,50.1 -30.7,46.7 -28.8,94.3 -27,110.1 0.3,3.1 3,5.5 6.1,5.5 H 553 c 24.2,-24.5 3.8,-83.7 -15.5,-114.9 -9.5,-15.3 -11.2,-34.1 -4.7,-50.9 z M 429,665.4 c 0.7,-8.3 4.1,-15.5 9.9,-21.5 0.3,-0.3 0.6,-0.5 1,-0.8 2.1,-1.7 4.1,-3.7 6.4,-5 13.6,-7.5 27,-7.1 39.9,1.6 9.1,6.2 14,15 15.4,25.8 0.5,3.8 0.4,7.7 -0.6,11.5 -1.1,4.4 0,8.2 2.1,12 1.8,3.2 4.5,5.5 7.6,7.4 0.1,0.1 0.2,0 0.7,0 -3.6,-2.6 -6.1,-5.7 -7.1,-9.8 4.5,-1.1 9.6,0.5 12,5.6 1.3,2.7 2.8,5.2 4.3,8.1 -1.6,0 -3.3,0.1 -5.1,0 -6.1,-0.4 -11,-2.8 -13.6,-8.6 -1,-2.1 -1.8,-4.2 -2.6,-6.3 -0.1,-0.3 -0.3,-0.5 -0.6,-1.1 -0.5,1.4 -1.1,2.4 -1.3,3.6 -1.4,6 -4.1,11.2 -8.7,15.3 -4.3,3.8 -9.4,5.9 -15,6.9 -4.3,0.8 -8.7,0.8 -13.4,0.5 4.5,-5 6.5,-11 9.1,-16.7 3.1,-6.7 8.5,-10.1 15.8,-10.6 1.9,-0.1 3.8,-0.2 6,-0.3 -2.1,8.3 -6.2,15 -13,19.9 3.8,-1.9 7.1,-4.5 9.9,-7.6 6.4,-7.3 9.5,-15.7 8.8,-25.4 -1.4,-18.6 -16.9,-31.5 -34.2,-30.6 -20.1,1 -34.9,19.2 -31.7,40.7 -1.9,-5 -2.4,-9.8 -2,-14.6 z m 98.7,134.3 c -0.8,9.7 -4.8,18 -11.6,25 -0.3,0.3 -0.7,0.6 -1.1,0.9 -2.5,2 -4.7,4.3 -7.5,5.8 -15.8,8.7 -31.4,8.3 -46.4,-1.9 -10.6,-7.2 -16.4,-17.5 -18,-30.1 -0.6,-4.5 -0.4,-9 0.7,-13.4 1.3,-5.1 0,-9.6 -2.4,-14 -2.1,-3.7 -5.2,-6.5 -8.8,-8.6 -0.1,-0.1 -0.3,0 -0.8,0 4.2,3.1 7.1,6.6 8.3,11.4 -5.3,1.3 -11.1,-0.6 -14,-6.5 -1.5,-3.1 -3.2,-6.1 -5.1,-9.4 1.9,0 3.9,-0.1 5.9,0 7.1,0.4 12.8,3.3 15.9,10 1.1,2.4 2,4.9 3.1,7.4 0.1,0.3 0.3,0.6 0.7,1.3 0.6,-1.6 1.2,-2.8 1.6,-4.1 1.6,-6.9 4.8,-13 10.1,-17.8 5,-4.4 11,-6.9 17.5,-8 5.1,-0.9 10.2,-0.9 15.6,-0.5 -5.2,5.8 -7.6,12.8 -10.6,19.4 -3.6,7.8 -9.9,11.7 -18.4,12.3 -2.2,0.2 -4.4,0.2 -7,0.3 2.5,-9.7 7.2,-17.4 15.1,-23.2 -4.5,2.2 -8.3,5.2 -11.5,8.9 -7.4,8.5 -11.1,18.3 -10.2,29.6 1.7,21.6 19.7,36.6 39.8,35.6 23.4,-1.2 40.6,-22.3 36.9,-47.4 2.1,5.9 2.7,11.4 2.2,17 z"
           class="st37"
           style="fill:#ffffff;fill-opacity:1" /></g></g></g></svg>
