<?xml version="1.0" encoding="UTF-8" standalone="no"?>
<!-- Created with Inkscape (http://www.inkscape.org/) -->

<svg
   version="1.1"
   id="svg1"
   width="126.44289"
   height="56"
   viewBox="0 0 126.44288 55.999994"
   sodipodi:docname="gofit.svg"
   inkscape:version="1.4.2 (ebf0e940d0, 2025-05-08)"
   xmlns:inkscape="http://www.inkscape.org/namespaces/inkscape"
   xmlns:sodipodi="http://sodipodi.sourceforge.net/DTD/sodipodi-0.dtd"
   xmlns="http://www.w3.org/2000/svg"
   xmlns:svg="http://www.w3.org/2000/svg">
  <sodipodi:namedview
     id="namedview1"
     pagecolor="#787878"
     bordercolor="#000000"
     borderopacity="0.25"
     inkscape:showpageshadow="2"
     inkscape:pageopacity="0.0"
     inkscape:pagecheckerboard="0"
     inkscape:deskcolor="#d1d1d1"
     inkscape:zoom="2.027407"
     inkscape:cx="87.303635"
     inkscape:cy="93.715766"
     inkscape:window-width="1920"
     inkscape:window-height="1037"
     inkscape:window-x="1366"
     inkscape:window-y="0"
     inkscape:window-maximized="1"
     inkscape:current-layer="svg1" />
  <defs
     id="defs1" />
  <g
     id="g1"
     transform="matrix(0.29064761,0,0,0.29064761,-45.478628,-45.798212)">
    <path
       style="fill:#ffffff"
       d="m 195.19768,314.40475 c -18.92308,-4.58243 -32.37047,-17.62644 -37.17068,-36.05566 -4.2156,-16.18478 0.41771,-40.18928 10.63327,-55.08949 14.83078,-21.63185 37.7143,-32.31083 66.35912,-30.96758 31.30406,1.46793 39.5,13.9042 39.5,14.8288 0,0.9487 -19.25091,19.80722 -21.59137,21.15126 -0.29208,0.16773 -2.48378,-6.51264 -14.23931,-9.93006 -8.57675,-2.49333 -22.01492,-1.52267 -29.66308,2.1426 -15.72855,7.53769 -23.91981,21.22002 -23.94492,39.99655 -0.0119,8.9241 0.27562,10.55278 2.67267,15.13785 6.60278,12.62977 20.05001,18.01756 37.40219,14.98563 9.81344,-1.71469 14.9982,-4.00627 15.71199,-6.94443 0.29115,-1.19848 0.85277,-5.10405 1.24805,-8.67905 0.39527,-3.575 0.74464,-6.725 0.77636,-7 0.0317,-0.275 -4.53913,-0.35672 -10.15745,-0.1816 -11.92659,0.37175 -11.10328,1.67716 -8.71513,-13.8184 0.80527,-5.225 1.4722,-9.8375 1.48206,-10.25 0.01,-0.4125 10.64302,-0.75 23.62923,-0.75 h 23.61129 l -0.58861,3.25 c -0.32374,1.7875 -2.18731,14.725 -4.14127,28.75 -4.38514,31.47534 -3.96956,29.67866 -7.25719,31.37552 -5.44241,2.80902 -18.46342,6.65298 -27.50186,8.11888 -11.39782,1.84855 -30.2744,1.81343 -38.05536,-0.0708 z m 118.79428,-0.46796 c -0.43785,-0.70846 2.77576,-4.38972 30.27743,-34.68346 6.1875,-6.81568 11.25024,-12.70265 11.25054,-13.08215 2.9e-4,-0.37951 -4.27471,-0.53503 -9.5,-0.34561 -5.2253,0.18941 -9.50054,0.0478 -9.50054,-0.31462 0,-0.36246 0.87444,-2.76744 1.94321,-5.3444 1.06877,-2.57696 3.82654,-9.63538 6.12839,-15.68538 2.30185,-6.05 4.49344,-11.34354 4.87021,-11.76342 0.37677,-0.41988 3.44751,0.617 6.82386,2.30419 6.57111,3.28362 12.37279,9.39521 15.62461,16.45923 2.38023,5.17064 3.28337,18.76205 1.67314,25.17921 -5.85234,23.32306 -26.86035,38.88116 -51.61623,38.22593 -4.13086,-0.10934 -7.71943,-0.53662 -7.97462,-0.94952 z m 235.25589,-0.28247 c -5.09168,-1.58378 -10.63073,-6.195 -12.33173,-10.26606 -1.98916,-4.76074 -1.74442,-11.5986 1.08831,-30.40714 3.42185,-22.72005 3.95073,-20.57899 -4.98504,-20.18119 -8.72417,0.38839 -8.28986,1.24801 -6.30506,-12.47957 l 1.19494,-8.2646 8.00756,-0.2873 8.00757,-0.28729 1.25512,-8.5 c 0.69032,-4.675 1.27419,-9.9625 1.2975,-11.75 l 0.0424,-3.25 h 13 c 11.72183,0 12.99805,0.17206 12.98019,1.75 -0.0209,1.84903 -1.56147,13.51358 -2.50933,19 l -0.56149,3.25 h 11.04532 c 6.07492,0 11.04191,0.3375 11.03776,0.75 -0.008,0.77471 -1.57448,11.27312 -2.5369,17 l -0.54618,3.25 h -10.81748 -10.81749 l -1.10834,7.25 c -3.92979,25.70597 -3.93408,29.73342 -0.0339,31.82076 2.67487,1.43154 11.9484,1.49165 14.55925,0.0944 1.12507,-0.60212 2.23058,-0.90976 2.45669,-0.68365 0.22612,0.22612 -0.23302,5.13765 -1.02031,10.91451 l -1.43143,10.50339 -4.89743,1.05031 c -6.39541,1.37157 -21.2796,1.21369 -26.07052,-0.27654 z M 303.78747,311.0162 c -5.70858,-2.59138 -13.65501,-10.19935 -16.11148,-15.42526 -5.2769,-11.22613 -4.71293,-25.44993 1.51106,-38.10977 8.46019,-17.20836 26.32195,-27.43024 48.02332,-27.48264 3.95504,-0.01 7.39991,0.32068 7.65526,0.73384 0.41102,0.66506 -6.66295,8.74957 -34.23881,39.12991 -4.18409,4.60961 -7.75743,8.77211 -7.94076,9.25 -0.18334,0.47789 3.97916,0.86889 9.25,0.86889 5.27083,0 9.58333,0.2718 9.58333,0.604 0,0.33219 -2.42837,6.74469 -5.39638,14.25 -2.96801,7.5053 -5.69833,14.6585 -6.06739,15.896 -0.80736,2.7072 -0.92091,2.71237 -6.26815,0.28503 z m 83.11915,0.21497 c 0.2871,-0.9625 1.90735,-11.875 3.60054,-24.25 1.6932,-12.375 3.94834,-28.575 5.01143,-36 1.06309,-7.425 3.10374,-22.05 4.53479,-32.5 1.43104,-10.45 2.84511,-20.0125 3.14236,-21.25 l 0.54047,-2.25 h 39.7402 39.74021 l -0.81772,5.75 c -0.44974,3.1625 -1.32248,8.7875 -1.93943,12.5 l -1.12171,6.75 h -26.40919 c -14.52505,0 -26.41793,0.3375 -26.42862,0.75 -0.0107,0.4125 -0.67143,5.25 -1.46829,10.75 -0.79687,5.5 -1.46312,10.3375 -1.48056,10.75 -0.0174,0.4125 10.99861,0.75 24.48011,0.75 h 24.51182 l -0.58585,3.75 c -0.32221,2.0625 -1.12748,7.575 -1.78948,12.25 l -1.20365,8.5 -3.47233,0.1219 c -1.90978,0.067 -12.97366,0.17954 -24.58641,0.25 l -21.11407,0.1281 -0.67164,4.75 c -0.85383,6.03849 -2.32037,17.06273 -3.59176,27 -0.54535,4.2625 -1.25611,8.9875 -1.57945,10.5 l -0.58791,2.75 h -13.48793 c -12.37784,0 -13.44497,-0.14403 -12.96593,-1.75 z m 95.06961,-1.5 c 0.30111,-1.7875 1.63534,-11.125 2.96496,-20.75 1.32962,-9.625 3.65072,-26.3875 5.15799,-37.25 l 2.74049,-19.75 h 12.83986 c 8.15626,0 12.83986,0.37633 12.83986,1.0317 0,0.56744 -1.09909,8.55494 -2.44242,17.75 -3.81221,26.09444 -8.55758,60.01521 -8.55758,61.1711 0,0.67609 -4.62308,1.0472 -13.04531,1.0472 h -13.04532 z m -314.12351,-7.20601 c 0,-0.80081 0.38234,-1.21971 0.84965,-0.9309 0.4673,0.28881 0.59075,0.94401 0.27431,1.45601 -0.80862,1.30838 -1.12396,1.16106 -1.12396,-0.52511 z M 497.42046,199.11464 c 15.97893,-22.40397 47.05437,14.34877 9.66741,22.76417 -11.68125,-2.32739 -16.22171,-11.27209 -9.66741,-22.76417 z"
       id="path1" />
  </g>
</svg>
