<?xml version="1.0" encoding="UTF-8" standalone="no"?>
<!-- Created with Inkscape (http://www.inkscape.org/) -->

<svg
   width="60.800072mm"
   height="14.816667mm"
   viewBox="0 0 60.800072 14.816667"
   version="1.1"
   id="svg1"
   xml:space="preserve"
   sodipodi:docname="lighthouse.svg"
   inkscape:version="1.4.2 (ebf0e940d0, 2025-05-08)"
   xmlns:inkscape="http://www.inkscape.org/namespaces/inkscape"
   xmlns:sodipodi="http://sodipodi.sourceforge.net/DTD/sodipodi-0.dtd"
   xmlns="http://www.w3.org/2000/svg"
   xmlns:svg="http://www.w3.org/2000/svg"><sodipodi:namedview
     id="namedview1"
     pagecolor="#8b8b8b"
     bordercolor="#000000"
     borderopacity="0.25"
     inkscape:showpageshadow="2"
     inkscape:pageopacity="0.0"
     inkscape:pagecheckerboard="0"
     inkscape:deskcolor="#d1d1d1"
     inkscape:document-units="mm"
     inkscape:zoom="1.4361654"
     inkscape:cx="173.37836"
     inkscape:cy="134.38564"
     inkscape:window-width="1920"
     inkscape:window-height="1037"
     inkscape:window-x="1366"
     inkscape:window-y="0"
     inkscape:window-maximized="1"
     inkscape:current-layer="svg1" /><defs
     id="defs1" /><g
     id="layer1"
     transform="matrix(0.26458333,0,0,0.26458333,10.408165,-29.087262)"><path
       style="fill:#ffffff;stroke-width:0.75451"
       d="m -10.731805,165.80101 c -5.067166,-0.81962 -9.387511,-2.94888 -13.01459,-6.41416 l -1.577371,-1.50702 -1.455762,1.44605 -1.455764,1.44604 -1.043736,-1.14201 c -2.068243,-2.26298 -3.909038,-5.50471 -4.875913,-8.58672 -0.620046,-1.97646 -1.131459,-5.29483 -1.131459,-7.34164 v -1.52151 h -2.025773 -2.025774 l 0.129807,-1.84659 c 0.168973,-2.40373 0.913442,-5.43745 1.890482,-7.70372 1.003159,-2.32684 3.030357,-5.35171 4.7447,-7.07976 l 1.347535,-1.35832 -1.481503,-1.50153 -1.481504,-1.50154 1.09797,-0.98411 c 4.226022,-3.78778 9.895377,-5.97275 15.49754,-5.97275 h 2.069975 v -2.14781 -2.1478 l 2.046216,0.13106 c 5.4471886,0.34888 10.4414549,2.57076 14.4821427,6.44288 l 1.6558618,1.58678 1.4804321,-1.47055 1.4804321,-1.47055 0.8563231,0.97248 c 4.0106752,4.55472 6.1411402,10.10864 6.1453642,16.02038 l 0.0012,1.64695 h 1.996309 1.996308 l -8.3e-4,1.04806 c -0.0013,1.63239 -0.554884,4.6532 -1.212601,6.61636 -1.118802,3.33939 -3.127863,6.6054 -5.6564363,9.19533 l -1.1424757,1.17019 1.460865,1.48075 1.460864,1.48077 -1.097969,0.99212 c -4.1588711,3.75794 -9.89575741,5.96235 -15.5212992,5.9641 l -2.046216,6.4e-4 v 2.09612 2.09613 l -1.5471391,-0.0272 c -0.8509261,-0.0149 -1.7717237,-0.0635 -2.0462157,-0.10792 z m 3.3937242,-14.41217 v -1.97052 l 1.2476929,-0.13707 c 0.6862308,-0.0754 1.8316128,-0.26894 2.5452928,-0.43011 1.3391244,-0.30242 4.52161709,-1.77867 5.3746822,-2.49313 l 0.4837264,-0.40513 -1.36209175,-1.37262 -1.36209095,-1.3726 0.84852374,-0.96298 c 1.69220726,-1.92047 3.15979986,-4.99024 3.51357466,-7.34939 l 0.1349819,-0.90012 H 2.067236 0.04826085 v -1.06603 c 0,-2.12289 -1.38441915,-6.117 -2.73315995,-7.88529 l -0.5111845,-0.6702 -1.3273933,1.31722 c -0.7300656,0.72448 -1.3946631,1.31723 -1.4768836,1.31723 -0.08222,0 -0.7986363,-0.49848 -1.592037,-1.10772 -2.1839322,-1.67703 -3.8506385,-2.41206 -7.1819325,-3.16731 l -0.548985,-0.12446 v 2.00011 2.00011 l -0.6488,0.003 c -1.536805,0.006 -4.43139,0.79244 -6.217478,1.68879 -0.999714,0.5017 -2.03534,1.0945 -2.301389,1.31733 l -0.483727,0.40513 1.362091,1.37261 1.362092,1.37261 -0.848525,0.96298 c -1.663665,1.88807 -3.130892,4.97659 -3.519924,7.40947 l -0.134327,0.84003 h 1.993008 1.993009 l 0.117752,1.44733 c 0.210174,2.58331 1.123734,5.1853 2.546732,7.25355 l 0.635343,0.92344 1.44139,-1.43177 1.441389,-1.43177 1.179667,1.01881 c 1.434686,1.23905 4.24593,2.66999 6.2702536,3.19159 0.8234771,0.21219 1.5646068,0.39074 1.6469541,0.39679 0.082348,0.006 0.1497235,-0.87575 0.1497235,-1.95953 z m 59.9890698,4.8992 c -1.483856,-0.37937 -3.387468,-1.47135 -4.310367,-2.47258 -0.826624,-0.89678 -1.637908,-2.44507 -1.868197,-3.56536 l -0.12619,-0.61388 1.99139,-0.534 c 1.095264,-0.2937 2.075894,-0.53399 2.179176,-0.53399 0.103283,0 0.245885,0.29048 0.316894,0.64553 0.492242,2.46121 3.377803,3.87933 6.215206,3.05447 2.192636,-0.63742 3.287875,-2.38765 3.287875,-5.25415 v -1.28205 l -0.738473,0.64839 c -2.112664,1.85494 -5.58767,2.0866 -8.614155,0.57424 -5.184441,-2.59069 -6.144135,-10.72011 -1.769965,-14.99311 1.671313,-1.63264 4.597484,-2.51659 7.140788,-2.1571 1.574324,0.22253 3.529476,1.14808 4.282408,2.02723 l 0.597736,0.69795 1.35125,-1.26354 c 0.923476,-0.86353 1.511355,-1.26353 1.856985,-1.26353 h 0.505735 l -0.06732,9.83182 c -0.06647,9.70746 -0.07319,9.84769 -0.530469,11.0874 -0.898,2.43449 -2.922738,4.4109 -5.277673,5.1517 -1.358593,0.42738 -5.101215,0.55241 -6.422628,0.21456 z m 4.562503,-12.52722 c 1.05434,-0.29277 2.42364,-1.60523 2.86325,-2.74441 0.569885,-1.47677 0.470949,-3.33869 -0.252584,-4.75345 -0.826846,-1.61676 -1.86914,-2.32238 -3.592596,-2.43212 -1.7123,-0.10903 -2.831176,0.31777 -3.841217,1.46523 -0.919045,1.04409 -1.238078,2.00544 -1.232203,3.71303 0.0067,1.9492 0.871973,3.58074 2.290078,4.31814 1.278746,0.66494 2.447412,0.79951 3.765272,0.43358 z m 66.190428,5.23995 c -4.28201,-1.1178 -6.97087,-4.85291 -6.97087,-9.68326 0,-6.30733 5.08872,-10.69257 11.27914,-9.7199 4.84408,0.76112 8.08505,4.65744 8.08505,9.7199 0,5.88439 -3.99967,10.02623 -9.6821,10.02623 -0.76857,0 -1.98862,-0.15434 -2.71122,-0.34297 z m 4.70753,-4.30205 c 1.21053,-0.57228 1.94195,-1.32007 2.47893,-2.53446 1.31354,-2.97056 0.33255,-6.51301 -2.17585,-7.85717 -2.88684,-1.54695 -6.15609,-0.0622 -7.11329,3.23038 -0.59577,2.04938 -0.039,4.70678 1.28116,6.11514 0.79503,0.84813 2.35396,1.51799 3.53274,1.51799 0.63476,0 1.36156,-0.1718 1.99631,-0.47188 z m 15.02424,4.35703 c -3.0833,-0.74731 -5.05741,-2.81303 -5.54737,-5.8048 -0.10545,-0.6439 -0.19224,-3.8882 -0.19288,-7.20956 l -0.002,-6.03883 h 2.27843 2.27843 l 0.073,6.13864 c 0.0598,5.03719 0.12925,6.26458 0.38684,6.84048 1.24191,2.77655 5.27588,2.92261 6.59769,0.23889 0.44938,-0.91239 0.46523,-1.12555 0.52625,-7.07937 l 0.0629,-6.13864 h 2.29676 2.29676 l -0.0681,6.83736 c -0.0643,6.45295 -0.0923,6.89689 -0.49812,7.89649 -0.58145,1.43218 -1.68256,2.72576 -2.92347,3.43447 -1.95644,1.11737 -5.09311,1.48422 -7.56591,0.88487 z m 18.26814,0.10057 c -2.64373,-0.52178 -4.91901,-2.57871 -5.45399,-4.93057 l -0.14769,-0.6493 1.12696,-0.31248 c 0.61983,-0.17186 1.38742,-0.39621 1.70574,-0.49857 0.99036,-0.31845 1.27536,-0.23455 1.41858,0.41757 0.17591,0.80089 1.02268,1.78125 1.82981,2.11849 0.86437,0.36116 2.53781,0.34618 3.26373,-0.0292 0.71487,-0.36968 0.99416,-0.86037 0.99416,-1.74669 0,-1.1044 -0.58098,-1.45645 -3.69973,-2.24194 -3.80805,-0.95909 -5.12702,-1.89577 -5.87638,-4.17314 -0.34435,-1.04653 -0.1659,-3.01775 0.36792,-4.06412 1.96554,-3.85277 8.04306,-4.8113 11.65078,-1.83751 0.77934,0.6424 2.06883,2.98539 1.89391,3.44121 -0.0569,0.14819 -0.83466,0.46984 -1.72844,0.71479 -0.89379,0.24494 -1.74787,0.49247 -1.89797,0.55007 -0.18115,0.0695 -0.31906,-0.10536 -0.41015,-0.52004 -0.45437,-2.06875 -3.74542,-2.97066 -5.14099,-1.40888 -0.85623,0.95821 -0.67955,2.12539 0.40518,2.67655 0.29868,0.15176 1.46835,0.47223 2.59924,0.71214 2.53133,0.537 3.56005,0.9665 4.62988,1.93302 1.28407,1.16009 1.67616,2.08367 1.6855,3.9703 0.007,1.3539 -0.0733,1.75175 -0.52573,2.61317 -1.43017,2.72318 -4.87621,4.01793 -8.69032,3.26515 z m 17.86755,-0.1 c -4.57812,-1.10978 -7.39599,-5.23323 -7.08548,-10.36831 0.36037,-5.95945 4.95424,-9.90845 10.59803,-9.11032 4.56458,0.64552 7.09019,3.50913 7.61757,8.63699 0.0749,0.72869 0.0748,1.60457 -2.5e-4,1.94641 l -0.13652,0.62152 h -6.77538 -6.77539 l 0.12901,0.54899 c 0.59849,2.54667 3.03537,4.28428 5.54206,3.95176 1.74986,-0.23213 2.71572,-0.94407 3.83994,-2.83046 0.2129,-0.35723 0.27196,-0.35363 1.69687,0.10355 0.81196,0.26052 1.6749,0.54834 1.91767,0.63962 l 0.44139,0.16594 -0.4312,1.03758 c -0.23716,0.57065 -0.91561,1.56079 -1.50768,2.2003 -2.18584,2.36096 -5.62375,3.29199 -9.07064,2.45643 z m 6.42919,-12.21641 c -0.009,-0.6811 -0.76002,-1.99974 -1.42121,-2.49386 -2.1236,-1.58701 -5.26278,-1.11543 -6.6456,0.99833 -0.26875,0.4108 -0.54876,0.99395 -0.62224,1.29589 l -0.13361,0.54899 h 4.41352 c 4.07194,0 4.41318,-0.027 4.40914,-0.34935 z m -95.374891,11.8452 c -1.238529,-0.40275 -2.169881,-1.19501 -2.79211,-2.37512 l -0.54607,-1.03569 -0.05991,-8.66998 -0.05983,-8.66999 1.752561,-1.76072 c 1.362902,-1.36925 1.875554,-1.76073 2.305715,-1.76073 h 0.553147 v 2.79483 2.79484 h 1.896492 1.896491 v 2.09612 2.09613 h -1.906572 -1.906579 l 0.05998,4.78697 0.05998,4.78698 0.539897,0.53952 c 0.491194,0.49085 0.666799,0.53717 1.946403,0.51345 l 1.406505,-0.0261 v 1.87451 c 0,1.28357 -0.07867,1.92353 -0.249539,2.03002 -0.463405,0.28881 -3.995547,0.27793 -4.896591,-0.0151 z M 30.791411,136.91666 v -11.8512 l 1.802991,-1.62389 c 1.228597,-1.10655 1.959974,-1.62388 2.295755,-1.62388 h 0.492764 v 13.47508 13.47509 h -2.295755 -2.295755 z m 8.384495,2.46854 v -9.38264 h 2.295755 2.295755 v 9.38264 9.38266 h -2.295755 -2.295755 z m 28.746839,-4.49169 v -13.87434 h 2.295756 2.295756 v 5.20056 5.20056 l 0.686914,-0.52393 c 1.64453,-1.25435 4.70665,-1.68549 7.043059,-0.99165 1.419935,0.42168 2.832944,1.7414 3.567294,3.33177 l 0.580769,1.25777 0.05931,7.13681 0.0593,7.1368 H 82.21612 79.921337 l -0.06028,-6.33828 c -0.06677,-7.02143 -0.08538,-7.12825 -1.404785,-8.06932 -0.544749,-0.38854 -0.900289,-0.4649 -2.164577,-0.4649 -1.335038,0 -1.5956,0.0631 -2.217754,0.53771 -1.406355,1.07268 -1.452946,1.32421 -1.517962,8.19614 l -0.0581,6.13865 h -2.287585 -2.287577 z m 30.144262,0 v -13.87434 h 2.295753 2.29576 v 5.30577 5.30578 l 0.79933,-0.68421 c 1.08554,-0.92918 2.47458,-1.34322 4.50632,-1.34322 2.93501,0 4.93296,1.16465 6.00135,3.49831 0.75217,1.64294 0.86808,2.9133 0.86932,9.52761 l 0.002,6.13865 h -2.29575 -2.29575 v -5.46261 c 0,-7.13689 -0.16077,-7.94853 -1.79465,-9.06054 -0.89893,-0.6118 -2.79944,-0.62866 -3.77571,-0.0335 -1.84826,1.12677 -2.01562,1.86604 -2.01562,8.90339 v 5.65324 h -2.29575 -2.295758 z m -58.192392,-7.88292 c -1.182179,-0.77801 -1.649508,-2.5359 -1.005325,-3.78162 0.541928,-1.04797 1.425271,-1.61091 2.527787,-1.61091 0.546012,0 1.249859,0.13296 1.564102,0.29546 1.848563,0.95593 2.104514,3.46535 0.497378,4.87643 -0.611162,0.5366 -0.852501,0.61723 -1.844119,0.61609 -0.798964,-7.5e-4 -1.320435,-0.11945 -1.739823,-0.39545 z"
       id="path1" /></g></svg>
