<?xml version="1.0" encoding="UTF-8" standalone="no"?>
<!-- Creator: CorelDRAW -->

<svg
   xml:space="preserve"
   width="242.97514"
   height="56"
   version="1.1"
   style="clip-rule:evenodd;fill-rule:evenodd;image-rendering:optimizeQuality;shape-rendering:geometricPrecision;text-rendering:geometricPrecision"
   viewBox="0 0 63.401196 14.612245"
   id="svg8"
   sodipodi:docname="noemi-cabana.svg"
   inkscape:version="1.4.2 (ebf0e940d0, 2025-05-08)"
   xmlns:inkscape="http://www.inkscape.org/namespaces/inkscape"
   xmlns:sodipodi="http://sodipodi.sourceforge.net/DTD/sodipodi-0.dtd"
   xmlns="http://www.w3.org/2000/svg"
   xmlns:svg="http://www.w3.org/2000/svg"><sodipodi:namedview
   id="namedview8"
   pagecolor="#dedede"
   bordercolor="#000000"
   borderopacity="0.25"
   inkscape:showpageshadow="2"
   inkscape:pageopacity="0.0"
   inkscape:pagecheckerboard="true"
   inkscape:deskcolor="#d1d1d1"
   inkscape:zoom="0.68313458"
   inkscape:cx="226.16334"
   inkscape:cy="-108.32419"
   inkscape:window-width="1920"
   inkscape:window-height="1037"
   inkscape:window-x="1366"
   inkscape:window-y="0"
   inkscape:window-maximized="1"
   inkscape:current-layer="Capa_x0020_1" /> <defs
   id="defs1"> <style
   type="text/css"
   id="style1"> <![CDATA[ .str0 {stroke:#9B8AFA;stroke-width:1.04;stroke-miterlimit:22.9256} .fil1 {fill:none;fill-rule:nonzero} .fil3 {fill:#858789} .fil2 {fill:#CCCCCD} .fil0 {fill:#9B8AFA;fill-rule:nonzero} ]]> </style> </defs> <g
   id="Capa_x0020_1"
   inkscape:label="Capa 1"
   inkscape:groupmode="layer"
   transform="matrix(0.2734794,0,0,0.2734794,21.515043,-10.637881)"> <metadata
   id="CorelCorpID_0Corel-Layer" />                      <g
   id="g9"
   inkscape:label="logotipo"
   style="fill:none;fill-opacity:1;stroke:#ffffff;stroke-opacity:1"><path
     class="fil0"
     d="m 14.28,88.96 c -0.45,0 -0.81,-0.26 -1.1,-0.76 -0.29,-0.6 -0.45,-1.26 -0.47,-1.94 v -1.65 c 0.05,-1.89 0.23,-3.75 0.55,-5.58 1.1,-6.66 2.99,-14.52 5.68,-23.56 1.03,-3.35 1.71,-6.18 2.08,-8.54 0.05,-0.19 0.07,-0.4 0.07,-0.61 0,-0.81 -0.21,-1.23 -0.63,-1.23 -0.1,0 -0.18,0.03 -0.28,0.08 -0.45,0.16 -0.87,0.42 -1.24,0.74 -0.91,0.76 -1.75,1.57 -2.51,2.49 -1.97,2.27 -3.77,4.71 -5.43,7.25 -3.85,5.9 -6.78,12.22 -8.83,18.98 -0.44,1.54 -0.81,3.11 -1.07,4.71 -0.08,0.61 -0.13,1.21 -0.13,1.81 0,0.26 0,0.5 0.02,0.74 0,0.1 -0.02,0.2 -0.05,0.31 -0.02,0.03 -0.08,0.03 -0.13,0.03 -0.03,0 -0.05,0 -0.05,0 C 0.65,82.15 0.6,82.07 0.57,81.96 0.55,81.81 0.52,81.49 0.52,80.99 c 0,-1.12 0.13,-2.22 0.37,-3.32 0.6,-2.99 1.44,-5.87 2.57,-8.68 2.7,-7.1 6.42,-13.65 11.13,-19.63 0.84,-1.12 1.79,-2.17 2.78,-3.14 0.61,-0.66 1.29,-1.21 2.07,-1.65 0.42,-0.24 0.79,-0.34 1.13,-0.34 0.86,0 1.34,0.68 1.39,2.07 0,0.81 -0.11,1.6 -0.32,2.38 -0.52,2.47 -1.1,4.72 -1.75,6.74 -3.12,10.56 -5.11,19.1 -6.03,25.68 -0.18,1.34 -0.26,2.67 -0.26,4.01 0,0.92 0.05,1.68 0.21,2.25 0.13,0.45 0.31,0.66 0.55,0.66 0.05,0 0.1,0 0.18,-0.03 0.26,-0.13 0.5,-0.31 0.68,-0.55 0.97,-1.1 2.15,-3.07 3.52,-5.87 3.51,-7.13 6.15,-12.45 7.91,-15.93 4.01,-8.02 8.2,-15.91 12.58,-23.72 0.47,-0.81 0.78,-1.26 0.89,-1.28 h 0.13 c 0.13,0 0.21,0.05 0.21,0.21 0,0.1 -0.18,0.55 -0.58,1.33 -3.69,6.92 -6.02,11.33 -6.99,13.19 -4.07,7.8 -8.15,15.95 -12.24,24.42 -2.44,5.11 -4.27,8.07 -5.53,8.93 -0.32,0.16 -0.58,0.24 -0.84,0.24 z"
     id="path1"
     style="fill:none;fill-opacity:1;stroke:#ffffff;stroke-opacity:1" /><path
     id="_1"
     class="fil0"
     d="m 32.85,70.67 c 0.23,0 0.47,-0.16 0.76,-0.45 0.42,-0.44 0.73,-0.99 0.94,-1.57 0.08,-0.21 0.13,-0.44 0.13,-0.68 -0.37,-0.18 -0.6,-0.55 -0.73,-1.05 -0.26,0.03 -0.5,0.16 -0.66,0.37 -0.63,0.73 -0.97,1.57 -0.97,2.54 0,0.03 0,0.03 0,0.05 0.03,0.16 0.05,0.29 0.11,0.42 0.08,0.24 0.23,0.37 0.42,0.37 z m -0.21,0.58 c -0.34,0 -0.63,-0.19 -0.84,-0.55 -0.13,-0.32 -0.21,-0.61 -0.21,-0.92 0,-1 0.34,-1.89 0.97,-2.73 0.23,-0.31 0.52,-0.57 0.92,-0.73 0.13,-0.05 0.28,-0.08 0.39,-0.08 0.42,0 0.78,0.21 1.07,0.58 0.19,0.23 0.29,0.52 0.29,0.84 0.29,0.18 0.63,0.28 1,0.28 0.47,0 0.86,-0.07 1.23,-0.23 0.02,0 0.05,-0.03 0.1,-0.03 0.06,0 0.08,0.03 0.08,0.08 0,0.08 -0.02,0.13 -0.1,0.16 -0.34,0.26 -0.84,0.36 -1.5,0.36 -0.42,0 -0.7,-0.05 -0.89,-0.1 -0.18,0.86 -0.57,1.6 -1.15,2.25 -0.21,0.29 -0.5,0.53 -0.81,0.69 -0.21,0.1 -0.4,0.13 -0.55,0.13 z"
     style="fill:none;fill-opacity:1;stroke:#ffffff;stroke-opacity:1" /><path
     id="_2"
     class="fil0"
     d="m 39.32,68.08 c 0.84,0 1.44,-0.27 1.81,-0.74 -0.21,-0.02 -0.39,-0.05 -0.55,-0.05 -0.65,0 -1.34,0.23 -2.02,0.73 0.27,0.03 0.53,0.06 0.76,0.06 z m -0.6,3.17 h -0.21 c -0.84,0 -1.44,-0.16 -1.83,-0.45 -0.29,-0.26 -0.42,-0.63 -0.42,-1.07 0,-0.61 0.23,-1.16 0.73,-1.63 1,-1.02 2.15,-1.54 3.46,-1.62 0.24,0 0.5,0.02 0.73,0.1 0.42,0.13 0.63,0.39 0.63,0.76 0,0.24 -0.13,0.45 -0.36,0.66 -0.48,0.36 -1.03,0.57 -1.63,0.65 l -0.47,0.03 c -0.08,0 -0.13,0 -0.18,0 -0.45,0 -0.82,-0.03 -1.1,-0.11 h -0.14 c -0.13,0 -0.26,0.06 -0.34,0.16 -0.23,0.31 -0.36,0.66 -0.36,1 0,0.21 0.08,0.42 0.26,0.57 0.21,0.19 0.5,0.26 0.81,0.26 0.37,0 0.68,-0.02 0.94,-0.07 1.6,-0.34 3.31,-1.05 5.17,-2.13 0.63,-0.39 0.99,-0.6 1.05,-0.65 0.02,-0.03 0.07,-0.03 0.1,-0.03 0,0 0.03,0 0.05,0 0.03,0.03 0.06,0.05 0.08,0.08 0.03,0.03 0.05,0.05 0.05,0.11 0,0.02 -0.02,0.07 -0.05,0.1 -0.02,0.08 -0.47,0.42 -1.34,1.02 -0.89,0.6 -2.12,1.21 -3.69,1.78 -0.03,0 -0.05,0 -0.08,0.03 -0.6,0.24 -1.2,0.37 -1.86,0.45 z"
     style="fill:none;fill-opacity:1;stroke:#ffffff;stroke-opacity:1" /><path
     id="_3"
     class="fil0"
     d="m 42.74,74.39 c -0.11,0 -0.24,-0.05 -0.34,-0.1 -0.16,-0.11 -0.21,-0.19 -0.24,-0.27 0,-0.08 0,-0.13 0,-0.15 0,-0.27 0.11,-0.61 0.32,-1.05 0.99,-2.1 2.12,-4.14 3.32,-6.11 0.56,-0.84 1.03,-1.49 1.45,-1.88 0.13,-0.14 0.23,-0.21 0.34,-0.21 0.05,0 0.13,0.02 0.18,0.07 0.08,0.08 0.11,0.16 0.11,0.24 -0.03,0.13 -0.14,0.31 -0.32,0.6 -1.34,2.13 -2.59,4.33 -3.77,6.66 -0.13,0.18 -0.19,0.34 -0.19,0.5 0.13,-0.06 0.27,-0.13 0.37,-0.24 0.03,-0.05 0.11,-0.1 0.18,-0.18 2.31,-2.1 4.56,-3.96 6.77,-5.61 0.13,-0.08 0.2,-0.13 0.28,-0.13 0.06,0 0.11,0.03 0.16,0.05 0.16,0.11 0.24,0.24 0.24,0.39 0,0.21 -0.11,0.74 -0.34,1.52 -0.19,0.82 -0.27,1.37 -0.27,1.63 0,0.21 0.08,0.31 0.24,0.31 0.05,0 0.18,-0.05 0.34,-0.13 0.63,-0.34 1.21,-0.73 1.76,-1.18 1.17,-0.91 2.3,-1.88 3.4,-2.91 0.68,-0.62 1.08,-0.97 1.13,-0.99 0.08,-0.03 0.13,-0.03 0.16,-0.03 0.05,0 0.13,0.03 0.18,0.08 0.08,0.05 0.13,0.13 0.13,0.21 -0.03,0.08 -0.44,1 -1.28,2.75 -0.24,0.47 -0.37,0.92 -0.4,1.36 0,0.21 0.13,0.35 0.42,0.35 0.5,0 0.95,-0.08 1.34,-0.19 1.34,-0.42 2.59,-0.97 3.8,-1.65 0.5,-0.29 0.76,-0.42 0.84,-0.42 0.05,0 0.08,0.03 0.13,0.08 0.03,0.05 0.05,0.08 0.05,0.13 0,0.05 -0.05,0.13 -0.18,0.21 -0.03,0.03 -0.05,0.03 -0.08,0.05 -0.03,0.03 -0.05,0.06 -0.11,0.08 -1.2,0.74 -2.43,1.39 -3.72,1.97 -0.84,0.36 -1.54,0.55 -2.12,0.55 -0.79,0 -1.2,-0.34 -1.28,-1.02 0,-0.42 0.08,-0.82 0.21,-1.13 0.18,-0.47 0.39,-0.97 0.6,-1.49 -0.11,0.05 -0.21,0.13 -0.34,0.23 -0.13,0.13 -0.37,0.34 -0.74,0.68 -1.2,1.16 -2.33,2.13 -3.4,2.86 -0.4,0.29 -0.76,0.44 -1.1,0.44 -0.58,0 -0.87,-0.44 -0.87,-1.33 0,-0.32 0.16,-1.1 0.47,-2.36 -0.21,0.1 -0.36,0.21 -0.52,0.34 -1.68,1.44 -3.33,2.94 -4.9,4.43 -0.97,0.94 -1.62,1.54 -1.99,1.81 -0.13,0.1 -0.29,0.18 -0.42,0.18 z"
     style="fill:none;fill-opacity:1;stroke:#ffffff;stroke-opacity:1" /><path
     id="_4"
     class="fil0"
     d="M 64.5,66.21 C 64.39,66.19 64.29,66.16 64.21,66.06 64.16,65.98 64.1,65.9 64.1,65.8 c 0,-0.11 0.06,-0.21 0.14,-0.29 0.07,-0.08 0.18,-0.11 0.28,-0.11 0.11,0.03 0.21,0.05 0.27,0.13 0.07,0.08 0.1,0.19 0.1,0.29 0,0.11 -0.05,0.18 -0.13,0.26 -0.08,0.08 -0.16,0.11 -0.26,0.13 z m -1.39,4.41 c -0.32,0 -0.53,-0.08 -0.6,-0.24 -0.08,-0.05 -0.13,-0.26 -0.13,-0.58 0,-0.65 0.28,-1.38 0.83,-2.22 0.11,-0.21 0.27,-0.32 0.48,-0.34 0.1,0 0.18,0.02 0.23,0.08 0.05,0.05 0.08,0.1 0.08,0.18 0,0.05 -0.03,0.16 -0.13,0.34 -0.45,0.86 -0.66,1.49 -0.66,1.94 v 0.16 c 0.06,0.02 0.13,0.05 0.24,0.05 0.37,0 1.34,-0.29 2.96,-0.87 0.63,-0.26 1.6,-0.7 2.91,-1.39 0.1,-0.02 0.18,-0.05 0.29,-0.05 0.18,0 0.26,0.05 0.26,0.13 0,0.13 -0.39,0.42 -1.21,0.82 -0.68,0.36 -1.36,0.68 -2.04,0.94 -1.68,0.71 -2.86,1.05 -3.51,1.05 z"
     style="fill:none;fill-opacity:1;stroke:#ffffff;stroke-opacity:1" /><path
     id="_5"
     class="fil0"
     d="m 80.53,83.17 c -0.29,0 -0.58,-0.03 -0.89,-0.05 -1.92,-0.29 -3.15,-1.34 -3.65,-3.23 -0.15,-0.57 -0.23,-1.18 -0.23,-1.78 0.08,-2.17 0.65,-4.61 1.78,-7.31 1.44,-3.48 3.41,-6.63 5.87,-9.46 3.83,-4.43 8.25,-8.07 13.34,-10.95 1.91,-1.08 3.88,-1.94 5.97,-2.6 0.71,-0.21 1.42,-0.36 2.15,-0.47 0.18,-0.03 0.34,-0.03 0.5,-0.03 0.26,0 0.55,0.03 0.81,0.11 0.94,0.23 1.42,0.89 1.42,1.91 0,0.84 -0.32,1.84 -0.97,2.96 -1.26,2.2 -2.78,4.27 -4.51,6.21 -0.31,0.4 -0.63,0.69 -1.02,0.87 -0.13,0 -0.21,-0.05 -0.21,-0.13 0,-0.08 0.08,-0.21 0.23,-0.37 1.73,-1.73 3.38,-3.96 4.9,-6.63 0.27,-0.5 0.5,-1.02 0.69,-1.55 0.18,-0.52 0.28,-0.94 0.28,-1.25 0,-0.34 -0.1,-0.63 -0.36,-0.92 -0.29,-0.29 -0.5,-0.45 -0.71,-0.45 -0.52,0 -0.97,0.06 -1.31,0.14 -0.47,0.05 -1.08,0.23 -1.86,0.49 -1.76,0.58 -3.43,1.34 -5.06,2.23 -5.58,3.07 -10.4,7.08 -14.41,12.03 -2.73,3.3 -4.69,7.02 -5.92,11.14 -0.42,1.36 -0.66,2.72 -0.69,4.06 0,0.65 0.11,1.28 0.32,1.91 0.55,1.47 1.73,2.23 3.59,2.23 0.63,0 1.23,-0.11 1.83,-0.26 2.75,-0.66 6.34,-2.49 10.8,-5.45 4.4,-2.94 8.67,-5.9 12.76,-8.94 0.08,0 0.13,0.05 0.16,0.1 0.05,0.06 0.08,0.11 0.08,0.14 0,0.07 -0.13,0.21 -0.37,0.39 -4.51,3.64 -9.49,7.21 -14.88,10.66 -1.86,1.21 -3.83,2.23 -5.85,3.12 -1.26,0.55 -2.57,0.92 -3.93,1.1 -0.21,0.03 -0.44,0.03 -0.65,0.03 z"
     style="fill:none;fill-opacity:1;stroke:#ffffff;stroke-opacity:1" /><path
     id="_6"
     class="fil0"
     d="m 105.37,70.41 c 0.39,-0.03 0.76,-0.13 1.1,-0.32 1.26,-0.63 2.41,-1.41 3.46,-2.36 0.05,-0.02 0.08,-0.1 0.13,-0.15 -0.21,-0.29 -0.5,-0.42 -0.86,-0.42 -1.84,0.08 -3.18,0.86 -4.09,2.38 -0.13,0.19 -0.19,0.4 -0.19,0.58 0,0.18 0.13,0.29 0.34,0.29 z m -0.39,0.71 c -0.55,0 -0.84,-0.24 -0.84,-0.71 0,-0.68 0.39,-1.42 1.12,-2.23 0.74,-0.81 1.55,-1.31 2.42,-1.47 0.49,-0.1 0.89,-0.15 1.23,-0.15 0.6,0 1.07,0.2 1.41,0.6 0.11,0 0.19,-0.08 0.29,-0.16 0.16,-0.16 0.26,-0.21 0.34,-0.21 0.05,0 0.13,0.03 0.21,0.13 0.03,0.03 0.03,0.05 0.03,0.08 0,0.11 -0.06,0.24 -0.21,0.42 -0.19,0.29 -0.4,0.66 -0.66,1.13 -0.31,0.6 -0.47,1.07 -0.47,1.39 0,0.21 0.08,0.34 0.29,0.34 0.5,0 1.57,-0.48 3.2,-1.42 0.65,-0.39 1.17,-0.71 1.54,-0.97 0.24,-0.13 0.37,-0.21 0.45,-0.21 0.05,0 0.08,0.03 0.08,0.11 0,0.13 -0.06,0.21 -0.21,0.31 -0.82,0.66 -1.65,1.21 -2.55,1.7 -1.18,0.69 -2.14,1.05 -2.9,1.05 -0.55,0 -0.84,-0.21 -0.84,-0.57 0,-0.27 0.13,-0.69 0.39,-1.29 -1.7,1.36 -3.04,2.07 -4.01,2.1 z"
     style="fill:none;fill-opacity:1;stroke:#ffffff;stroke-opacity:1" /><path
     id="_7"
     class="fil0"
     d="m 116.15,75.91 c 0.08,0 0.16,-0.03 0.29,-0.08 0.29,-0.1 0.55,-0.29 0.79,-0.5 1.54,-1.28 2.7,-2.85 3.48,-4.74 0.03,-0.03 0.03,-0.08 0.03,-0.13 0,-0.05 -0.03,-0.08 -0.11,-0.08 -0.05,0 -0.13,0.05 -0.21,0.13 -1.8,1.1 -3.19,2.39 -4.14,3.88 -0.26,0.42 -0.42,0.79 -0.42,1.15 0,0.24 0.11,0.37 0.29,0.37 z m 0.08,0.63 c -0.55,0 -0.84,-0.26 -0.89,-0.76 0,-0.34 0.05,-0.63 0.16,-0.87 0.23,-0.6 0.57,-1.15 1.02,-1.65 1.15,-1.39 2.52,-2.51 4.09,-3.4 0.57,-0.29 0.86,-1.16 0.86,-2.54 0,-1.08 -0.34,-1.63 -1.02,-1.63 -0.16,0 -0.34,0.05 -0.55,0.11 -0.39,0.15 -0.73,0.36 -1.05,0.62 -1.65,1.52 -2.99,3.31 -3.98,5.3 l -0.32,0.78 c -0.02,0.11 -0.1,0.16 -0.18,0.16 -0.16,-0.03 -0.21,-0.1 -0.21,-0.21 0,-0.23 0,-0.39 0.03,-0.5 0.34,-2.41 0.86,-4.74 1.52,-7.07 0.76,-2.83 1.7,-5.64 2.8,-8.36 1.26,-3.22 2.52,-5.69 3.8,-7.44 0.21,-0.27 0.45,-0.5 0.71,-0.71 0.1,-0.08 0.21,-0.13 0.34,-0.13 0.1,0 0.21,0.02 0.31,0.1 0.13,0.11 0.19,0.24 0.19,0.4 0,0.07 0,0.13 -0.03,0.21 -0.1,0.26 -0.24,0.52 -0.39,0.78 -0.47,0.74 -1.02,1.42 -1.6,2.05 -0.29,0.31 -0.5,0.68 -0.71,1.04 -1.26,2.7 -2.36,5.43 -3.33,8.23 -0.94,2.7 -1.73,5.45 -2.41,8.2 -0.02,0.16 -0.05,0.27 -0.05,0.32 0,0.05 0.03,0.08 0.03,0.08 0.05,0 0.15,-0.08 0.26,-0.26 1.7,-2.55 3.2,-3.99 4.51,-4.28 0.13,-0.02 0.26,-0.02 0.36,-0.02 0.68,0 1.18,0.34 1.5,1.02 0.15,0.42 0.21,0.81 0.21,1.23 0,0.58 -0.03,1.13 -0.11,1.63 0.42,-0.19 1.23,-0.48 2.49,-0.87 0.47,-0.16 0.87,-0.26 1.13,-0.34 0.02,0 0.05,0 0.08,0 0.02,-0.03 0.05,-0.03 0.07,-0.03 0.06,-0.02 0.14,-0.05 0.21,-0.05 0.11,0 0.19,0.05 0.21,0.16 0,0.16 -0.1,0.24 -0.31,0.29 0,0 0,0 -0.03,0 -1.12,0.34 -2.07,0.65 -2.8,0.97 -0.29,0.08 -0.58,0.21 -0.81,0.36 -0.26,0.16 -0.45,0.37 -0.58,0.69 -0.58,1.88 -1.6,3.53 -3.01,4.95 -0.5,0.5 -1.05,0.92 -1.68,1.23 -0.26,0.16 -0.55,0.21 -0.84,0.21 z"
     style="fill:none;fill-opacity:1;stroke:#ffffff;stroke-opacity:1" /><path
     id="_8"
     class="fil0"
     d="m 125.59,70.41 c 0.39,-0.03 0.76,-0.13 1.1,-0.32 1.25,-0.63 2.41,-1.41 3.46,-2.36 0.05,-0.02 0.07,-0.1 0.13,-0.15 -0.21,-0.29 -0.5,-0.42 -0.87,-0.42 -1.83,0.08 -3.17,0.86 -4.09,2.38 -0.13,0.19 -0.18,0.4 -0.18,0.58 0,0.18 0.13,0.29 0.34,0.29 z m -0.4,0.71 c -0.55,0 -0.84,-0.24 -0.84,-0.71 0,-0.68 0.4,-1.42 1.13,-2.23 0.74,-0.81 1.55,-1.31 2.41,-1.47 0.5,-0.1 0.89,-0.15 1.23,-0.15 0.61,0 1.08,0.2 1.42,0.6 0.1,0 0.18,-0.08 0.29,-0.16 0.15,-0.16 0.26,-0.21 0.34,-0.21 0.05,0 0.13,0.03 0.21,0.13 0.02,0.03 0.02,0.05 0.02,0.08 0,0.11 -0.05,0.24 -0.21,0.42 -0.18,0.29 -0.39,0.66 -0.65,1.13 -0.32,0.6 -0.47,1.07 -0.47,1.39 0,0.21 0.08,0.34 0.29,0.34 0.49,0 1.57,-0.48 3.19,-1.42 0.66,-0.39 1.18,-0.71 1.55,-0.97 0.23,-0.13 0.37,-0.21 0.44,-0.21 0.06,0 0.08,0.03 0.08,0.11 0,0.13 -0.05,0.21 -0.21,0.31 -0.81,0.66 -1.65,1.21 -2.54,1.7 -1.18,0.69 -2.15,1.05 -2.91,1.05 -0.55,0 -0.84,-0.21 -0.84,-0.57 0,-0.27 0.14,-0.69 0.4,-1.29 -1.71,1.36 -3.04,2.07 -4.01,2.1 z"
     style="fill:none;fill-opacity:1;stroke:#ffffff;stroke-opacity:1" /><path
     id="_9"
     class="fil0"
     d="m 133.62,71.77 c -0.05,0 -0.13,-0.03 -0.21,-0.05 -0.13,-0.11 -0.21,-0.21 -0.21,-0.34 0,-0.13 0.08,-0.32 0.18,-0.55 0.71,-1.31 1.44,-2.57 2.26,-3.8 0.21,-0.32 0.39,-0.5 0.49,-0.5 0.06,0 0.11,0.03 0.16,0.08 0.05,0.05 0.08,0.1 0.08,0.15 0,0.08 -0.47,1.08 -1.47,2.97 0.13,-0.06 0.29,-0.14 0.45,-0.29 1.02,-0.87 2.17,-1.71 3.4,-2.54 0.24,-0.16 0.48,-0.29 0.71,-0.4 0.05,-0.02 0.13,-0.02 0.16,-0.02 0.08,0 0.16,0.02 0.21,0.05 0.1,0.08 0.16,0.18 0.16,0.29 0,0.08 -0.11,0.29 -0.27,0.65 -0.68,1.31 -1.04,2.28 -1.1,2.86 0,0.21 0.13,0.31 0.34,0.31 0.34,-0.02 0.69,-0.13 1.03,-0.34 0.91,-0.52 1.8,-1.23 2.64,-2.12 0.29,-0.31 0.47,-0.5 0.58,-0.5 0.1,0 0.18,0.08 0.18,0.19 0,0.05 -0.08,0.18 -0.23,0.36 -0.79,0.92 -1.71,1.76 -2.68,2.49 -0.36,0.29 -0.78,0.5 -1.23,0.63 -0.15,0.03 -0.29,0.05 -0.42,0.05 -0.26,0 -0.49,-0.08 -0.68,-0.23 -0.23,-0.19 -0.34,-0.47 -0.34,-0.84 0.03,-0.58 0.24,-1.18 0.6,-1.81 0.13,-0.26 0.29,-0.55 0.48,-0.84 l 0.23,-0.44 c -0.21,0.08 -0.39,0.18 -0.52,0.28 -1.57,1.16 -3.04,2.42 -4.38,3.8 0,0.03 -0.03,0.06 -0.05,0.08 -0.24,0.24 -0.42,0.37 -0.55,0.37 z"
     style="fill:none;fill-opacity:1;stroke:#ffffff;stroke-opacity:1" /><path
     id="_10"
     class="fil0"
     d="m 142.61,70.41 c 0.39,-0.03 0.76,-0.13 1.1,-0.32 1.26,-0.63 2.41,-1.41 3.46,-2.36 0.05,-0.02 0.07,-0.1 0.13,-0.15 -0.21,-0.29 -0.5,-0.42 -0.87,-0.42 -1.83,0.08 -3.17,0.86 -4.09,2.38 -0.13,0.19 -0.18,0.4 -0.18,0.58 0,0.18 0.13,0.29 0.34,0.29 z m -0.4,0.71 c -0.55,0 -0.83,-0.24 -0.83,-0.71 0,-0.68 0.39,-1.42 1.12,-2.23 0.74,-0.81 1.55,-1.31 2.41,-1.47 0.5,-0.1 0.89,-0.15 1.23,-0.15 0.61,0 1.08,0.2 1.42,0.6 0.1,0 0.18,-0.08 0.29,-0.16 0.15,-0.16 0.26,-0.21 0.34,-0.21 0.05,0 0.13,0.03 0.21,0.13 0.02,0.03 0.02,0.05 0.02,0.08 0,0.11 -0.05,0.24 -0.21,0.42 -0.18,0.29 -0.39,0.66 -0.65,1.13 -0.32,0.6 -0.47,1.07 -0.47,1.39 0,0.21 0.08,0.34 0.29,0.34 0.49,0 1.57,-0.48 3.19,-1.42 0.66,-0.39 1.18,-0.71 1.55,-0.97 0.23,-0.13 0.37,-0.21 0.44,-0.21 0.06,0 0.08,0.03 0.08,0.11 0,0.13 -0.05,0.21 -0.21,0.31 -0.81,0.66 -1.65,1.21 -2.54,1.7 -1.18,0.69 -2.15,1.05 -2.91,1.05 -0.55,0 -0.84,-0.21 -0.84,-0.57 0,-0.27 0.14,-0.69 0.4,-1.29 -1.71,1.36 -3.04,2.07 -4.01,2.1 z"
     style="fill:none;fill-opacity:1;stroke:#ffffff;stroke-opacity:1" /><path
     id="_11"
     class="fil1 str0"
     d="m 14.28,88.96 c -0.45,0 -0.81,-0.26 -1.1,-0.76 -0.29,-0.6 -0.45,-1.26 -0.47,-1.94 v -1.65 c 0.05,-1.89 0.23,-3.75 0.55,-5.58 1.1,-6.66 2.99,-14.52 5.68,-23.56 1.03,-3.35 1.71,-6.18 2.08,-8.54 0.05,-0.19 0.07,-0.4 0.07,-0.61 0,-0.81 -0.21,-1.23 -0.63,-1.23 -0.1,0 -0.18,0.03 -0.28,0.08 -0.45,0.16 -0.87,0.42 -1.24,0.74 -0.91,0.76 -1.75,1.57 -2.51,2.49 -1.97,2.27 -3.77,4.71 -5.43,7.25 -3.85,5.9 -6.78,12.22 -8.83,18.98 -0.44,1.54 -0.81,3.11 -1.07,4.71 -0.08,0.61 -0.13,1.21 -0.13,1.81 0,0.26 0,0.5 0.02,0.74 0,0.1 -0.02,0.2 -0.05,0.31 -0.02,0.03 -0.08,0.03 -0.13,0.03 -0.03,0 -0.05,0 -0.05,0 C 0.65,82.15 0.6,82.07 0.57,81.96 0.55,81.81 0.52,81.49 0.52,80.99 c 0,-1.12 0.13,-2.22 0.37,-3.32 0.6,-2.99 1.44,-5.87 2.57,-8.68 2.7,-7.1 6.42,-13.65 11.13,-19.63 0.84,-1.12 1.79,-2.17 2.78,-3.14 0.61,-0.66 1.29,-1.21 2.07,-1.65 0.42,-0.24 0.79,-0.34 1.13,-0.34 0.86,0 1.34,0.68 1.39,2.07 0,0.81 -0.11,1.6 -0.32,2.38 -0.52,2.47 -1.1,4.72 -1.75,6.74 -3.12,10.56 -5.11,19.1 -6.03,25.68 -0.18,1.34 -0.26,2.67 -0.26,4.01 0,0.92 0.05,1.68 0.21,2.25 0.13,0.45 0.31,0.66 0.55,0.66 0.05,0 0.1,0 0.18,-0.03 0.26,-0.13 0.5,-0.31 0.68,-0.55 0.97,-1.1 2.15,-3.07 3.52,-5.87 3.51,-7.13 6.15,-12.45 7.91,-15.93 4.01,-8.02 8.2,-15.91 12.58,-23.72 0.47,-0.81 0.78,-1.26 0.89,-1.28 h 0.13 c 0.13,0 0.21,0.05 0.21,0.21 0,0.1 -0.18,0.55 -0.58,1.33 -3.69,6.92 -6.02,11.33 -6.99,13.19 -4.07,7.8 -8.15,15.95 -12.24,24.42 -2.44,5.11 -4.27,8.07 -5.53,8.93 -0.32,0.16 -0.58,0.24 -0.84,0.24 z"
     style="fill:none;fill-opacity:1;stroke:#ffffff;stroke-opacity:1" /><path
     id="_12"
     class="fil1 str0"
     d="m 32.85,70.67 c 0.23,0 0.47,-0.16 0.76,-0.45 0.42,-0.44 0.73,-0.99 0.94,-1.57 0.08,-0.21 0.13,-0.44 0.13,-0.68 -0.37,-0.18 -0.6,-0.55 -0.73,-1.05 -0.26,0.03 -0.5,0.16 -0.66,0.37 -0.63,0.73 -0.97,1.57 -0.97,2.54 0,0.03 0,0.03 0,0.05 0.03,0.16 0.05,0.29 0.11,0.42 0.08,0.24 0.23,0.37 0.42,0.37 z m -0.21,0.58 c -0.34,0 -0.63,-0.19 -0.84,-0.55 -0.13,-0.32 -0.21,-0.61 -0.21,-0.92 0,-1 0.34,-1.89 0.97,-2.73 0.23,-0.31 0.52,-0.57 0.92,-0.73 0.13,-0.05 0.28,-0.08 0.39,-0.08 0.42,0 0.78,0.21 1.07,0.58 0.19,0.23 0.29,0.52 0.29,0.84 0.29,0.18 0.63,0.28 1,0.28 0.47,0 0.86,-0.07 1.23,-0.23 0.02,0 0.05,-0.03 0.1,-0.03 0.06,0 0.08,0.03 0.08,0.08 0,0.08 -0.02,0.13 -0.1,0.16 -0.34,0.26 -0.84,0.36 -1.5,0.36 -0.42,0 -0.7,-0.05 -0.89,-0.1 -0.18,0.86 -0.57,1.6 -1.15,2.25 -0.21,0.29 -0.5,0.53 -0.81,0.69 -0.21,0.1 -0.4,0.13 -0.55,0.13 z"
     style="fill:none;fill-opacity:1;stroke:#ffffff;stroke-opacity:1" /><path
     id="_13"
     class="fil1 str0"
     d="m 39.32,68.08 c 0.84,0 1.44,-0.27 1.81,-0.74 -0.21,-0.02 -0.39,-0.05 -0.55,-0.05 -0.65,0 -1.34,0.23 -2.02,0.73 0.27,0.03 0.53,0.06 0.76,0.06 z m -0.6,3.17 h -0.21 c -0.84,0 -1.44,-0.16 -1.83,-0.45 -0.29,-0.26 -0.42,-0.63 -0.42,-1.07 0,-0.61 0.23,-1.16 0.73,-1.63 1,-1.02 2.15,-1.54 3.46,-1.62 0.24,0 0.5,0.02 0.73,0.1 0.42,0.13 0.63,0.39 0.63,0.76 0,0.24 -0.13,0.45 -0.36,0.66 -0.48,0.36 -1.03,0.57 -1.63,0.65 l -0.47,0.03 c -0.08,0 -0.13,0 -0.18,0 -0.45,0 -0.82,-0.03 -1.1,-0.11 h -0.14 c -0.13,0 -0.26,0.06 -0.34,0.16 -0.23,0.31 -0.36,0.66 -0.36,1 0,0.21 0.08,0.42 0.26,0.57 0.21,0.19 0.5,0.26 0.81,0.26 0.37,0 0.68,-0.02 0.94,-0.07 1.6,-0.34 3.31,-1.05 5.17,-2.13 0.63,-0.39 0.99,-0.6 1.05,-0.65 0.02,-0.03 0.07,-0.03 0.1,-0.03 0,0 0.03,0 0.05,0 0.03,0.03 0.06,0.05 0.08,0.08 0.03,0.03 0.05,0.05 0.05,0.11 0,0.02 -0.02,0.07 -0.05,0.1 -0.02,0.08 -0.47,0.42 -1.34,1.02 -0.89,0.6 -2.12,1.21 -3.69,1.78 -0.03,0 -0.05,0 -0.08,0.03 -0.6,0.24 -1.2,0.37 -1.86,0.45 z"
     style="fill:none;fill-opacity:1;stroke:#ffffff;stroke-opacity:1" /><path
     id="_14"
     class="fil1 str0"
     d="m 42.74,74.39 c -0.11,0 -0.24,-0.05 -0.34,-0.1 -0.16,-0.11 -0.21,-0.19 -0.24,-0.27 0,-0.08 0,-0.13 0,-0.15 0,-0.27 0.11,-0.61 0.32,-1.05 0.99,-2.1 2.12,-4.14 3.32,-6.11 0.56,-0.84 1.03,-1.49 1.45,-1.88 0.13,-0.14 0.23,-0.21 0.34,-0.21 0.05,0 0.13,0.02 0.18,0.07 0.08,0.08 0.11,0.16 0.11,0.24 -0.03,0.13 -0.14,0.31 -0.32,0.6 -1.34,2.13 -2.59,4.33 -3.77,6.66 -0.13,0.18 -0.19,0.34 -0.19,0.5 0.13,-0.06 0.27,-0.13 0.37,-0.24 0.03,-0.05 0.11,-0.1 0.18,-0.18 2.31,-2.1 4.56,-3.96 6.77,-5.61 0.13,-0.08 0.2,-0.13 0.28,-0.13 0.06,0 0.11,0.03 0.16,0.05 0.16,0.11 0.24,0.24 0.24,0.39 0,0.21 -0.11,0.74 -0.34,1.52 -0.19,0.82 -0.27,1.37 -0.27,1.63 0,0.21 0.08,0.31 0.24,0.31 0.05,0 0.18,-0.05 0.34,-0.13 0.63,-0.34 1.21,-0.73 1.76,-1.18 1.17,-0.91 2.3,-1.88 3.4,-2.91 0.68,-0.62 1.08,-0.97 1.13,-0.99 0.08,-0.03 0.13,-0.03 0.16,-0.03 0.05,0 0.13,0.03 0.18,0.08 0.08,0.05 0.13,0.13 0.13,0.21 -0.03,0.08 -0.44,1 -1.28,2.75 -0.24,0.47 -0.37,0.92 -0.4,1.36 0,0.21 0.13,0.35 0.42,0.35 0.5,0 0.95,-0.08 1.34,-0.19 1.34,-0.42 2.59,-0.97 3.8,-1.65 0.5,-0.29 0.76,-0.42 0.84,-0.42 0.05,0 0.08,0.03 0.13,0.08 0.03,0.05 0.05,0.08 0.05,0.13 0,0.05 -0.05,0.13 -0.18,0.21 -0.03,0.03 -0.05,0.03 -0.08,0.05 -0.03,0.03 -0.05,0.06 -0.11,0.08 -1.2,0.74 -2.43,1.39 -3.72,1.97 -0.84,0.36 -1.54,0.55 -2.12,0.55 -0.79,0 -1.2,-0.34 -1.28,-1.02 0,-0.42 0.08,-0.82 0.21,-1.13 0.18,-0.47 0.39,-0.97 0.6,-1.49 -0.11,0.05 -0.21,0.13 -0.34,0.23 -0.13,0.13 -0.37,0.34 -0.74,0.68 -1.2,1.16 -2.33,2.13 -3.4,2.86 -0.4,0.29 -0.76,0.44 -1.1,0.44 -0.58,0 -0.87,-0.44 -0.87,-1.33 0,-0.32 0.16,-1.1 0.47,-2.36 -0.21,0.1 -0.36,0.21 -0.52,0.34 -1.68,1.44 -3.33,2.94 -4.9,4.43 -0.97,0.94 -1.62,1.54 -1.99,1.81 -0.13,0.1 -0.29,0.18 -0.42,0.18 z"
     style="fill:none;fill-opacity:1;stroke:#ffffff;stroke-opacity:1" /><path
     id="_15"
     class="fil1 str0"
     d="M 64.5,66.21 C 64.39,66.19 64.29,66.16 64.21,66.06 64.16,65.98 64.1,65.9 64.1,65.8 c 0,-0.11 0.06,-0.21 0.14,-0.29 0.07,-0.08 0.18,-0.11 0.28,-0.11 0.11,0.03 0.21,0.05 0.27,0.13 0.07,0.08 0.1,0.19 0.1,0.29 0,0.11 -0.05,0.18 -0.13,0.26 -0.08,0.08 -0.16,0.11 -0.26,0.13 z m -1.39,4.41 c -0.32,0 -0.53,-0.08 -0.6,-0.24 -0.08,-0.05 -0.13,-0.26 -0.13,-0.58 0,-0.65 0.28,-1.38 0.83,-2.22 0.11,-0.21 0.27,-0.32 0.48,-0.34 0.1,0 0.18,0.02 0.23,0.08 0.05,0.05 0.08,0.1 0.08,0.18 0,0.05 -0.03,0.16 -0.13,0.34 -0.45,0.86 -0.66,1.49 -0.66,1.94 v 0.16 c 0.06,0.02 0.13,0.05 0.24,0.05 0.37,0 1.34,-0.29 2.96,-0.87 0.63,-0.26 1.6,-0.7 2.91,-1.39 0.1,-0.02 0.18,-0.05 0.29,-0.05 0.18,0 0.26,0.05 0.26,0.13 0,0.13 -0.39,0.42 -1.21,0.82 -0.68,0.36 -1.36,0.68 -2.04,0.94 -1.68,0.71 -2.86,1.05 -3.51,1.05 z"
     style="fill:none;fill-opacity:1;stroke:#ffffff;stroke-opacity:1" /><path
     id="_16"
     class="fil1 str0"
     d="m 80.53,83.17 c -0.29,0 -0.58,-0.03 -0.89,-0.05 -1.92,-0.29 -3.15,-1.34 -3.65,-3.23 -0.15,-0.57 -0.23,-1.18 -0.23,-1.78 0.08,-2.17 0.65,-4.61 1.78,-7.31 1.44,-3.48 3.41,-6.63 5.87,-9.46 3.83,-4.43 8.25,-8.07 13.34,-10.95 1.91,-1.08 3.88,-1.94 5.97,-2.6 0.71,-0.21 1.42,-0.36 2.15,-0.47 0.18,-0.03 0.34,-0.03 0.5,-0.03 0.26,0 0.55,0.03 0.81,0.11 0.94,0.23 1.42,0.89 1.42,1.91 0,0.84 -0.32,1.84 -0.97,2.96 -1.26,2.2 -2.78,4.27 -4.51,6.21 -0.31,0.4 -0.63,0.69 -1.02,0.87 -0.13,0 -0.21,-0.05 -0.21,-0.13 0,-0.08 0.08,-0.21 0.23,-0.37 1.73,-1.73 3.38,-3.96 4.9,-6.63 0.27,-0.5 0.5,-1.02 0.69,-1.55 0.18,-0.52 0.28,-0.94 0.28,-1.25 0,-0.34 -0.1,-0.63 -0.36,-0.92 -0.29,-0.29 -0.5,-0.45 -0.71,-0.45 -0.52,0 -0.97,0.06 -1.31,0.14 -0.47,0.05 -1.08,0.23 -1.86,0.49 -1.76,0.58 -3.43,1.34 -5.06,2.23 -5.58,3.07 -10.4,7.08 -14.41,12.03 -2.73,3.3 -4.69,7.02 -5.92,11.14 -0.42,1.36 -0.66,2.72 -0.69,4.06 0,0.65 0.11,1.28 0.32,1.91 0.55,1.47 1.73,2.23 3.59,2.23 0.63,0 1.23,-0.11 1.83,-0.26 2.75,-0.66 6.34,-2.49 10.8,-5.45 4.4,-2.94 8.67,-5.9 12.76,-8.94 0.08,0 0.13,0.05 0.16,0.1 0.05,0.06 0.08,0.11 0.08,0.14 0,0.07 -0.13,0.21 -0.37,0.39 -4.51,3.64 -9.49,7.21 -14.88,10.66 -1.86,1.21 -3.83,2.23 -5.85,3.12 -1.26,0.55 -2.57,0.92 -3.93,1.1 -0.21,0.03 -0.44,0.03 -0.65,0.03 z"
     style="fill:none;fill-opacity:1;stroke:#ffffff;stroke-opacity:1" /><path
     id="_17"
     class="fil1 str0"
     d="m 105.37,70.41 c 0.39,-0.03 0.76,-0.13 1.1,-0.32 1.26,-0.63 2.41,-1.41 3.46,-2.36 0.05,-0.02 0.08,-0.1 0.13,-0.15 -0.21,-0.29 -0.5,-0.42 -0.86,-0.42 -1.84,0.08 -3.18,0.86 -4.09,2.38 -0.13,0.19 -0.19,0.4 -0.19,0.58 0,0.18 0.13,0.29 0.34,0.29 z m -0.39,0.71 c -0.55,0 -0.84,-0.24 -0.84,-0.71 0,-0.68 0.39,-1.42 1.12,-2.23 0.74,-0.81 1.55,-1.31 2.42,-1.47 0.49,-0.1 0.89,-0.15 1.23,-0.15 0.6,0 1.07,0.2 1.41,0.6 0.11,0 0.19,-0.08 0.29,-0.16 0.16,-0.16 0.26,-0.21 0.34,-0.21 0.05,0 0.13,0.03 0.21,0.13 0.03,0.03 0.03,0.05 0.03,0.08 0,0.11 -0.06,0.24 -0.21,0.42 -0.19,0.29 -0.4,0.66 -0.66,1.13 -0.31,0.6 -0.47,1.07 -0.47,1.39 0,0.21 0.08,0.34 0.29,0.34 0.5,0 1.57,-0.48 3.2,-1.42 0.65,-0.39 1.17,-0.71 1.54,-0.97 0.24,-0.13 0.37,-0.21 0.45,-0.21 0.05,0 0.08,0.03 0.08,0.11 0,0.13 -0.06,0.21 -0.21,0.31 -0.82,0.66 -1.65,1.21 -2.55,1.7 -1.18,0.69 -2.14,1.05 -2.9,1.05 -0.55,0 -0.84,-0.21 -0.84,-0.57 0,-0.27 0.13,-0.69 0.39,-1.29 -1.7,1.36 -3.04,2.07 -4.01,2.1 z"
     style="fill:none;fill-opacity:1;stroke:#ffffff;stroke-opacity:1" /><path
     id="_18"
     class="fil1 str0"
     d="m 116.15,75.91 c 0.08,0 0.16,-0.03 0.29,-0.08 0.29,-0.1 0.55,-0.29 0.79,-0.5 1.54,-1.28 2.7,-2.85 3.48,-4.74 0.03,-0.03 0.03,-0.08 0.03,-0.13 0,-0.05 -0.03,-0.08 -0.11,-0.08 -0.05,0 -0.13,0.05 -0.21,0.13 -1.8,1.1 -3.19,2.39 -4.14,3.88 -0.26,0.42 -0.42,0.79 -0.42,1.15 0,0.24 0.11,0.37 0.29,0.37 z m 0.08,0.63 c -0.55,0 -0.84,-0.26 -0.89,-0.76 0,-0.34 0.05,-0.63 0.16,-0.87 0.23,-0.6 0.57,-1.15 1.02,-1.65 1.15,-1.39 2.52,-2.51 4.09,-3.4 0.57,-0.29 0.86,-1.16 0.86,-2.54 0,-1.08 -0.34,-1.63 -1.02,-1.63 -0.16,0 -0.34,0.05 -0.55,0.11 -0.39,0.15 -0.73,0.36 -1.05,0.62 -1.65,1.52 -2.99,3.31 -3.98,5.3 l -0.32,0.78 c -0.02,0.11 -0.1,0.16 -0.18,0.16 -0.16,-0.03 -0.21,-0.1 -0.21,-0.21 0,-0.23 0,-0.39 0.03,-0.5 0.34,-2.41 0.86,-4.74 1.52,-7.07 0.76,-2.83 1.7,-5.64 2.8,-8.36 1.26,-3.22 2.52,-5.69 3.8,-7.44 0.21,-0.27 0.45,-0.5 0.71,-0.71 0.1,-0.08 0.21,-0.13 0.34,-0.13 0.1,0 0.21,0.02 0.31,0.1 0.13,0.11 0.19,0.24 0.19,0.4 0,0.07 0,0.13 -0.03,0.21 -0.1,0.26 -0.24,0.52 -0.39,0.78 -0.47,0.74 -1.02,1.42 -1.6,2.05 -0.29,0.31 -0.5,0.68 -0.71,1.04 -1.26,2.7 -2.36,5.43 -3.33,8.23 -0.94,2.7 -1.73,5.45 -2.41,8.2 -0.02,0.16 -0.05,0.27 -0.05,0.32 0,0.05 0.03,0.08 0.03,0.08 0.05,0 0.15,-0.08 0.26,-0.26 1.7,-2.55 3.2,-3.99 4.51,-4.28 0.13,-0.02 0.26,-0.02 0.36,-0.02 0.68,0 1.18,0.34 1.5,1.02 0.15,0.42 0.21,0.81 0.21,1.23 0,0.58 -0.03,1.13 -0.11,1.63 0.42,-0.19 1.23,-0.48 2.49,-0.87 0.47,-0.16 0.87,-0.26 1.13,-0.34 0.02,0 0.05,0 0.08,0 0.02,-0.03 0.05,-0.03 0.07,-0.03 0.06,-0.02 0.14,-0.05 0.21,-0.05 0.11,0 0.19,0.05 0.21,0.16 0,0.16 -0.1,0.24 -0.31,0.29 0,0 0,0 -0.03,0 -1.12,0.34 -2.07,0.65 -2.8,0.97 -0.29,0.08 -0.58,0.21 -0.81,0.36 -0.26,0.16 -0.45,0.37 -0.58,0.69 -0.58,1.88 -1.6,3.53 -3.01,4.95 -0.5,0.5 -1.05,0.92 -1.68,1.23 -0.26,0.16 -0.55,0.21 -0.84,0.21 z"
     style="fill:none;fill-opacity:1;stroke:#ffffff;stroke-opacity:1" /><path
     id="_19"
     class="fil1 str0"
     d="m 125.59,70.41 c 0.39,-0.03 0.76,-0.13 1.1,-0.32 1.25,-0.63 2.41,-1.41 3.46,-2.36 0.05,-0.02 0.07,-0.1 0.13,-0.15 -0.21,-0.29 -0.5,-0.42 -0.87,-0.42 -1.83,0.08 -3.17,0.86 -4.09,2.38 -0.13,0.19 -0.18,0.4 -0.18,0.58 0,0.18 0.13,0.29 0.34,0.29 z m -0.4,0.71 c -0.55,0 -0.84,-0.24 -0.84,-0.71 0,-0.68 0.4,-1.42 1.13,-2.23 0.74,-0.81 1.55,-1.31 2.41,-1.47 0.5,-0.1 0.89,-0.15 1.23,-0.15 0.61,0 1.08,0.2 1.42,0.6 0.1,0 0.18,-0.08 0.29,-0.16 0.15,-0.16 0.26,-0.21 0.34,-0.21 0.05,0 0.13,0.03 0.21,0.13 0.02,0.03 0.02,0.05 0.02,0.08 0,0.11 -0.05,0.24 -0.21,0.42 -0.18,0.29 -0.39,0.66 -0.65,1.13 -0.32,0.6 -0.47,1.07 -0.47,1.39 0,0.21 0.08,0.34 0.29,0.34 0.49,0 1.57,-0.48 3.19,-1.42 0.66,-0.39 1.18,-0.71 1.55,-0.97 0.23,-0.13 0.37,-0.21 0.44,-0.21 0.06,0 0.08,0.03 0.08,0.11 0,0.13 -0.05,0.21 -0.21,0.31 -0.81,0.66 -1.65,1.21 -2.54,1.7 -1.18,0.69 -2.15,1.05 -2.91,1.05 -0.55,0 -0.84,-0.21 -0.84,-0.57 0,-0.27 0.14,-0.69 0.4,-1.29 -1.71,1.36 -3.04,2.07 -4.01,2.1 z"
     style="fill:none;fill-opacity:1;stroke:#ffffff;stroke-opacity:1" /><path
     id="_20"
     class="fil1 str0"
     d="m 133.62,71.77 c -0.05,0 -0.13,-0.03 -0.21,-0.05 -0.13,-0.11 -0.21,-0.21 -0.21,-0.34 0,-0.13 0.08,-0.32 0.18,-0.55 0.71,-1.31 1.44,-2.57 2.26,-3.8 0.21,-0.32 0.39,-0.5 0.49,-0.5 0.06,0 0.11,0.03 0.16,0.08 0.05,0.05 0.08,0.1 0.08,0.15 0,0.08 -0.47,1.08 -1.47,2.97 0.13,-0.06 0.29,-0.14 0.45,-0.29 1.02,-0.87 2.17,-1.71 3.4,-2.54 0.24,-0.16 0.48,-0.29 0.71,-0.4 0.05,-0.02 0.13,-0.02 0.16,-0.02 0.08,0 0.16,0.02 0.21,0.05 0.1,0.08 0.16,0.18 0.16,0.29 0,0.08 -0.11,0.29 -0.27,0.65 -0.68,1.31 -1.04,2.28 -1.1,2.86 0,0.21 0.13,0.31 0.34,0.31 0.34,-0.02 0.69,-0.13 1.03,-0.34 0.91,-0.52 1.8,-1.23 2.64,-2.12 0.29,-0.31 0.47,-0.5 0.58,-0.5 0.1,0 0.18,0.08 0.18,0.19 0,0.05 -0.08,0.18 -0.23,0.36 -0.79,0.92 -1.71,1.76 -2.68,2.49 -0.36,0.29 -0.78,0.5 -1.23,0.63 -0.15,0.03 -0.29,0.05 -0.42,0.05 -0.26,0 -0.49,-0.08 -0.68,-0.23 -0.23,-0.19 -0.34,-0.47 -0.34,-0.84 0.03,-0.58 0.24,-1.18 0.6,-1.81 0.13,-0.26 0.29,-0.55 0.48,-0.84 l 0.23,-0.44 c -0.21,0.08 -0.39,0.18 -0.52,0.28 -1.57,1.16 -3.04,2.42 -4.38,3.8 0,0.03 -0.03,0.06 -0.05,0.08 -0.24,0.24 -0.42,0.37 -0.55,0.37 z"
     style="fill:none;fill-opacity:1;stroke:#ffffff;stroke-opacity:1" /><path
     id="_21"
     class="fil1 str0"
     d="m 142.61,70.41 c 0.39,-0.03 0.76,-0.13 1.1,-0.32 1.26,-0.63 2.41,-1.41 3.46,-2.36 0.05,-0.02 0.07,-0.1 0.13,-0.15 -0.21,-0.29 -0.5,-0.42 -0.87,-0.42 -1.83,0.08 -3.17,0.86 -4.09,2.38 -0.13,0.19 -0.18,0.4 -0.18,0.58 0,0.18 0.13,0.29 0.34,0.29 z m -0.4,0.71 c -0.55,0 -0.83,-0.24 -0.83,-0.71 0,-0.68 0.39,-1.42 1.12,-2.23 0.74,-0.81 1.55,-1.31 2.41,-1.47 0.5,-0.1 0.89,-0.15 1.23,-0.15 0.61,0 1.08,0.2 1.42,0.6 0.1,0 0.18,-0.08 0.29,-0.16 0.15,-0.16 0.26,-0.21 0.34,-0.21 0.05,0 0.13,0.03 0.21,0.13 0.02,0.03 0.02,0.05 0.02,0.08 0,0.11 -0.05,0.24 -0.21,0.42 -0.18,0.29 -0.39,0.66 -0.65,1.13 -0.32,0.6 -0.47,1.07 -0.47,1.39 0,0.21 0.08,0.34 0.29,0.34 0.49,0 1.57,-0.48 3.19,-1.42 0.66,-0.39 1.18,-0.71 1.55,-0.97 0.23,-0.13 0.37,-0.21 0.44,-0.21 0.06,0 0.08,0.03 0.08,0.11 0,0.13 -0.05,0.21 -0.21,0.31 -0.81,0.66 -1.65,1.21 -2.54,1.7 -1.18,0.69 -2.15,1.05 -2.91,1.05 -0.55,0 -0.84,-0.21 -0.84,-0.57 0,-0.27 0.14,-0.69 0.4,-1.29 -1.71,1.36 -3.04,2.07 -4.01,2.1 z"
     style="fill:none;fill-opacity:1;stroke:#ffffff;stroke-opacity:1" /></g>       <g
   id="g8"
   inkscape:label="isotipo"
   transform="translate(-126.99283,38.89849)"
   style="fill:#ffffff;fill-opacity:1"><path
     class="fil2"
     d="m 95.82,28.98 c 5.88,-0.38 11.5,-5.8 13.1,-10.98 2.6,-8.39 -2.62,-13.43 -8.8,-12.72 4.91,3.92 7.77,6.81 4.17,15.62 0.44,-2.38 -1.26,-3.76 -2.33,-5.29 0.81,8.06 -2.87,11.94 -6.14,13.37 z"
     id="path2"
     style="fill:#ffffff;fill-opacity:1" /><path
     class="fil2"
     d="m 54.01,27.4 c 0.22,1.39 0.59,5.89 4.57,7.84 3.98,1.95 11.91,1 15.81,-0.67 -2.69,0.13 -7.19,0.57 -10.62,-2.08 l 1.58,-0.97 C 63.9,30.11 62.85,30 61.84,27.67 c -3.33,-7.65 4.1,-11.32 8.04,-13 -13.94,1.11 -15.16,6.9 -15.6,8.63 0.54,2.8 1.87,4.08 4.82,6.09 -3.04,-0.21 -4.14,-1.37 -5.09,-1.99 z"
     id="path3"
     style="fill:#ffffff;fill-opacity:1" /><path
     class="fil2"
     d="m 99.81,37.33 4.03,-0.13 -0.98,-7.2 -4.73,0.18 c 1.78,0.91 2.37,4.44 1.68,7.15 z"
     id="path4"
     style="fill:#ffffff;fill-opacity:1" /><path
     class="fil2"
     d="m 79.4,33.61 c 7.09,-1.9 6.89,-3.52 6.59,-10.3 -0.93,5.15 -4.04,8.33 -6.59,10.3 z"
     id="path5"
     style="fill:#ffffff;fill-opacity:1" /><path
     class="fil2"
     d="m 112.46,17.47 c -1.21,2.71 -0.69,3.36 -5.43,8.83 -1.82,1.8 -2.27,1.23 -1.89,3.21 5.55,-1.26 8.58,-11.03 7.32,-12.04 z"
     id="path6"
     style="fill:#ffffff;fill-opacity:1" /><path
     class="fil3"
     d="m 105.14,29.51 c -0.14,-1.68 -0.2,-1.38 1.89,-3.21 2.1,-1.83 4.02,-4.83 5.43,-8.83 4.59,1.74 -1.87,10.8 -7.32,12.04 z M 108.92,18 c -1.6,5.18 -7.68,11.05 -15.13,10.87 0.01,-0.01 3.3,-5.53 0.83,-9.06 -0.92,5.73 -6.2,10.86 -9.57,11.12 0.75,0.84 14.11,-0.13 17.81,-0.93 l 0.78,5.71 C 90.12,36.22 82.21,43.68 76.13,52.58 88.4,40.33 97.34,37.55 103.89,37.75 l 0.29,2.12 C 99.01,39.59 88.04,43.42 82.21,53.43 86.98,48.27 98.84,39.8 106.85,42.67 l -1.37,-10.54 c 11.76,-4.33 13.8,-17.05 7.63,-18.3 C 113.37,-9.4 88.83,1.99 80.72,9.57 89.98,4.67 114.44,-4.7 108.92,18 Z"
     id="path7"
     style="fill:#ffffff;fill-opacity:1" /><path
     class="fil3"
     d="m 81.93,29.82 c -8.03,8.53 -30.4,10.22 -30.52,-4.43 2.07,1.7 4.92,4.03 7.69,4 -14.24,-11.29 3.66,-16.06 15.06,-15.87 5.7,0.1 11.86,0.59 15.82,-2.41 -3.26,0.94 -5.8,1.04 -9.49,0.72 C 76.8,11.52 69.4,9.72 61.54,11.79 45.22,16.1 43.27,35 59.86,39.02 c 4.92,1.19 11.45,0.35 15.69,-2.43 2.18,-1.42 5.84,-4.13 6.38,-6.77 z"
     id="path8"
     style="fill:#ffffff;fill-opacity:1" /></g> </g> </svg>
