<?xml version="1.0" encoding="UTF-8" standalone="no"?>
<!-- Generator: Adobe Illustrator 25.2.0, SVG Export Plug-In . SVG Version: 6.00 Build 0)  -->

<svg
   version="1.1"
   id="Layer_1"
   x="0px"
   y="0px"
   viewBox="0 0 208.69941 56"
   xml:space="preserve"
   width="208.6994"
   height="56"
   sodipodi:docname="prosegur.svg"
   inkscape:version="1.4.2 (ebf0e940d0, 2025-05-08)"
   xmlns:inkscape="http://www.inkscape.org/namespaces/inkscape"
   xmlns:sodipodi="http://sodipodi.sourceforge.net/DTD/sodipodi-0.dtd"
   xmlns="http://www.w3.org/2000/svg"
   xmlns:svg="http://www.w3.org/2000/svg"><sodipodi:namedview
   id="namedview1"
   pagecolor="#757575"
   bordercolor="#000000"
   borderopacity="0.25"
   inkscape:showpageshadow="2"
   inkscape:pageopacity="0.0"
   inkscape:pagecheckerboard="0"
   inkscape:deskcolor="#d1d1d1"
   inkscape:zoom="3.2968581"
   inkscape:cx="100.0953"
   inkscape:cy="17.895826"
   inkscape:window-width="1920"
   inkscape:window-height="1037"
   inkscape:window-x="1366"
   inkscape:window-y="0"
   inkscape:window-maximized="1"
   inkscape:current-layer="Layer_1" /><defs
   id="defs8" />
<style
   type="text/css"
   id="style1">
	.st0{fill:#FFD200;}
</style>

<g
   id="g8"
   style="fill:#ffffff"
   transform="matrix(1.5602094,0,0,1.5602094,-27.828337,-19.202094)">
	<path
   d="m 24.3,15.9 c -0.1,0.1 -0.1,0.3 -0.2,0.6 -0.5,1.6 -0.7,3.3 -0.6,5 l 3.8,-1.8 -2.1,-4.4 c -0.3,0.2 -0.6,0.4 -0.9,0.6 m -0.7,6.2 c 0.1,1.5 0.5,3 1.1,4.4 l 4.8,-2.2 -1.9,-4.1 z m 1.8,5.9 c 0.7,1.4 1.7,2.7 2.7,3.8 l 4,-1.9 -2,-4.2 z m 3.1,4.3 c 1.3,1.2 2.7,2.2 4.3,3 0.2,0.1 0.3,0.1 0.4,0.2 0.4,-0.1 0.8,-0.3 1.2,-0.4 l -2.1,-4.5 z m 3.9,3.3 C 30.8,34.8 29.3,33.8 28,32.5 l -3.7,1.7 c 2.3,1.6 5.2,2.1 8.1,1.4 m -4.8,-3.5 c -1.1,-1.1 -2,-2.4 -2.7,-3.8 l -4.1,1.9 -1.5,0.7 C 19.2,30.7 19.1,30.5 19,30.3 16.1,24 18.8,16.5 25.1,13.6 c 5.5,-2.6 11.5,-1.2 15,3.5 l -1.6,0.8 C 38,17.2 37.3,16.6 36.7,16.1 l -3.8,1.8 c 1,1 1.9,2.2 2.7,3.7 l 5.2,-2.4 0.5,-0.2 c 0.1,0.3 0.3,0.5 0.4,0.8 2.9,6.3 0.2,13.8 -6.1,16.7 -5.5,2.6 -11.5,1.2 -15,-3.4 l 1.5,-0.8 c 0.5,0.7 1.1,1.2 1.7,1.7 z M 24.2,26.8 C 23.6,25.4 23.3,23.9 23.1,22.4 L 19.4,24 c -0.1,1.5 0.1,3.1 0.6,4.7 z M 23,21.7 c -0.1,-1.8 0,-3.6 0.5,-5.3 -2.2,1.7 -3.6,4.2 -4,6.9 z m 9.6,8 4.2,-2 c -0.2,-1.6 -0.6,-3.1 -1.2,-4.6 l -5,2.3 z m 4.8,-2.2 3.7,-1.7 C 41.2,24.2 41,22.6 40.4,21 l -4.2,2 c 0.6,1.6 1,3.1 1.2,4.5 m 3.6,-1.1 -3.6,1.7 c 0.2,2.3 -0.1,4.2 -0.4,5.4 2.2,-1.8 3.6,-4.3 4,-7.1 m -4.1,2 -4,1.9 2.1,4.5 c 0.4,-0.2 0.9,-0.5 1.3,-0.7 0,-0.1 0.1,-0.3 0.1,-0.4 0.4,-1.8 0.6,-3.6 0.5,-5.3 m -9.1,-8.9 4,-1.8 C 30.6,16.5 29.1,15.6 27.6,14.9 27.4,14.8 27.2,14.7 27,14.7 26.6,14.8 26.2,15 25.8,15.2 Z m 4.6,-2.1 3.7,-1.7 c -2.4,-1.6 -5.3,-2 -8.2,-1.3 1,0.4 2.8,1.3 4.5,3 m -0.2,0.6 -4.1,2 1.9,4 5,-2.3 C 34.2,20.4 33.3,19.1 32.2,18 m 111.2,3 v 3.5 h 3.1 c 0.6,0 1.1,-0.1 1.4,-0.2 0.5,-0.2 0.8,-0.7 0.8,-1.5 0,-0.8 -0.3,-1.3 -0.8,-1.6 C 147.6,21 147.2,21 146.6,21 Z m 5.8,-1.9 c 0.5,0.2 0.9,0.5 1.2,0.9 0.3,0.3 0.5,0.7 0.7,1.1 0.2,0.4 0.2,0.8 0.2,1.4 0,0.6 -0.2,1.2 -0.5,1.8 -0.3,0.6 -0.8,1 -1.5,1.3 0.6,0.2 1,0.6 1.3,1 0.3,0.4 0.4,1.1 0.4,2 v 0.9 c 0,0.6 0,1 0.1,1.2 0.1,0.3 0.2,0.6 0.5,0.7 v 0.3 h -3 c -0.1,-0.3 -0.1,-0.5 -0.2,-0.7 -0.1,-0.4 -0.1,-0.7 -0.1,-1.1 v -1.2 c 0,-0.8 -0.2,-1.4 -0.5,-1.6 -0.3,-0.3 -0.8,-0.4 -1.6,-0.4 h -2.8 v 5.1 h -2.6 v -13 h 6.3 c 0.9,0 1.6,0.1 2.1,0.3 M 57.9,21.4 C 57.5,21.2 57,21 56.4,21 h -2.5 v 3.8 h 2.5 c 0.6,0 1.1,-0.2 1.5,-0.5 0.4,-0.3 0.5,-0.8 0.5,-1.5 0,-0.6 -0.2,-1.1 -0.5,-1.4 m 2,4.7 C 59.1,26.7 58,27 56.6,27 h -2.7 v 4.6 H 51.2 V 18.8 h 5.6 c 1.3,0 2.3,0.3 3.1,1 0.8,0.7 1.2,1.7 1.2,3.1 0,1.5 -0.4,2.6 -1.2,3.2 M 65.8,21 v 3.5 h 3.1 c 0.6,0 1.1,-0.1 1.4,-0.2 0.5,-0.2 0.8,-0.7 0.8,-1.5 0,-0.8 -0.3,-1.3 -0.8,-1.6 C 70,21.1 69.5,21 68.9,21 Z m 5.8,-1.9 c 0.5,0.2 0.9,0.5 1.2,0.9 0.3,0.3 0.5,0.7 0.7,1.1 0.2,0.4 0.2,0.8 0.2,1.4 0,0.6 -0.2,1.2 -0.5,1.8 -0.3,0.6 -0.8,1 -1.5,1.3 0.6,0.2 1,0.6 1.3,1 0.3,0.4 0.4,1.1 0.4,2 v 0.9 c 0,0.6 0,1 0.1,1.2 0.1,0.3 0.2,0.6 0.5,0.7 v 0.3 H 71 C 70.9,31.4 70.9,31.2 70.8,31 70.7,30.6 70.7,30.3 70.7,29.9 v -1.2 c 0,-0.8 -0.2,-1.4 -0.5,-1.6 -0.3,-0.3 -0.8,-0.4 -1.6,-0.4 h -2.8 v 5.1 h -2.6 v -13 h 6.3 c 0.9,0 1.6,0.1 2.1,0.3 m 12.7,9.5 c 0.6,-0.8 0.9,-1.9 0.9,-3.4 0,-1.4 -0.3,-2.6 -0.9,-3.3 -0.6,-0.8 -1.5,-1.2 -2.5,-1.2 -1.1,0 -1.9,0.4 -2.6,1.2 -0.6,0.8 -1,1.9 -1,3.4 0,1.5 0.3,2.6 1,3.4 0.6,0.8 1.5,1.2 2.6,1.2 1,-0.2 1.9,-0.6 2.5,-1.3 m 1.7,1.9 c -1,1 -2.4,1.5 -4.2,1.5 -1.8,0 -3.3,-0.5 -4.2,-1.5 -1.3,-1.2 -2,-3 -2,-5.3 0,-2.4 0.7,-4.1 2,-5.3 1,-1 2.4,-1.5 4.2,-1.5 1.8,0 3.2,0.5 4.2,1.5 1.3,1.2 2,3 2,5.3 -0.1,2.3 -0.7,4.1 -2,5.3 m 5.9,-2.8 c 0.1,0.6 0.2,1 0.5,1.3 0.4,0.5 1.2,0.8 2.2,0.8 0.6,0 1.2,-0.1 1.5,-0.2 0.8,-0.3 1.1,-0.8 1.1,-1.5 0,-0.4 -0.2,-0.8 -0.6,-1 -0.4,-0.2 -1,-0.4 -1.8,-0.6 l -1.4,-0.3 c -1.3,-0.3 -2.3,-0.6 -2.8,-1 -0.9,-0.6 -1.3,-1.5 -1.3,-2.8 0,-1.2 0.4,-2.1 1.3,-2.9 0.8,-0.8 2.1,-1.1 3.7,-1.1 1.4,0 2.5,0.4 3.5,1.1 1,0.7 1.5,1.8 1.5,3.1 h -2.6 c 0,-0.8 -0.4,-1.3 -1,-1.7 -0.4,-0.2 -0.9,-0.3 -1.6,-0.3 -0.7,0 -1.2,0.1 -1.7,0.4 -0.4,0.3 -0.6,0.7 -0.6,1.2 0,0.5 0.2,0.8 0.6,1 0.3,0.2 0.8,0.3 1.7,0.5 l 2.2,0.5 c 1,0.2 1.7,0.5 2.2,0.9 0.8,0.6 1.2,1.5 1.2,2.6 0,1.2 -0.5,2.2 -1.4,2.9 -0.9,0.8 -2.2,1.2 -3.8,1.2 -1.7,0 -3,-0.4 -4,-1.1 -1,-0.8 -1.4,-1.8 -1.4,-3.2 h 2.8 z m 19.6,-6.6 h -6.8 v 2.7 H 111 V 26 h -6.3 v 3.3 h 7.1 v 2.3 H 102 V 18.8 h 9.5 z m 11,1.7 c -0.2,-0.9 -0.7,-1.5 -1.5,-1.8 -0.4,-0.2 -0.9,-0.3 -1.5,-0.3 -1,0 -1.9,0.4 -2.6,1.2 -0.7,0.8 -1,2 -1,3.5 0,1.6 0.4,2.7 1.1,3.4 0.7,0.7 1.5,1 2.5,1 0.9,0 1.6,-0.3 2.2,-0.8 0.6,-0.5 0.9,-1.2 1.1,-2.1 h -3 v -2.2 h 5.4 v 6.9 h -1.8 L 123.1,30 c -0.5,0.6 -1,1 -1.4,1.3 -0.7,0.4 -1.6,0.7 -2.6,0.7 -1.7,0 -3.1,-0.6 -4.2,-1.8 -1.1,-1.2 -1.7,-2.8 -1.7,-4.9 0,-2.1 0.6,-3.8 1.7,-5 1.1,-1.3 2.7,-1.9 4.6,-1.9 1.6,0 3,0.4 3.9,1.3 1,0.8 1.6,1.9 1.7,3.1 z m 5.3,-4 h 2.7 v 7.9 c 0,0.9 0.1,1.5 0.3,1.9 0.3,0.7 1,1.1 2.1,1.1 1.1,0 1.8,-0.4 2.1,-1.1 0.2,-0.4 0.3,-1.1 0.3,-1.9 v -7.9 h 2.7 v 7.9 c 0,1.4 -0.2,2.4 -0.6,3.2 -0.8,1.4 -2.3,2.1 -4.5,2.1 -2.2,0 -3.7,-0.7 -4.5,-2.1 -0.4,-0.8 -0.6,-1.8 -0.6,-3.2 z"
   id="path1"
   style="fill:#ffffff" />
	<g
   id="g7"
   style="fill:#ffffff">
		<path
   d="M 54.7,38.1 H 57 l 3.4,9.7 h -2.2 l -0.6,-2 H 54 l -0.7,2 h -2.1 z m -0.1,6 H 57 l -1.2,-3.8 z"
   id="path2"
   style="fill:#ffffff" />
		<path
   d="m 61.6,38.1 h 2 V 46 h 4.8 v 1.7 h -6.9 v -9.6 z"
   id="path3"
   style="fill:#ffffff" />
		<path
   d="m 72.6,38.1 h 2.3 l 3.4,9.7 h -2.2 l -0.6,-2 h -3.6 l -0.7,2 h -2.1 z m -0.1,6 H 75 l -1.2,-3.8 z"
   id="path4"
   style="fill:#ffffff" />
		<path
   d="m 85.8,38.3 c 0.4,0.2 0.7,0.4 0.9,0.7 0.2,0.2 0.4,0.5 0.5,0.8 0.1,0.3 0.2,0.6 0.2,1 0,0.5 -0.1,0.9 -0.3,1.4 -0.2,0.4 -0.6,0.8 -1.2,0.9 0.4,0.2 0.8,0.4 0.9,0.8 0.2,0.3 0.3,0.8 0.3,1.5 v 0.7 c 0,0.4 0,0.7 0.1,0.9 0.1,0.2 0.2,0.4 0.4,0.6 v 0.2 H 85.4 C 85.3,47.6 85.3,47.4 85.3,47.3 85.2,47 85.2,46.8 85.2,46.5 v -0.9 c 0,-0.6 -0.1,-1 -0.3,-1.2 -0.2,-0.2 -0.6,-0.3 -1.2,-0.3 h -2 v 3.8 h -2 v -9.7 h 4.6 c 0.6,-0.1 1.1,0 1.5,0.1 z m -4.2,1.5 v 2.6 h 2.2 c 0.4,0 0.8,-0.1 1,-0.2 0.4,-0.2 0.6,-0.5 0.6,-1.1 0,-0.6 -0.2,-1 -0.6,-1.2 -0.2,-0.1 -0.5,-0.2 -0.9,-0.2 h -2.3 z"
   id="path5"
   style="fill:#ffffff" />
		<path
   d="m 95.7,38.1 h 2.9 v 9.7 h -1.9 v -6.6 c 0,-0.2 0,-0.5 0,-0.8 0,-0.3 0,-0.6 0,-0.8 l -1.8,8.1 h -2 l -1.8,-8.1 c 0,0.2 0,0.4 0,0.8 0,0.3 0,0.6 0,0.8 v 6.6 h -1.9 v -9.7 h 2.9 l 1.8,7.6 z"
   id="path6"
   style="fill:#ffffff" />
		<path
   d="m 102,44.8 c 0.1,0.4 0.2,0.8 0.4,1 0.3,0.4 0.9,0.6 1.7,0.6 0.5,0 0.9,-0.1 1.2,-0.2 0.6,-0.2 0.9,-0.6 0.9,-1.1 0,-0.3 -0.1,-0.6 -0.4,-0.7 -0.3,-0.2 -0.7,-0.3 -1.3,-0.5 l -1,-0.2 c -1,-0.2 -1.7,-0.5 -2.1,-0.7 -0.7,-0.4 -1,-1.1 -1,-2.1 0,-0.9 0.3,-1.6 1,-2.2 0.6,-0.6 1.6,-0.9 2.8,-0.9 1,0 1.9,0.3 2.6,0.8 0.7,0.5 1.1,1.3 1.1,2.4 H 106 c 0,-0.6 -0.3,-1 -0.8,-1.2 -0.3,-0.2 -0.7,-0.2 -1.2,-0.2 -0.5,0 -1,0.1 -1.3,0.3 -0.3,0.2 -0.5,0.5 -0.5,0.9 0,0.3 0.2,0.6 0.5,0.8 0.2,0.1 0.6,0.2 1.3,0.4 l 1.7,0.4 c 0.7,0.2 1.3,0.4 1.7,0.7 0.6,0.5 0.9,1.1 0.9,2 0,0.9 -0.3,1.6 -1,2.2 -0.7,0.6 -1.7,0.9 -2.9,0.9 -1.3,0 -2.3,-0.3 -3,-0.9 -0.7,-0.6 -1.1,-1.4 -1.1,-2.4 h 1.7 z"
   id="path7"
   style="fill:#ffffff" />
	</g>
</g>
</svg>
