<?xml version="1.0" encoding="UTF-8" standalone="no"?>
<!-- Created with Inkscape (http://www.inkscape.org/) -->

<svg
   width="190.73492"
   height="56"
   viewBox="0 0 50.465283 14.816667"
   version="1.1"
   id="svg1"
   sodipodi:docname="silvestre-lab.svg"
   inkscape:version="1.4.2 (ebf0e940d0, 2025-05-08)"
   xmlns:inkscape="http://www.inkscape.org/namespaces/inkscape"
   xmlns:sodipodi="http://sodipodi.sourceforge.net/DTD/sodipodi-0.dtd"
   xmlns="http://www.w3.org/2000/svg"
   xmlns:svg="http://www.w3.org/2000/svg">
  <sodipodi:namedview
     id="namedview1"
     pagecolor="#0e0e0e"
     bordercolor="#000000"
     borderopacity="0.25"
     inkscape:showpageshadow="2"
     inkscape:pageopacity="0.0"
     inkscape:pagecheckerboard="0"
     inkscape:deskcolor="#d1d1d1"
     inkscape:document-units="mm"
     inkscape:export-bgcolor="#00000000"
     inkscape:zoom="1.6349082"
     inkscape:cx="1.2233103"
     inkscape:cy="19.572965"
     inkscape:window-width="1920"
     inkscape:window-height="1037"
     inkscape:window-x="1366"
     inkscape:window-y="0"
     inkscape:window-maximized="1"
     inkscape:current-layer="svg1" />
  <defs
     id="defs1" />
  <g
     id="layer1"
     transform="translate(-63.219616,-97.002922)">
    <g
       id="text1"
       style="font-weight:bold;font-size:8.89578px;font-family:'Open Sans';-inkscape-font-specification:'Open Sans, Bold';letter-spacing:-0.527682px;fill:#ffffff;stroke-width:4.85224"
       aria-label="&#10;Silvestre LAB&#10;">
      <path
         d="m 67.359107,105.98363 q 0,0.86004 -0.621141,1.35522 -0.616797,0.49517 -1.720082,0.49517 -1.016412,0 -1.798268,-0.38224 v -1.25097 q 0.642859,0.28668 1.085911,0.40396 0.447395,0.11728 0.816604,0.11728 0.443052,0 0.677609,-0.1694 0.2389,-0.1694 0.2389,-0.50386 0,-0.18678 -0.104247,-0.33012 -0.104248,-0.14768 -0.308399,-0.28234 -0.199808,-0.13465 -0.820949,-0.43002 -0.582048,-0.27365 -0.873072,-0.52558 -0.291024,-0.25193 -0.464769,-0.58639 -0.173746,-0.33446 -0.173746,-0.78186 0,-0.84266 0.569017,-1.32481 0.573361,-0.48214 1.581086,-0.48214 0.495175,0 0.94257,0.11728 0.451739,0.11728 0.942571,0.33011 l -0.434365,1.04682 q -0.508206,-0.20849 -0.842666,-0.29102 -0.330117,-0.0825 -0.651547,-0.0825 -0.38224,0 -0.586391,0.17809 -0.204151,0.17809 -0.204151,0.46477 0,0.17809 0.08253,0.31274 0.08253,0.13031 0.260618,0.25627 0.182433,0.12163 0.855698,0.44306 0.890447,0.42567 1.220563,0.85569 0.330117,0.42568 0.330117,1.04682 z"
         id="path4" />
      <path
         d="m 67.821776,101.63565 q 0,-0.64721 0.721045,-0.64721 0.721044,0 0.721044,0.64721 0,0.30839 -0.182433,0.48214 -0.178089,0.1694 -0.538611,0.1694 -0.721045,0 -0.721045,-0.65154 z m 1.381278,6.1115 h -1.324811 v -4.85619 h 1.324811 z m 2.187094,0 h -1.324811 v -6.75871 h 1.324811 z m 2.017693,0 -1.850392,-4.85619 h 1.385622 l 0.938227,2.7669 q 0.156371,0.52558 0.195464,0.99469 h 0.02606 q 0.02172,-0.41699 0.195464,-0.99469 l 0.933883,-2.7669 h 1.385622 l -1.850392,4.85619 z m 5.388359,-4.00484 q -0.421333,0 -0.660234,0.26931 -0.2389,0.26496 -0.273649,0.75579 h 1.859079 q -0.0087,-0.49083 -0.256275,-0.75579 -0.247588,-0.26931 -0.668921,-0.26931 z m 0.186777,4.09171 q -1.172784,0 -1.833017,-0.6472 -0.660234,-0.6472 -0.660234,-1.83302 0,-1.22056 0.60811,-1.88514 0.612453,-0.66892 1.689677,-0.66892 1.029443,0 1.602804,0.58639 0.573361,0.5864 0.573361,1.62018 v 0.64286 h -3.131767 q 0.02172,0.56467 0.334461,0.88176 0.312742,0.31709 0.877416,0.31709 0.438707,0 0.829635,-0.0912 0.390928,-0.0912 0.816605,-0.29102 v 1.0251 q -0.347491,0.17374 -0.742763,0.25627 -0.395271,0.0869 -0.964288,0.0869 z m 5.918282,-1.52896 q 0,0.74711 -0.521237,1.13804 -0.516893,0.39092 -1.55068,0.39092 -0.529925,0 -0.903478,-0.0738 -0.373553,-0.0695 -0.699326,-0.20849 v -1.0946 q 0.369209,0.17374 0.829635,0.29102 0.46477,0.11728 0.816605,0.11728 0.721045,0 0.721045,-0.41699 0,-0.15637 -0.09556,-0.25193 -0.09556,-0.0999 -0.330117,-0.22153 -0.234557,-0.12596 -0.625485,-0.29102 -0.560329,-0.23456 -0.825292,-0.43436 -0.260618,-0.19981 -0.38224,-0.45609 -0.117279,-0.26061 -0.117279,-0.63851 0,-0.6472 0.499519,-0.99904 0.503863,-0.35618 1.424715,-0.35618 0.877416,0 1.707052,0.38224 l -0.399616,0.9556 q -0.364866,-0.15637 -0.681951,-0.25627 -0.317086,-0.0999 -0.647203,-0.0999 -0.586392,0 -0.586392,0.31708 0,0.17809 0.186777,0.3084 0.19112,0.13031 0.829635,0.38658 0.569018,0.23022 0.83398,0.43002 0.264962,0.19981 0.390928,0.46043 0.125965,0.26062 0.125965,0.62114 z m 2.551961,0.47346 q 0.347491,0 0.833979,-0.15203 v 0.98601 q -0.495175,0.22152 -1.21622,0.22152 -0.794886,0 -1.159752,-0.39961 -0.360523,-0.40396 -0.360523,-1.20753 v -2.34123 h -0.634171 v -0.56033 l 0.729731,-0.44305 0.382241,-1.0251 h 0.84701 v 1.03379 h 1.35956 v 0.99469 h -1.35956 v 2.34123 q 0,0.28233 0.156371,0.41699 0.160715,0.13465 0.421334,0.13465 z m 3.998394,-3.97878 q 0.269305,0 0.447395,0.0391 l -0.0999,1.24229 q -0.160715,-0.0434 -0.390928,-0.0434 -0.634172,0 -0.99035,0.32577 -0.351835,0.32578 -0.351835,0.91217 v 2.47153 h -1.324811 v -4.85619 h 1.003381 l 0.195464,0.8166 h 0.06515 q 0.225869,-0.4083 0.60811,-0.65589 0.386584,-0.25193 0.838323,-0.25193 z m 2.812579,0.94257 q -0.421334,0 -0.660234,0.26931 -0.2389,0.26496 -0.273649,0.75579 h 1.859079 q -0.0087,-0.49083 -0.256275,-0.75579 -0.247588,-0.26931 -0.668921,-0.26931 z m 0.186776,4.09171 q -1.172783,0 -1.833017,-0.6472 -0.660233,-0.6472 -0.660233,-1.83302 0,-1.22056 0.60811,-1.88514 0.612453,-0.66892 1.689676,-0.66892 1.029444,0 1.602805,0.58639 0.57336,0.5864 0.57336,1.62018 v 0.64286 h -3.131766 q 0.02172,0.56467 0.334461,0.88176 0.312742,0.31709 0.877415,0.31709 0.438708,0 0.829636,-0.0912 0.390928,-0.0912 0.816605,-0.29102 v 1.0251 q -0.347492,0.17374 -0.742763,0.25627 -0.395271,0.0869 -0.964289,0.0869 z m 4.417624,-0.0869 v -6.3504 h 1.346527 v 5.23843 h 2.57578 v 1.11197 z m 8.385477,0 -0.46043,-1.51159 h -2.31516 l -0.46043,1.51159 h -1.45077 l 2.24132,-6.37647 h 1.64624 l 2.25,6.37647 z m -0.78186,-2.64093 q -0.63851,-2.05455 -0.72104,-2.32385 -0.0782,-0.26931 -0.11294,-0.42568 -0.14334,0.55599 -0.82095,2.74953 z m 2.50418,-3.70947 h 1.97636 q 1.35087,0 1.95898,0.38658 0.61246,0.38224 0.61246,1.22056 0,0.56902 -0.26931,0.93389 -0.26496,0.36486 -0.70801,0.4387 v 0.0434 q 0.60376,0.13465 0.86872,0.50386 0.26931,0.36921 0.26931,0.98167 0,0.86872 -0.62983,1.35521 -0.62548,0.48649 -1.70271,0.48649 h -2.37597 z m 1.34653,2.51496 h 0.78186 q 0.5473,0 0.79054,-0.1694 0.24759,-0.1694 0.24759,-0.56033 0,-0.36486 -0.26931,-0.52123 Q 111.60864,102.5 111.03094,102.5 h -0.70802 z m 0,1.06854 v 1.65493 h 0.87742 q 0.55598,0 0.82095,-0.21284 0.26496,-0.21284 0.26496,-0.65155 0,-0.79054 -1.12935,-0.79054 z"
         id="path5" />
    </g>
  </g>
</svg>
