<svg width="173" height="235" viewBox="0 0 173 235" fill="none" xmlns="http://www.w3.org/2000/svg">
<path d="M10.4675 189.921C5.7193 188.091 0.884282 182.902 0.16578 178.864C-0.144445 177.125 -0.0061924 173.93 0.471201 171.766C1.88891 165.329 67.0796 15.7572 71.3777 9.07719C75.2049 3.12946 79.3568 0.495644 85.587 0.0602037C94.553 -0.566048 101.034 3.697 105.494 13.1543C107.642 17.706 133.198 78.3998 157.31 136.212C169.927 166.463 171.974 171.976 172.302 176.577C172.667 181.731 172.588 182 169.896 184.841C166.342 188.585 159.343 190.873 153.409 190.227C149.246 189.774 132.296 182.926 103.183 169.935C94.4196 166.024 88.2216 163.754 86.1593 163.698C83.6887 163.633 75.6004 166.839 52.1438 177.187C19.3821 191.64 16.8954 192.4 10.4675 189.921Z" fill="url(#paint0_radial_8_1395)"/>
<path d="M79.398 233.183C75.6498 231.368 44.9545 198.6 46.2342 197.78C46.7275 197.466 51.1114 195.447 55.9782 193.296C60.843 191.146 68.783 187.334 73.6189 184.827C85.4248 178.706 88.7767 178.768 102.298 185.341C108.023 188.124 115.517 191.678 118.952 193.239C122.386 194.799 125.812 196.613 126.564 197.269C127.629 198.194 124.634 202.01 113.032 214.513C104.287 223.937 96.4154 231.428 93.9717 232.65C89.078 235.098 83.755 235.294 79.398 233.183Z" fill="url(#paint1_radial_8_1395)"/>
<defs>
<radialGradient id="paint0_radial_8_1395" cx="0" cy="0" r="1" gradientUnits="userSpaceOnUse" gradientTransform="translate(78.5 107.978) rotate(14.8826) scale(125.2 261.274)">
<stop stop-color="#366DB5"/>
<stop offset="1" stop-color="#A0FFFF"/>
</radialGradient>
<radialGradient id="paint1_radial_8_1395" cx="0" cy="0" r="1" gradientUnits="userSpaceOnUse" gradientTransform="translate(82.8687 211.025) rotate(9.18836) scale(57.2631 75.8869)">
<stop stop-color="#366DB5"/>
<stop offset="1" stop-color="#A0FFFF"/>
</radialGradient>
</defs>
</svg>
