<svg width="121" height="49" viewBox="0 0 121 49" fill="none" xmlns="http://www.w3.org/2000/svg">
<path d="M63.3216 42.1727L63.3539 39.1312L63.9278 39.0921C64.4722 39.0552 64.5014 39.0698 64.5014 39.3802C64.5014 39.7788 64.5369 39.7822 64.9922 39.4252C65.5143 39.0158 66.7109 38.9503 67.3499 39.2961C68.4253 39.878 68.5961 40.4008 68.603 43.1331L68.6083 45.2142H68.0045H67.4004L67.3999 43.1972C67.3995 41.4238 67.371 41.1308 67.164 40.7711C66.6793 39.9279 65.4113 39.9291 64.8164 40.773C64.5872 41.0983 64.5577 41.3381 64.521 43.1742L64.4803 45.2142H63.8847H63.2893L63.3216 42.1727ZM74.3757 45.1672C73.136 44.677 72.5298 43.6767 72.541 42.1406C72.5494 41.0289 72.8083 40.3688 73.4828 39.7409C74.0535 39.2096 74.6377 39.0305 75.6082 39.0884C76.2465 39.1268 76.5351 39.2143 76.9236 39.4868C77.3662 39.7971 77.9091 40.6215 77.9091 40.983C77.9091 41.0563 77.6567 41.1161 77.3482 41.1161C76.85 41.1161 76.7432 41.0624 76.3957 40.6359C76.0309 40.1884 75.9581 40.1557 75.3339 40.1557C74.7596 40.1557 74.6116 40.2087 74.2997 40.5252C73.6923 41.1423 73.5491 42.5026 73.9934 43.4342C74.2379 43.947 74.6841 44.1897 75.3821 44.1897C75.9389 44.1897 76.045 44.1425 76.3916 43.7414C76.7284 43.3516 76.8522 43.2932 77.3439 43.2932C77.7379 43.2932 77.9091 43.3455 77.9091 43.466C77.9091 43.8057 77.1786 44.6997 76.6814 44.9688C76.0434 45.3139 74.978 45.4055 74.3757 45.1672ZM58.1556 41.3403C57.9144 40.4837 57.21 40.0127 56.3526 40.1347C55.8058 40.2124 55.0798 40.9172 55.0798 41.3703C55.0798 41.6159 55.1567 41.6284 56.6582 41.6284H58.2368L58.1556 41.3403ZM55.6685 45.1421C53.6406 44.4798 53.1032 41.2836 54.7606 39.7409C55.3335 39.2077 55.9145 39.0302 56.8975 39.0891C57.5755 39.13 57.8215 39.2084 58.2454 39.52C58.9407 40.031 59.4284 41.0414 59.4284 41.9715V42.6529H57.2541C54.864 42.6529 54.8827 42.6456 55.2631 43.4254C55.5014 43.9137 56.0201 44.1897 56.7004 44.1897C57.1341 44.1897 57.3303 44.111 57.6584 43.8055C58.0028 43.4848 58.1743 43.4213 58.6936 43.4213C59.2997 43.4213 59.3124 43.4289 59.1766 43.7094C58.8792 44.3246 58.1647 44.9656 57.5664 45.154C56.8383 45.3833 56.3993 45.3806 55.6685 45.1421ZM38.1817 43.8991C39.3879 43.0447 39.2614 40.9316 37.9683 40.3253C35.9315 39.3699 34.5513 42.6299 36.435 43.9467C36.9138 44.2813 37.6711 44.2605 38.1817 43.8991ZM36.223 45.1655C35.5237 44.9006 35.1019 44.5125 34.7208 43.783C34.4123 43.1925 34.3654 42.9723 34.3714 42.1406C34.3843 40.3035 35.4453 39.0671 37.0093 39.0671C37.8021 39.0671 38.238 39.2255 38.6828 39.6754L39.015 40.0115V39.5393V39.0671H39.6188H40.2228V42.1406V45.2142H39.6188C39.0298 45.2142 39.015 45.2049 39.015 44.8339V44.4536L38.5779 44.7679C37.7985 45.3288 37.0065 45.4625 36.223 45.1655ZM82.3674 47.75C82.4272 47.588 82.6715 46.9748 82.9103 46.3875C83.1491 45.8 83.3446 45.2388 83.3446 45.1399C83.3446 45.0411 82.8555 43.6627 82.2574 42.0766C81.6596 40.4905 81.1703 39.1644 81.1703 39.13C81.1703 39.0955 81.4615 39.0671 81.8174 39.0671H82.4644L83.1628 41.0841C83.5469 42.1934 83.9132 43.2453 83.9764 43.4213C84.0976 43.7576 84.1436 43.6505 85.4496 39.9956L85.7816 39.0671H86.3748C86.7013 39.0671 86.9669 39.1104 86.965 39.1632C86.9633 39.216 86.1887 41.2185 85.2439 43.6134L83.5259 47.9675L82.8921 48.0061C82.2747 48.044 82.2615 48.0374 82.3674 47.75ZM47.845 43.8991C49.0509 43.0447 48.9247 40.9316 47.6313 40.3253C45.5945 39.3699 44.2145 42.6299 46.0982 43.9467C46.577 44.2813 47.3343 44.2605 47.845 43.8991ZM45.7828 48.0171C45.0521 47.708 44.3297 46.8589 44.3297 46.309C44.3297 46.16 44.4617 46.1106 44.8612 46.1106C45.3052 46.1106 45.4607 46.1827 45.8058 46.5488C46.3179 47.0916 46.9586 47.2478 47.6347 46.9941C48.3235 46.7358 48.5963 46.2765 48.6567 45.2726L48.7067 44.4375L48.0689 44.8578C47.5279 45.2144 47.3181 45.2782 46.6862 45.2782C45.6755 45.2782 44.9318 44.7987 44.403 43.8055C44.0727 43.1857 44.0286 42.9858 44.0344 42.1406C44.0418 41.1047 44.2236 40.5746 44.7965 39.9198C45.7201 38.864 47.4795 38.7558 48.4064 39.6974L48.678 39.9736V39.5202V39.0671H49.282H49.8861L49.8854 42.4288C49.8849 44.3793 49.8315 45.9935 49.7579 46.2741C49.5929 46.9037 48.986 47.6276 48.3772 47.9208C47.8392 48.1799 46.3021 48.2368 45.7828 48.0171Z" fill="#38B6FF"/>
<path d="M86.46 22.6125C88.6057 22.1603 90.392 20.7917 91.242 18.9485C91.9167 17.4853 92.0899 16.6006 92.0899 14.6127C92.0899 12.6201 91.9172 11.742 91.2343 10.2585C90.6363 8.95909 89.5863 7.84636 88.3974 7.25175C86.9191 6.51245 86.3189 6.39588 83.6163 6.32256L81.1704 6.25633V14.5325V22.8087H83.3497C84.8215 22.8087 85.8313 22.7449 86.46 22.6125ZM74.6476 14.6127V0.383278L81.0796 0.432158C87.1107 0.478106 87.5766 0.4979 88.5502 0.749628C91.1033 1.40998 93.1164 2.50389 94.7352 4.11152C96.4892 5.85284 97.6041 7.7706 98.2513 10.1586C99.1587 13.5061 98.9516 17.5354 97.7097 20.6981C96.4863 23.8139 93.7842 26.5362 90.6933 27.7672C88.2572 28.7372 88.2458 28.7384 81.0796 28.7929L74.6476 28.8421V14.6127ZM47.8477 28.8724C47.1402 28.5982 46.4198 27.8205 46.3127 27.2154C46.2665 26.9549 46.2871 26.4761 46.3582 26.1518C46.5695 25.1871 56.2832 2.77273 56.9237 1.77169C57.494 0.880379 58.1126 0.48568 59.0409 0.420427C60.3769 0.32658 61.3426 0.965427 62.0073 2.38267C62.3273 3.06478 66.1352 12.1602 69.7281 20.8237C71.608 25.357 71.9131 26.1833 71.962 26.8727C72.0164 27.645 72.0046 27.6854 71.6034 28.1111C71.0739 28.6722 70.0311 29.0151 69.1468 28.9183C68.5265 28.8504 66.0009 27.8242 61.6629 25.8773C60.3571 25.2913 59.4335 24.9511 59.1262 24.9428C58.7581 24.933 57.5529 25.4135 54.0577 26.9641C49.176 29.13 48.8055 29.2439 47.8477 28.8724ZM109.582 29.0816C107.734 28.8792 105.868 28.258 104.53 27.4004C102.415 26.0438 100.964 23.6719 100.773 21.2605L100.703 20.3755H104.224H107.744L107.745 20.7277C107.747 21.2925 108.278 22.3443 108.785 22.7894C109.901 23.7675 111.991 23.8344 113.169 22.9299C114.306 22.0565 114.445 20.3709 113.474 19.231C112.891 18.5465 111.741 17.9506 109.524 17.1842C105.216 15.6949 104.116 15.1303 102.778 13.7228C101.286 12.1531 100.806 10.8595 100.806 8.40163C100.806 5.91833 101.364 4.43143 102.897 2.82845C104.253 1.4112 106.046 0.501566 108.208 0.133997C109.271 -0.0466118 111.923 -0.0390339 113.059 0.147928C117.263 0.840788 120.142 3.73491 120.601 7.7293L120.686 8.46566H117.127H113.569L113.485 7.98982C113.364 7.30967 113.142 6.91057 112.59 6.38219C111.452 5.29146 109.345 5.25896 108.382 6.31694C107.903 6.8441 107.744 7.28621 107.744 8.09491C107.744 8.86158 108.077 9.61554 108.585 9.99899C109.198 10.4619 110.857 11.2288 112.73 11.9155C117.986 13.8423 119.869 15.2955 120.67 18.0435C121.883 22.2048 119.648 26.7691 115.623 28.3508C113.922 29.0195 111.591 29.3015 109.582 29.0816ZM32.8547 29.0857C27.6015 28.4958 23.9981 24.9459 23.3208 19.6939C23.2391 19.0604 23.1914 15.3297 23.1914 9.54491V0.397697H26.4528H29.7142L29.7166 9.07396C29.7178 14.1019 29.7693 18.1271 29.8385 18.6467C29.9866 19.7543 30.5355 20.9826 31.1305 21.5361C31.3752 21.7639 31.8768 22.1002 32.2451 22.2835C32.8547 22.5865 33.0508 22.6166 34.4249 22.6166C35.799 22.6166 35.9951 22.5865 36.6047 22.2835C36.973 22.1002 37.4748 21.7639 37.7194 21.5361C38.2508 21.0415 38.8462 19.8078 39.0144 18.8532C39.0882 18.4331 39.1356 14.6906 39.1356 9.28047V0.397697H42.4013H45.667L45.6301 10.1625C45.5937 19.8471 45.5911 19.9356 45.3211 20.9518C44.2168 25.107 41.3053 27.9305 37.1999 28.8272C35.9154 29.1077 34.0429 29.2192 32.8547 29.0857ZM8.93849 29.0826C4.32506 28.6075 1.15516 26.1474 0.233764 22.3277C0.105148 21.7949 0 21.1378 0 20.8672V20.3755H3.50282C6.81116 20.3755 7.00589 20.3885 7.00589 20.6089C7.00589 21.1698 7.43389 22.1168 7.92129 22.6335C8.58976 23.3422 9.48577 23.6406 10.6371 23.5385C11.9953 23.4177 12.7551 22.9507 13.1792 21.9763C13.6408 20.9164 13.4183 19.8713 12.5563 19.0497C11.752 18.2828 11.3288 18.0814 8.18259 16.9667C4.50158 15.6626 3.24823 15.0008 2.06505 13.7363C0.58201 12.1514 0.0840724 10.8468 0.0780846 8.52969C0.0716179 6.06546 0.674457 4.38671 2.10169 2.89492C3.4372 1.49894 4.88192 0.709547 6.93834 0.252285C8.37061 -0.0661621 11.2177 -0.0866928 12.683 0.210979C15.6649 0.816345 17.9685 2.51147 19.0822 4.91949C19.5308 5.88998 19.9303 7.41281 19.9303 8.15381V8.46566H16.3824H12.8346L12.7618 7.98371C12.7218 7.71855 12.5302 7.23586 12.3357 6.91082C11.6809 5.81617 10.0489 5.27142 8.68437 5.69202C7.27366 6.1268 6.60303 7.75887 7.25162 9.17929C7.66813 10.0916 8.78281 10.7246 12.1996 11.9889C16.0035 13.3963 17.3465 14.152 18.578 15.5768C19.8395 17.0363 20.3705 18.6997 20.2527 20.8237C19.9997 25.392 16.7877 28.539 11.8274 29.0786C10.5025 29.2228 10.302 29.2231 8.93849 29.0826Z" fill="white"/>
<path d="M58.1576 33.5043C57.7227 33.2953 54.1607 29.5233 54.3092 29.429C54.3664 29.3928 54.8752 29.1604 55.4399 28.9128C56.0044 28.6653 56.9258 28.2266 57.487 27.9379C58.857 27.2334 59.246 27.2404 60.815 27.9971C61.4794 28.3175 62.349 28.7266 62.7476 28.9062C63.1461 29.0859 63.5437 29.2946 63.6309 29.3701C63.7545 29.4767 63.407 29.9158 62.0607 31.3551C61.0459 32.4399 60.1324 33.3022 59.8488 33.4429C59.2809 33.7247 58.6632 33.7472 58.1576 33.5043Z" fill="#38B6FF"/>
</svg>
